<svg width="88" height="88" viewBox="0 0 88 88" fill="none" xmlns="http://www.w3.org/2000/svg">
<path d="M76.3941 31.8513L43.9973 7.55359V17.6776L68.295 35.9007V68.2977C64.7853 65.6654 60.9719 63.6576 56.8548 62.274L52.0966 69.3101C54.7287 69.985 57.2261 70.9973 59.5883 72.3472H37.7949V80.4465H76.3941V31.8513Z" fill="#005834"/>
<path d="M11.6016 31.8513V80.4465H37.796V72.3472H28.4075C30.7698 70.9973 33.2669 69.985 35.8992 69.3101C38.5314 68.6351 41.2311 68.2977 43.9984 68.2977C46.7656 68.2977 49.4654 68.6351 52.0977 69.3101L56.8559 62.274C52.7388 60.8904 48.453 60.1984 43.9984 60.1984C39.5439 60.1984 35.2579 60.8904 31.141 62.274C27.0239 63.6576 23.2104 65.6654 19.7008 68.2977V35.9007L43.9984 17.6776V7.55359L11.6016 31.8513Z" fill="#005834"/>
<path fill-rule="evenodd" clip-rule="evenodd" d="M44.0003 56.1489C47.3751 56.1489 50.2436 54.9678 52.6058 52.6056C54.9681 50.2433 56.1493 47.3747 56.1493 44.0001C56.1493 40.6255 54.9681 37.757 52.6058 35.3946C50.2436 33.0324 47.3751 31.8513 44.0003 31.8513C40.6257 31.8513 37.7573 33.0324 35.395 35.3946C33.0328 37.757 31.8516 40.6255 31.8516 44.0001C31.8516 47.3747 33.0328 50.2433 35.395 52.6056C37.7573 54.9678 40.6257 56.1489 44.0003 56.1489ZM41.115 46.8854C41.8913 47.6616 42.853 48.0497 44.0003 48.0497C45.1478 48.0497 46.1096 47.6616 46.8858 46.8854C47.6619 46.1093 48.05 45.1474 48.05 44.0001C48.05 42.8528 47.6619 41.8908 46.8858 41.1148C46.1096 40.3386 45.1478 39.9504 44.0003 39.9504C42.853 39.9504 41.8913 40.3386 41.115 41.1148C40.3388 41.8908 39.9509 42.8528 39.9509 44.0001C39.9509 45.1474 40.3388 46.1093 41.115 46.8854Z" fill="#005834"/>
</svg>
