<svg width="373" height="373" viewBox="0 0 373 373" fill="none" xmlns="http://www.w3.org/2000/svg">
<path d="M241.867 0H129.676C97.4879 0 71.3945 26.0934 71.3945 58.2812V170.472C71.3945 202.66 97.4879 228.754 129.676 228.754H241.867C274.055 228.754 300.148 202.66 300.148 170.472V58.2812C300.148 26.0934 274.055 0 241.867 0Z" fill="#005834"/>
<path d="M102.928 144.428L119.422 160.921C123.239 164.578 129.301 164.52 133.06 160.775L149.422 144.413C150.69 143.131 150.69 141.091 149.422 139.824L128.47 118.871C127.363 117.764 125.25 117.516 123.88 118.871L102.943 139.824C101.675 141.091 101.675 143.146 102.943 144.413" fill="white"/>
<path d="M127.986 169.504L144.815 186.318C147.889 189.378 151.955 191.068 156.297 191.068C160.639 191.068 164.718 189.378 167.778 186.318L209.682 144.428C210.775 143.335 211.066 141.237 209.682 139.839L188.73 118.886C187.462 117.619 185.408 117.619 184.141 118.886L137.661 165.38C135.519 167.537 131.891 168.688 128.54 168.411C127.928 168.367 127.578 169.081 128.016 169.504" fill="white"/>
<path d="M214.725 60.9113L197.897 44.097C190.16 36.3602 179.742 39.318 174.934 44.097L133.088 85.9431C132.68 86.3511 132.345 86.8464 132.214 87.4146C131.908 88.5802 132.228 89.7604 133.044 90.5764L153.982 111.529C155.249 112.796 157.304 112.782 158.571 111.529L205.051 65.0346C207.207 62.8782 210.835 61.7272 214.172 62.004C214.784 62.0476 215.133 61.3482 214.696 60.9113" fill="white"/>
<path d="M193.312 169.97C192.044 171.237 192.044 173.292 193.312 174.559L205.07 186.317C211.394 192.641 221.695 192.641 228.034 186.317L269.924 144.428C271.191 143.16 271.191 141.091 269.924 139.838L248.97 118.886C247.848 117.75 245.795 117.473 244.38 118.886L193.297 169.97H193.312Z" fill="white"/>
<path d="M239.806 90.5767C241.073 89.3091 241.073 87.2547 239.806 85.9872L223.312 69.4935C219.495 65.8363 213.434 65.8948 209.674 69.6393L193.312 86.0017C192.044 87.2692 192.044 89.3237 193.312 90.606L214.25 111.543C215.794 113.059 217.907 112.49 218.839 111.543L239.79 90.5914L239.806 90.5767Z" fill="white"/>
<path d="M363.33 312.442H366.498C366.832 312.442 367.076 312.19 367.076 311.855V278.613C367.076 278.281 366.832 278.04 366.498 278.04H363.33C362.993 278.04 362.766 278.281 362.766 278.613V311.855C362.766 312.176 362.993 312.442 363.33 312.442Z" fill="#353535"/>
<path d="M105.205 312.722C105.513 312.669 105.661 312.456 105.661 312.162V309.519C105.661 309.226 105.446 309.026 105.097 309.026C104.507 309.026 103.849 309.16 103.204 309.16C100.829 309.16 98.4123 308.519 98.4123 305.583V291.263H94.4928C94.1976 291.263 93.9961 291.465 93.9961 291.759V305.569C93.9961 311.414 97.9024 312.963 101.943 312.963C103.043 312.963 104.158 312.87 105.205 312.722Z" fill="#353535"/>
<path d="M41.1854 282.766C42.7693 282.766 43.9372 281.538 43.9372 280.043C43.9372 278.547 42.7693 277.253 41.1854 277.253C39.6015 277.253 38.4336 278.481 38.4336 280.043C38.4336 281.604 39.6283 282.766 41.1854 282.766Z" fill="#353535"/>
<path d="M105.682 290.758V288.156C105.682 287.863 105.467 287.649 105.172 287.649H98.4199V291.252H105.172C105.467 291.252 105.682 291.051 105.682 290.758Z" fill="#353535"/>
<path d="M119.873 287.128C114.557 287.128 110.531 289.184 109.94 294.267C109.9 294.615 110.141 294.802 110.436 294.802H113.631C113.927 294.802 114.115 294.654 114.168 294.308C114.41 291.973 116.772 290.892 119.726 290.892C123.417 290.892 125.377 292.4 125.377 296.644V297.777H129.216C129.511 297.777 129.699 297.577 129.699 297.283V295.616C129.699 288.329 124.692 287.115 119.873 287.115V287.128Z" fill="#353535"/>
<path d="M108.762 305.662C108.762 310.548 112.44 313.19 117.608 313.19C120.896 313.19 123.796 311.628 125.272 309.185H125.366V311.921C125.366 312.215 125.568 312.415 125.876 312.415H129.205C129.501 312.415 129.689 312.215 129.689 311.921V302.046C129.689 301.752 129.501 301.552 129.205 301.552H125.366V302.981C125.366 306.984 121.393 309.385 118.44 309.385C115.782 309.385 113.621 308.198 113.621 305.717C113.621 302.928 115.688 301.552 120.01 301.552H125.366V297.804H118.735C113.084 297.804 108.762 300.431 108.762 305.676V305.662Z" fill="#353535"/>
<path d="M85.4605 282.766C87.0176 282.766 88.2123 281.538 88.2123 280.043C88.2123 278.547 87.0176 277.253 85.4605 277.253C83.9032 277.253 82.6953 278.481 82.6953 280.043C82.6953 281.604 83.8764 282.766 85.4605 282.766Z" fill="#353535"/>
<path d="M54.7667 312.08H51.8942C51.6392 312.08 51.4377 312.121 51.2901 312.335C50.0419 313.468 49.2363 315.165 49.2363 316.966C49.2363 320.034 50.9546 323.719 60.4582 323.719C69.9619 323.719 74.0693 319.834 74.0693 313.964C74.0693 310.88 72.1231 308.332 68.1631 308.332H60.2569V305.969C60.6058 306.035 61.0086 306.035 61.3979 306.035C68.1631 306.035 71.4519 301.179 71.4519 296.387C71.4519 294.679 71.0491 292.971 70.2035 291.477H75.6131C75.9218 291.477 76.123 291.263 76.123 290.942V288.168C76.123 287.86 75.9218 287.633 75.6131 287.633H65.841C64.5926 287.101 63.0892 286.78 61.3845 286.78C54.2298 286.78 50.7668 291.638 50.7668 296.387C50.7668 299.696 52.4177 303.047 55.8273 304.809V308.933L56.8742 310.852C57.4783 311.88 58.0823 312.067 59.3308 312.067H67.3443C68.8477 312.067 69.8007 313.161 69.8007 314.603C69.8412 317.619 67.398 319.954 60.4448 319.982C56.5387 319.982 53.6796 318.474 53.6125 315.804C53.6125 314.671 54.5252 313.416 55.1159 312.735C55.4111 312.415 55.3037 312.187 54.7667 312.08ZM55.3977 296.401C55.3977 293.558 57.3441 290.797 61.3038 290.797C65.0088 290.797 66.861 293.558 66.861 296.401C66.861 299.244 65.0088 302.046 61.3038 302.046C57.3441 302.046 55.3977 299.217 55.3977 296.401Z" fill="#353535"/>
<path d="M13.5408 278.026H8.42657C8.14469 278.026 7.94333 278.226 7.94333 278.506V281.922H12.9502C21.2592 281.922 25.1251 286.566 25.1251 295.32C25.1251 304.075 21.1652 308.505 12.8428 308.505H7.83594V311.921C7.83594 312.215 8.03729 312.415 8.31918 312.415H13.4334C24.5882 312.415 30.132 306.397 30.132 295.32C30.132 284.244 24.6955 278.026 13.5408 278.026Z" fill="#353535"/>
<path d="M3.71341 281.922C3.40468 281.922 3.21675 282.122 3.21675 282.416L3.10938 308.012C3.10938 308.305 3.29729 308.505 3.59261 308.505H7.80749L7.91489 281.922H3.71341Z" fill="#353535"/>
<path d="M42.8449 312.415C43.1537 312.415 43.3282 312.215 43.3282 311.921V288.143C43.3282 287.849 43.1403 287.663 42.8449 287.663H35.2875C34.9923 287.663 34.791 287.849 34.791 288.143V290.69C34.791 290.983 34.9923 291.172 35.2875 291.172H39.0193V311.921C39.0193 312.215 39.2072 312.415 39.5158 312.415H42.8449Z" fill="#353535"/>
<path d="M97.9383 278.026H94.5827C94.3006 278.026 94.0859 278.226 94.0859 278.506V287.153C94.0859 287.449 94.2872 287.649 94.5961 287.649H98.435V278.494C98.435 278.212 98.2203 278.012 97.9383 278.012V278.026Z" fill="#353535"/>
<path d="M79.5495 291.158H83.2811V311.908C83.2811 312.203 83.4823 312.403 83.7644 312.403H87.1202C87.402 312.403 87.6033 312.203 87.6033 311.908V288.129C87.6033 287.835 87.402 287.649 87.1202 287.649H79.5495C79.254 287.649 79.0527 287.835 79.0527 288.129V290.678C79.0527 290.972 79.254 291.158 79.5495 291.158Z" fill="#353535"/>
<path d="M140.307 311.921V278.506C140.307 278.226 140.092 278.026 139.81 278.026H136.467C136.186 278.026 135.984 278.226 135.984 278.506V311.921C135.984 312.215 136.186 312.415 136.467 312.415H139.81C140.092 312.415 140.307 312.215 140.307 311.921Z" fill="#353535"/>
<path d="M69.8083 355.185C69.8083 360.068 73.4863 362.697 78.6544 362.697C81.9429 362.697 84.8557 361.137 86.3188 358.708H86.4128V361.444C86.4128 361.737 86.6143 361.924 86.9095 361.924H90.2519C90.5471 361.924 90.7352 361.737 90.7352 361.444V351.568C90.7352 351.275 90.5471 351.089 90.2519 351.089H86.4128V352.501C86.4128 356.506 82.4262 358.908 79.4866 358.908C76.8287 358.908 74.6676 357.721 74.6676 355.223C74.6676 352.435 76.7482 351.075 81.057 351.075H86.4128V347.311H79.7818C74.1306 347.311 69.7949 349.954 69.7949 355.185H69.8083Z" fill="#353535"/>
<path d="M8.97336 336.503C8.97336 332.593 12.3023 330.924 16.289 330.924C20.2757 330.924 22.6248 333.032 23.363 336.009C23.4703 336.303 23.6182 336.448 23.9134 336.448H27.6852C28.0478 336.448 28.182 336.248 28.1283 335.916C27.0007 329.964 21.9805 326.935 16.1011 326.935C8.73173 326.935 4.02019 331.911 4.02019 337.076C4.02019 349.046 24.7993 343.387 24.7993 353.117C24.7993 356.572 21.0677 358.68 16.7857 358.68C11.6714 358.68 8.28876 355.505 7.79211 351.755C7.75183 351.462 7.5505 351.302 7.25517 351.302H3.36244C3.06713 351.302 2.87922 351.502 2.91948 351.796C3.49667 359.215 9.55055 362.683 15.9937 362.683C24.437 362.683 29.5914 358.36 29.5914 351.903C29.5914 339.291 8.97336 344.87 8.97336 336.517V336.503Z" fill="#353535"/>
<path d="M180.052 336.903C176.375 336.903 173.569 338.329 171.904 341.452H171.811V327.988C171.811 327.694 171.609 327.494 171.314 327.494H167.972C167.676 327.494 167.488 327.694 167.488 327.988V361.417C167.488 361.696 167.676 361.896 167.972 361.896H171.314C171.609 361.896 171.811 361.696 171.811 361.417V347.898C171.811 343.321 174.804 341.065 178.589 341.065C182.375 341.065 184.778 343.321 184.778 347.898V361.417C184.778 361.696 184.979 361.896 185.261 361.896H188.603C188.898 361.896 189.086 361.696 189.086 361.417V346.617C189.086 339.785 185.207 336.903 180.052 336.903Z" fill="#353535"/>
<path d="M80.9267 336.637C75.6112 336.637 71.5842 338.691 70.9935 343.776C70.9399 344.122 71.1948 344.309 71.4768 344.309H74.6849C74.9803 344.309 75.1816 344.163 75.2218 343.815C75.4634 341.482 77.826 340.413 80.7791 340.413C84.4704 340.413 86.4303 341.921 86.4303 346.165V347.299H90.2692C90.5647 347.299 90.7525 347.099 90.7525 346.806V345.15C90.7525 337.865 85.7457 336.637 80.9267 336.637Z" fill="#353535"/>
<path d="M51.7261 336.635C48.0213 336.635 45.2427 338.063 43.5649 341.199H43.4709V327.988C43.4709 327.694 43.2694 327.494 42.9876 327.494H39.6452C39.3634 327.494 39.1621 327.694 39.1621 327.988V361.417C39.1621 361.696 39.3634 361.896 39.6452 361.896H42.9876C43.2694 361.896 43.4709 361.696 43.4709 361.417V347.631C43.4709 343.053 46.4643 340.799 50.2495 340.799C54.035 340.799 56.4243 343.053 56.4243 347.631V361.417C56.4243 361.696 56.6256 361.896 56.921 361.896H60.2632C60.5587 361.896 60.7599 361.696 60.7599 361.417V346.365C60.7599 339.532 56.8807 336.635 51.7261 336.635Z" fill="#353535"/>
<path d="M136.494 355.185C136.494 360.068 140.172 362.697 145.34 362.697C148.628 362.697 151.541 361.137 153.004 358.708H153.099V361.444C153.099 361.737 153.3 361.924 153.595 361.924H156.937C157.246 361.924 157.421 361.737 157.421 361.444V351.568C157.421 351.275 157.233 351.089 156.937 351.089H153.099V352.501C153.099 356.506 149.125 358.908 146.172 358.908C143.514 358.908 141.353 357.721 141.353 355.223C141.353 352.435 143.42 351.075 147.729 351.075H153.085V347.311H146.454C140.816 347.311 136.48 349.954 136.48 355.185H136.494Z" fill="#353535"/>
<path d="M113.456 336.983C110.06 335.875 106.771 337.877 105.147 340.906H105.053V337.624C105.053 337.344 104.851 337.156 104.556 337.156H101.227C100.932 337.156 100.73 337.344 100.73 337.624V361.417C100.73 361.696 100.932 361.896 101.227 361.896H104.556C104.851 361.896 105.053 361.696 105.053 361.417V347.338C105.053 343.094 107.858 340.599 111.576 340.599C112.127 340.599 112.704 340.654 113.308 340.799C113.657 340.854 113.845 340.692 113.845 340.36V337.583C113.845 337.344 113.737 337.103 113.456 336.983Z" fill="#353535"/>
<path d="M127.055 337.169H123.712C123.417 337.169 123.229 337.356 123.229 337.649L123.256 363.805C123.256 367.275 121.189 367.275 119.216 367.275C118.732 367.275 118.249 367.234 117.685 367.182C117.35 367.182 117.148 367.382 117.148 367.662V370.25C117.148 370.544 117.296 370.73 117.591 370.785C118.531 370.93 119.417 370.985 120.249 370.985C124.478 370.985 127.565 369.077 127.565 363.791L127.538 337.636C127.538 337.342 127.337 337.156 127.055 337.156V337.169Z" fill="#353535"/>
<path d="M125.408 327.494C123.824 327.494 122.656 328.722 122.656 330.282C122.656 331.845 123.824 333.005 125.408 333.005C126.992 333.005 128.16 331.779 128.16 330.282C128.16 328.788 126.965 327.494 125.408 327.494Z" fill="#353535"/>
<path d="M147.612 336.637C142.297 336.637 138.27 338.691 137.679 343.776C137.625 344.122 137.88 344.309 138.162 344.309H141.357C141.639 344.309 141.84 344.163 141.894 343.815C142.136 341.482 144.498 340.413 147.465 340.413C151.143 340.413 153.102 341.921 153.102 346.165V347.299H156.941C157.25 347.299 157.425 347.099 157.425 346.806V345.15C157.425 337.865 152.418 336.637 147.599 336.637H147.612Z" fill="#353535"/>
<path d="M172.55 308.667H176.873V298.177C176.873 290.503 172.644 287.501 167.705 287.501H165.342C160.402 287.501 156.188 290.503 156.188 298.177V308.626H160.496V298.018C160.496 293.853 161.839 291.679 165.906 291.679H167.154C171.195 291.679 172.55 293.867 172.55 298.018V308.667H168.846C166.443 308.639 163.772 308.639 162.241 308.639H160.496V312.297H161.181C163.476 312.349 167.705 312.376 172.55 312.39V308.68V308.667Z" fill="#353535"/>
<path d="M238.286 312.442C242.352 312.442 245.345 310.588 245.345 305.517V298.632C245.345 298.298 245.104 298.057 244.77 298.057H241.602C241.238 298.057 241.01 298.298 241.01 298.632V305.81C240.89 308.694 239.105 308.694 237.305 308.694H230.016V302.38V296.628C230.016 292.666 232.406 291.292 235.829 291.292C238.62 291.292 240.756 292.318 240.983 294.427C241.051 294.813 241.279 294.988 241.602 294.988H244.622C244.957 294.988 245.252 294.747 245.198 294.347C244.634 289.45 240.742 287.487 235.682 287.487C230.178 287.487 225.681 290.289 225.681 298.643V308.68L176.834 308.653V312.376L238.258 312.442H238.286Z" fill="#353535"/>
<path d="M274.744 278.626C274.744 278.306 274.516 278.053 274.166 278.053H270.998C270.65 278.053 270.42 278.294 270.42 278.626V308.612H274.744V278.626Z" fill="#353535"/>
<path d="M322.523 312.256C323.41 312.376 347.384 312.442 348.162 312.442C352.202 312.442 355.222 310.586 355.222 305.517V278.64C355.222 278.306 354.967 278.067 354.633 278.067H351.478C351.142 278.067 350.901 278.306 350.901 278.64V305.517C350.901 308.705 349.049 308.705 347.182 308.705C347.034 308.705 340.807 308.705 338.578 308.705H336.297V290.29C336.297 289.944 336.067 289.703 335.719 289.703H332.551C332.203 289.703 331.96 289.944 331.96 290.29V308.667H329.465L321.986 308.626V311.642C321.986 311.962 322.161 312.201 322.509 312.269L322.523 312.256Z" fill="#353535"/>
<path d="M275.281 312.401H317.162C317.496 312.349 317.671 312.121 317.671 311.787V308.612L312.92 308.639V308.612H306.731V291.784C306.731 291.438 306.504 291.211 306.153 291.211H302.985C302.651 291.211 302.41 291.452 302.41 291.784V308.612L274.758 308.585V311.883C274.758 312.176 274.972 312.401 275.267 312.401H275.281Z" fill="#353535"/>
<path d="M321.989 291.038C321.989 290.692 321.748 290.465 321.4 290.465H318.246C317.895 290.465 317.668 290.706 317.668 291.038V308.626H321.989V291.038Z" fill="#353535"/>
<path d="M260.198 310.093V288.156C260.198 287.874 259.995 287.688 259.727 287.688H256.573C256.293 287.688 256.104 287.888 256.104 288.156V310.789C256.211 315.578 253.902 316.645 250.238 316.538C249.768 316.538 249.313 316.5 248.869 316.431V320.143C249.727 320.368 250.655 320.475 251.646 320.475C257.514 320.409 260.212 316.593 260.212 310.106L260.198 310.093Z" fill="#353535"/>
<path d="M173.46 282.27C174.481 281.121 174.36 279.361 173.192 278.347C172.038 277.332 170.266 277.453 169.246 278.613C168.225 279.761 168.346 281.522 169.514 282.536C170.668 283.551 172.454 283.43 173.46 282.27Z" fill="#353535"/>
<path d="M164.831 282.27C165.851 281.121 165.73 279.361 164.576 278.347C163.408 277.332 161.636 277.453 160.63 278.613C159.609 279.761 159.73 281.522 160.885 282.536C162.053 283.551 163.824 283.43 164.831 282.27Z" fill="#353535"/>
<path d="M242.546 282.27C243.567 281.121 243.447 279.361 242.278 278.347C241.111 277.332 239.353 277.453 238.332 278.613C237.31 279.761 237.433 281.522 238.6 282.536C239.755 283.551 241.527 283.43 242.546 282.27Z" fill="#353535"/>
<path d="M233.928 282.27C234.949 281.121 234.828 279.361 233.673 278.347C232.504 277.332 230.732 277.453 229.713 278.613C228.692 279.761 228.812 281.522 229.982 282.536C231.148 283.551 232.909 283.43 233.928 282.27Z" fill="#353535"/>
<path d="M322.025 285.313C323.191 286.328 324.963 286.207 325.971 285.047C326.99 283.898 326.869 282.136 325.702 281.124C324.547 280.109 322.775 280.228 321.756 281.39C320.735 282.538 320.855 284.312 322.025 285.313Z" fill="#353535"/>
<path d="M317.372 285.047C318.39 283.898 318.27 282.136 317.103 281.124C315.934 280.109 314.176 280.228 313.155 281.39C312.136 282.538 312.256 284.312 313.423 285.313C314.579 286.328 316.364 286.207 317.372 285.047Z" fill="#353535"/>
<path d="M321.498 278.533C322.517 277.387 322.396 275.624 321.241 274.61C320.088 273.596 318.302 273.716 317.295 274.878C316.276 276.025 316.396 277.801 317.55 278.802C318.719 279.816 320.49 279.695 321.498 278.533Z" fill="#353535"/>
<path d="M265.434 367.783C263.942 367.783 262.816 368.945 262.816 370.425C262.816 371.906 263.931 373 265.434 373C266.938 373 268.038 371.854 268.038 370.425C268.038 368.997 266.91 367.783 265.434 367.783Z" fill="#353535"/>
<path d="M223.637 363.739L258.162 363.632C258.51 363.632 258.764 363.338 258.764 363.004V359.95L223.637 360.029V363.739Z" fill="#353535"/>
<path d="M214.456 338.329H212.093C207.14 338.329 202.939 341.331 202.939 348.992V359.547C202.912 359.881 203.06 360.013 203.301 360.027H207.248L207.261 348.83C207.261 344.668 208.603 342.48 212.671 342.48H213.906C217.973 342.48 219.315 344.668 219.315 348.83V360H223.637V348.964C223.637 341.304 219.423 338.302 214.469 338.302L214.456 338.329Z" fill="#353535"/>
<path d="M256.762 367.783C255.273 367.783 254.145 368.945 254.145 370.425C254.145 371.906 255.273 373 256.762 373C258.252 373 259.367 371.854 259.367 370.425C259.367 368.997 258.252 367.783 256.762 367.783Z" fill="#353535"/>
<path d="M207.25 363.297C207.277 363.591 207.451 363.739 207.706 363.752L219.304 363.725V360.016H207.236L207.25 363.286V363.297Z" fill="#353535"/>
<path d="M327.615 368.597C327.146 368.597 326.676 368.558 326.234 368.49V372.202C327.092 372.427 328.017 372.534 328.998 372.534C334.395 372.481 337.092 369.279 337.509 363.755H333.469C333.267 367.783 331.024 368.69 327.601 368.597H327.615Z" fill="#353535"/>
<path d="M354.753 329.377H351.587C351.251 329.377 351.023 329.618 351.023 329.953V356.854C351.023 360.031 349.183 360.031 347.318 360.031C347.063 360.031 339.988 360.031 337.841 360.004H337.613V339.507C337.613 339.225 337.438 339.039 337.156 339.039H333.988C333.706 339.039 333.52 339.239 333.52 339.507V360.031H337.652V363.714L338.043 363.727C340.445 363.766 347.841 363.78 348.299 363.78C352.351 363.78 355.358 361.94 355.358 356.854V329.953C355.358 329.618 355.117 329.377 354.781 329.377H354.753Z" fill="#353535"/>
<path d="M366.586 329.377H363.418C363.081 329.377 362.854 329.605 362.854 329.939V363.179C362.854 363.527 363.081 363.766 363.418 363.766H366.586C366.92 363.766 367.163 363.527 367.163 363.179V329.939C367.163 329.605 366.92 329.377 366.586 329.377Z" fill="#353535"/>
<path d="M262.496 339.025H259.341C258.993 339.025 258.764 339.264 258.764 339.612V359.947H263.115L263.087 339.612C263.087 339.264 262.86 339.025 262.496 339.025Z" fill="#353535"/>
<path d="M323.281 349.405H320.113C319.765 349.405 319.522 349.646 319.522 349.981V357.145C319.415 360.029 317.629 360.029 315.83 360.029C315.428 360.029 312.314 360.029 308.53 360.002V353.704V347.966C308.53 344.001 310.931 342.614 314.341 342.614C317.134 342.614 319.267 343.642 319.497 345.75C319.563 346.137 319.79 346.31 320.113 346.31H323.133C323.47 346.31 323.763 346.071 323.711 345.682C323.147 340.785 319.24 338.825 314.193 338.825C308.691 338.825 304.192 341.627 304.192 349.981V359.988C300.662 359.975 297.201 359.961 295.186 359.949H294.408V351.302C294.408 343.628 290.193 340.626 285.253 340.626H284.139C279.185 340.626 274.971 343.615 274.971 351.302V359.936H263.064V362.938C263.064 363.245 263.226 363.538 263.574 363.538L279.292 363.577V367.182H290.098V363.577L316.811 363.766C320.852 363.752 323.818 361.896 323.818 356.84V349.954C323.818 349.606 323.591 349.38 323.24 349.38L323.281 349.405ZM290.139 363.498H279.333V351.168C279.333 346.99 280.675 344.802 284.744 344.802C288.811 344.802 290.139 346.99 290.139 351.168V363.498Z" fill="#353535"/>
<path d="M316.27 329.643C315.237 330.79 315.371 332.552 316.538 333.567C317.705 334.581 319.465 334.46 320.484 333.312C321.505 332.152 321.385 330.403 320.216 329.389C319.049 328.374 317.291 328.495 316.27 329.657V329.643Z" fill="#353535"/>
<path d="M307.665 329.643C306.646 330.79 306.766 332.552 307.933 333.567C309.088 334.581 310.86 334.46 311.881 333.312C312.9 332.152 312.78 330.403 311.611 329.389C310.444 328.374 308.686 328.495 307.665 329.657V329.643Z" fill="#353535"/>
<path d="M208.017 329.643C206.997 330.79 207.118 332.552 208.285 333.567C209.453 334.581 211.225 334.46 212.232 333.312C213.252 332.152 213.131 330.403 211.977 329.389C210.809 328.374 209.037 328.495 208.017 329.657V329.643Z" fill="#353535"/>
<path d="M216.671 329.643C215.651 330.79 215.772 332.552 216.94 333.567C218.107 334.581 219.866 334.46 220.886 333.312C221.906 332.152 221.785 330.403 220.631 329.389C219.463 328.374 217.691 328.495 216.685 329.657L216.671 329.643Z" fill="#353535"/>
</svg>
