<svg width="450" height="246" viewBox="0 0 450 246" fill="none" xmlns="http://www.w3.org/2000/svg">
<path d="M323.138 211.753C321.069 213.811 321.069 217.118 323.138 219.176L342.275 238.211C352.62 248.5 369.392 248.426 379.663 238.211L447.937 170.303C450.006 168.245 450.006 164.865 447.937 162.88L413.8 128.927C411.953 127.089 408.628 126.648 406.337 128.927L323.138 211.753Z" fill="#E5E7EB"/>
<path d="M216.657 211.017L244.07 238.283C249.094 243.281 255.744 246 262.764 246C269.857 246 276.507 243.281 281.458 238.283L349.732 170.376C351.505 168.612 352.022 165.158 349.732 162.953L315.595 128.999C313.526 126.941 310.201 126.941 308.132 128.999L232.395 204.329C228.923 207.783 223.011 209.694 217.543 209.253C216.509 209.18 215.992 210.356 216.657 211.017Z" fill="#E5E7EB"/>
<path d="M358.013 35.0024L330.6 7.73646C317.965 -4.83086 300.97 -0.0538097 293.212 7.73646L225.012 75.5706C224.347 76.232 223.829 77.0404 223.608 77.9223C223.091 79.8332 223.608 81.744 224.938 83.0669L259.075 117.021C261.144 119.078 264.469 119.078 266.538 117.021L342.274 41.6903C345.747 38.1626 351.658 36.3253 357.126 36.7662C358.16 36.8397 358.752 35.7373 358.013 35.0024Z" fill="#E5E7EB"/>
<path d="M398.874 83.067C400.943 81.0092 400.943 77.702 398.874 75.6442L371.978 48.8927C365.771 42.9397 355.87 43.0132 349.737 49.1132L323.063 75.6442C320.994 77.702 320.994 81.0092 323.063 83.067L357.2 117.021C359.713 119.446 363.185 118.564 364.663 117.021L398.874 83.067Z" fill="#E5E7EB"/>
<path d="M175.8 170.376L202.696 197.128C208.903 203.081 218.804 202.934 224.937 196.907L251.611 170.376C253.68 168.318 253.68 165.011 251.611 162.953L217.474 129C215.701 127.236 212.228 126.795 210.011 129L175.874 162.953C173.732 165.011 173.731 168.318 175.8 170.376Z" fill="#E5E7EB"/>
<path d="M108.137 119.193C107.204 120.121 107.204 121.612 108.137 122.54L116.767 131.124C121.432 135.764 128.996 135.731 133.628 131.124L164.416 100.501C165.349 99.573 165.349 98.0484 164.416 97.1536L149.022 81.842C148.189 81.0135 146.689 80.8146 145.656 81.842L108.137 119.193Z" fill="#E5E7EB"/>
<path d="M60.1224 118.861L72.4844 131.157C74.7502 133.411 77.7491 134.637 80.9146 134.637C84.1134 134.637 87.1122 133.411 89.3447 131.157L120.133 100.534C120.933 99.7382 121.166 98.1806 120.133 97.1863L104.739 81.8747C103.806 80.9467 102.307 80.9467 101.374 81.8747L67.2198 115.845C65.6537 117.403 62.988 118.265 60.5223 118.066C60.0558 118.033 59.8225 118.563 60.1224 118.861Z" fill="#E5E7EB"/>
<path d="M123.864 39.4866L111.502 27.1909C105.804 21.5237 98.14 23.6779 94.6413 27.1909L63.8863 57.781C63.5864 58.0793 63.3531 58.4438 63.2532 58.8415C63.0199 59.7032 63.2531 60.5649 63.8529 61.1615L79.2471 76.4731C80.1801 77.4011 81.6795 77.4011 82.6125 76.4731L116.766 42.5025C118.332 40.9117 120.998 40.0832 123.464 40.282C123.93 40.3152 124.197 39.818 123.864 39.4866Z" fill="#E5E7EB"/>
<path d="M142.289 61.1621C143.222 60.2341 143.222 58.7427 142.289 57.8147L130.16 45.751C127.361 43.0665 122.896 43.0997 120.131 45.8505L108.102 57.8147C107.169 58.7427 107.169 60.2341 108.102 61.1621L123.496 76.4737C124.629 77.5674 126.195 77.1697 126.862 76.4737L142.289 61.1621Z" fill="#E5E7EB"/>
<path d="M41.6956 100.534L53.8244 112.598C56.6233 115.282 61.0883 115.216 63.8539 112.499L75.8828 100.534C76.8157 99.6063 76.8157 98.1149 75.8828 97.1869L60.4885 81.8753C59.6888 81.0799 58.1228 80.8811 57.1231 81.8753L41.729 97.1869C40.7627 98.1149 40.7626 99.6063 41.6956 100.534Z" fill="#E5E7EB"/>
<path d="M50.9095 229.41C50.202 230.113 50.202 231.244 50.9095 231.948L57.4536 238.457C60.991 241.975 66.7265 241.95 70.2386 238.457L93.5852 215.236C94.2926 214.532 94.2926 213.376 93.5852 212.698L81.9119 201.087C81.2802 200.459 80.1432 200.308 79.3599 201.087L50.9095 229.41Z" fill="#E5E7EB"/>
<path d="M14.5002 229.158L23.8741 238.481C25.5923 240.19 27.8663 241.12 30.2667 241.12C32.6923 241.12 34.9663 240.19 36.6591 238.481L60.0057 215.26C60.6121 214.657 60.789 213.476 60.0057 212.722L48.3324 201.111C47.625 200.408 46.488 200.408 45.7805 201.111L19.882 226.871C18.6945 228.052 16.6731 228.705 14.8033 228.555C14.4496 228.529 14.2728 228.932 14.5002 229.158Z" fill="#E5E7EB"/>
<path d="M62.8365 168.969L53.4625 159.646C49.1419 155.348 43.3305 156.982 40.6775 159.646L17.3562 182.842C17.1288 183.068 16.952 183.344 16.8762 183.646C16.6993 184.299 16.8761 184.953 17.3309 185.405L29.0042 197.016C29.7117 197.719 30.8487 197.719 31.5562 197.016L57.4547 171.256C58.6422 170.05 60.6635 169.422 62.5333 169.572C62.887 169.597 63.0892 169.221 62.8365 168.969Z" fill="#E5E7EB"/>
<path d="M76.8059 185.405C77.5134 184.701 77.5134 183.57 76.8059 182.867L67.6088 173.719C65.4864 171.683 62.1006 171.709 60.0035 173.794L50.8822 182.867C50.1747 183.57 50.1747 184.701 50.8822 185.405L62.5554 197.016C63.4145 197.845 64.6021 197.543 65.1074 197.016L76.8059 185.405Z" fill="#E5E7EB"/>
<path d="M0.527474 215.261L9.7246 224.409C11.847 226.444 15.2328 226.394 17.3299 224.333L26.4513 215.261C27.1587 214.557 27.1587 213.426 26.4513 212.723L14.778 201.112C14.1716 200.509 12.984 200.358 12.226 201.112L0.552766 212.723C-0.179972 213.426 -0.179997 214.557 0.527474 215.261Z" fill="#E5E7EB"/>
</svg>
