<svg width="40" height="40" viewBox="0 0 40 40" fill="none" xmlns="http://www.w3.org/2000/svg">
<path d="M20 0C20.3125 0 20.625 0.3125 20.625 0.625V1.32812C28.2031 1.64062 34.2969 7.57812 34.9219 15H36.25C36.5625 15 36.875 15.3125 36.875 15.625C36.875 16.0156 36.5625 16.25 36.25 16.25H35H33.75H6.25H5H3.75C3.35938 16.25 3.125 16.0156 3.125 15.625C3.125 15.3125 3.35938 15 3.75 15H5C5.625 7.57812 11.7969 1.64062 19.375 1.32812V0.625C19.375 0.3125 19.6094 0 20 0ZM6.25 15H33.6719C33.0469 8.04688 27.1094 2.5 20 2.5C12.8125 2.5 6.875 8.04688 6.25 15ZM6.25 19.375V28.75H14.375V19.375C14.375 19.0625 14.6094 18.75 15 18.75C15.3125 18.75 15.625 19.0625 15.625 19.375V28.75H24.375V19.375C24.375 19.0625 24.6094 18.75 25 18.75C25.3125 18.75 25.625 19.0625 25.625 19.375V28.75H33.75V19.375C33.75 19.0625 33.9844 18.75 34.375 18.75C34.6875 18.75 35 19.0625 35 19.375V29.375C35 29.7656 34.6875 30 34.375 30H5.625C5.23438 30 5 29.7656 5 29.375V19.375C5 19.0625 5.23438 18.75 5.625 18.75C5.9375 18.75 6.25 19.0625 6.25 19.375ZM3.125 33.75H36.875C37.1875 33.75 37.5 34.0625 37.5 34.375C37.5 34.7656 37.1875 35 36.875 35H3.125C2.73438 35 2.5 34.7656 2.5 34.375C2.5 34.0625 2.73438 33.75 3.125 33.75ZM0.625 38.75H39.375C39.6875 38.75 40 39.0625 40 39.375C40 39.7656 39.6875 40 39.375 40H0.625C0.234375 40 0 39.7656 0 39.375C0 39.0625 0.234375 38.75 0.625 38.75Z" fill="#F27B21"/>
</svg>
