            <svg width="18" height="12" viewBox="0 0 18 12" fill="none" xmlns="http://www.w3.org/2000/svg">
<path d="M13.6893 3.53569L10.9058 0.778831C9.62689 -0.487834 7.89662 -0.003521 7.09919 0.778831L0.163051 7.64863C0.0953446 7.71569 0.042684 7.79765 0.0201152 7.88706C-0.0325452 8.08079 0.0201155 8.27451 0.155528 8.40863L3.6236 11.8435C3.83424 12.0522 4.17277 12.0522 4.38341 11.8435L12.0869 4.21373C12.4405 3.85608 13.0423 3.66981 13.599 3.71452C13.6968 3.72197 13.757 3.60275 13.6893 3.53569Z" fill="#F27B21"/>
<path d="M17.842 8.40126C18.0526 8.19263 18.0526 7.85734 17.842 7.64871L15.1112 4.94401C14.4793 4.34048 13.4712 4.35538 12.8543 4.96636L10.146 7.64871C9.93541 7.85734 9.93541 8.19263 10.146 8.40126L13.6141 11.8362C13.8699 12.082 14.216 11.9926 14.3739 11.8362L17.842 8.40126Z" fill="#F27B21"/>
</svg>
