<svg width="17" height="17" viewBox="0 0 17 17" fill="none" xmlns="http://www.w3.org/2000/svg">
<path d="M12 6.98877C12 5.20752 11.0312 3.58252 9.5 2.67627C7.9375 1.77002 6.03125 1.77002 4.5 2.67627C2.9375 3.58252 2 5.20752 2 6.98877C2 8.80127 2.9375 10.4263 4.5 11.3325C6.03125 12.2388 7.9375 12.2388 9.5 11.3325C11.0312 10.4263 12 8.80127 12 6.98877ZM11.0312 12.1138C9.90625 12.9888 8.5 13.4888 7 13.4888C3.40625 13.4888 0.5 10.5825 0.5 6.98877C0.5 3.42627 3.40625 0.48877 7 0.48877C10.5625 0.48877 13.5 3.42627 13.5 6.98877C13.5 8.52002 12.9688 9.92627 12.0938 11.0513L16.2812 15.2075C16.5625 15.52 16.5625 15.9888 16.2812 16.27C15.9688 16.5825 15.5 16.5825 15.2188 16.27L11.0312 12.1138Z" fill="#101828"/>
</svg>
