<svg width="344" height="407" viewBox="0 0 344 407" fill="none" xmlns="http://www.w3.org/2000/svg">
<path d="M139.513 349.874C136.17 353.274 136.17 358.739 139.513 362.139L170.429 393.589C187.141 410.59 214.237 410.468 230.829 393.589L341.126 281.388C344.468 277.988 344.468 272.402 341.126 269.123L285.978 213.022C282.994 209.986 277.622 209.258 273.921 213.022L139.513 349.874Z" fill="#F6F7F8"/>
<path d="M-32.4977 348.658L11.788 393.709C19.905 401.966 30.6483 406.459 41.9883 406.459C53.4476 406.459 64.1907 401.966 72.1884 393.709L182.485 281.507C185.35 278.592 186.185 272.885 182.485 269.242L127.337 213.141C123.994 209.741 118.623 209.741 115.281 213.141L-7.07218 337.608C-12.6825 343.315 -22.2321 346.472 -31.0654 345.744C-32.7365 345.622 -33.5721 347.565 -32.4977 348.658Z" fill="#F6F7F8"/>
<path d="M195.854 57.8335L151.568 12.7827C131.156 -7.98189 103.702 -0.0889083 91.1679 12.7827L-19.0092 124.863C-20.0835 125.956 -20.9191 127.292 -21.2772 128.749C-22.1128 131.906 -21.2773 135.063 -19.1286 137.249L36.0197 193.35C39.362 196.75 44.7336 196.75 48.0759 193.35L170.429 68.8837C176.039 63.055 185.588 60.0192 194.422 60.7478C196.093 60.8692 197.048 59.0478 195.854 57.8335Z" fill="#F6F7F8"/>
<path d="M261.866 137.249C265.208 133.849 265.208 128.384 261.866 124.984L218.415 80.7835C208.388 70.9476 192.393 71.0691 182.485 81.1478L139.393 124.984C136.051 128.384 136.051 133.849 139.393 137.249L194.542 193.35C198.6 197.357 204.211 195.9 206.598 193.35L261.866 137.249Z" fill="#F6F7F8"/>
<path d="M-98.508 281.507L-55.0578 325.708C-45.0309 335.544 -29.0355 335.301 -19.1279 325.344L23.9642 281.507C27.3065 278.107 27.3065 272.643 23.9642 269.243L-31.1841 213.142C-34.049 210.227 -39.6593 209.499 -43.2403 213.142L-98.3885 269.243C-101.85 272.643 -101.85 278.107 -98.508 281.507Z" fill="#F6F7F8"/>
</svg>
