<svg width="30" height="11" viewBox="0 0 30 11" fill="none" xmlns="http://www.w3.org/2000/svg">
<path d="M9.8125 9.53125C10.0703 9.85938 10.0469 10.3281 9.71875 10.5859C9.57812 10.7031 9.41406 10.75 9.25 10.75C9.01562 10.75 8.80469 10.6797 8.66406 10.4922L5.5 6.67188L2.3125 10.4688C2.17188 10.6562 1.96094 10.75 1.75 10.75C1.5625 10.75 1.39844 10.6797 1.25781 10.5625C0.929688 10.3047 0.90625 9.83594 1.16406 9.50781L4.51562 5.5L1.16406 1.49219C0.90625 1.16406 0.929688 0.695312 1.25781 0.4375C1.58594 0.179688 2.05469 0.203125 2.3125 0.53125L5.5 4.32812L8.66406 0.53125C8.92188 0.203125 9.39062 0.179688 9.71875 0.4375C10.0469 0.695312 10.0703 1.16406 9.8125 1.49219L6.46094 5.5L9.8125 9.53125ZM16.75 6.25H10.75C10.3281 6.25 10 5.92188 10 5.5C10 5.10156 10.3281 4.75 10.75 4.75H16.75C17.1484 4.75 17.5 5.10156 17.5 5.5C17.5 5.92188 17.1484 6.25 16.75 6.25ZM28.2578 3.0625C28.2578 3.17969 28.2578 3.27344 28.2578 3.39062C28.2578 6.64844 25.7969 10.375 21.2734 10.375C19.8672 10.375 18.5781 9.97656 17.5 9.27344C17.6875 9.29688 17.875 9.32031 18.0859 9.32031C19.2344 9.32031 20.2891 8.92188 21.1328 8.26562C20.0547 8.24219 19.1406 7.53906 18.8359 6.55469C19 6.57812 19.1406 6.60156 19.3047 6.60156C19.5156 6.60156 19.75 6.55469 19.9375 6.50781C18.8125 6.27344 17.9688 5.28906 17.9688 4.09375V4.07031C18.2969 4.25781 18.6953 4.35156 19.0938 4.375C18.4141 3.92969 17.9922 3.17969 17.9922 2.33594C17.9922 1.86719 18.1094 1.44531 18.3203 1.09375C19.5391 2.57031 21.3672 3.55469 23.4062 3.67188C23.3594 3.48438 23.3359 3.29688 23.3359 3.10938C23.3359 1.75 24.4375 0.648438 25.7969 0.648438C26.5 0.648438 27.1328 0.929688 27.6016 1.42188C28.1406 1.30469 28.6797 1.09375 29.1484 0.8125C28.9609 1.39844 28.5859 1.86719 28.0703 2.17188C28.5625 2.125 29.0547 1.98438 29.4766 1.79688C29.1484 2.28906 28.7266 2.71094 28.2578 3.0625Z" fill="#4A5565"/>
</svg>
