<svg width="50" height="50" viewBox="0 0 50 50" fill="none" xmlns="http://www.w3.org/2000/svg">
<path d="M44.9688 2.875L47.125 5.03125C49.4688 7.375 49.4688 11.2188 47.125 13.5625L41.875 18.8125L31.1875 8.125L36.4375 2.875C38.7812 0.53125 42.625 0.53125 44.9688 2.875ZM5.125 34.1875L29.0312 10.2812L39.7188 20.9688L15.8125 44.875C15.25 45.4375 14.4062 45.9062 13.5625 46.1875L3.8125 48.9062C3.0625 49.1875 2.21875 49 1.65625 48.3438C1 47.7812 0.8125 46.9375 1 46.1875L3.8125 36.4375C4.09375 35.5938 4.5625 34.75 5.125 34.1875ZM24.3438 10.75L10.6562 24.4375L2.5 16.1875C0.71875 14.5 0.71875 11.5938 2.5 9.8125L9.8125 2.5C11.5 0.8125 14.4062 0.8125 16.1875 2.5L17.9688 4.375C17.9688 4.46875 17.9688 4.46875 17.875 4.46875L11.875 10.4688C11.3125 11.0312 11.3125 12.0625 11.875 12.625C12.5312 13.1875 13.4688 13.1875 14.0312 12.625L20.0312 6.625C20.0312 6.53125 20.125 6.53125 20.125 6.53125L24.3438 10.75ZM39.25 25.6562L43.4688 29.875C43.4688 29.875 43.4688 29.9688 43.375 29.9688L37.375 35.9688C36.8125 36.5312 36.8125 37.4688 37.375 38.125C37.9375 38.6875 38.9688 38.6875 39.5312 38.125L45.5312 32.125C45.5312 32.0312 45.5312 32.0312 45.625 32.0312L47.5 33.9062C49.1875 35.5938 49.1875 38.5 47.5 40.1875L40.0938 47.5C38.4062 49.2812 35.5 49.2812 33.8125 47.5L25.5625 39.3438L39.25 25.6562Z" fill="#353535"/>
</svg>
