<svg width="50" height="48" viewBox="0 0 50 48" fill="none" xmlns="http://www.w3.org/2000/svg">
<path d="M24.25 0H25.75C26.9688 0 28 1.03125 28 2.25V3.28125C35.5 4.59375 41.4062 10.5 42.7188 18H43C44.5938 18 46 19.4062 46 21C46 22.6875 44.5938 24 43 24H7C5.3125 24 4 22.6875 4 21C4 19.4062 5.3125 18 7 18H7.1875C8.5 10.5 14.4062 4.59375 22 3.28125V2.25C22 1.03125 22.9375 0 24.25 0ZM7 27H13V39H16.75V27H22.75V39H27.25V27H33.25V39H37V27H43V39.4688C43 39.4688 43.0938 39.4688 43.0938 39.5625L47.5938 42.5625C48.7188 43.3125 49.1875 44.625 48.8125 45.9375C48.4375 47.1562 47.3125 48 46 48H4C2.59375 48 1.46875 47.1562 1.09375 45.9375C0.71875 44.625 1.1875 43.3125 2.3125 42.5625L6.8125 39.5625C6.8125 39.4688 6.90625 39.4688 7 39.4688V27Z" fill="#353535"/>
</svg>
