<svg width="48" height="48" viewBox="0 0 48 48" fill="none" xmlns="http://www.w3.org/2000/svg">
<path d="M28.7812 19.4062C36.5625 18.5625 42.6562 12.375 43.4062 4.5H42.75C35.5312 4.5 29.4375 9.1875 27.0938 15.5625C26.3438 13.9688 25.3125 12.4688 24.1875 11.1562C27.75 4.5 34.6875 0 42.75 0H45C46.5938 0 48 1.40625 48 3C48 13.6875 40.0312 22.5 29.7188 23.8125C29.5312 22.3125 29.25 20.9062 28.7812 19.4062ZM4.5 10.5V12C4.5 21.1875 11.8125 28.5 21 28.5H21.75V27C21.75 17.9062 14.3438 10.5 5.25 10.5H4.5ZM26.25 27V28.5V33V45.75C26.25 47.0625 25.2188 48 24 48C22.6875 48 21.75 47.0625 21.75 45.75V33H21C9.375 33 0 23.625 0 12V9C0 7.40625 1.3125 6 3 6H5.25C16.7812 6 26.25 15.4688 26.25 27Z" fill="#99A1AF"/>
</svg>
