<svg width="48" height="45" viewBox="0 0 48 45" fill="none" xmlns="http://www.w3.org/2000/svg">
<path d="M16.5 5.25V9H31.5V5.25C31.5 4.875 31.125 4.5 30.75 4.5H17.25C16.7812 4.5 16.5 4.875 16.5 5.25ZM12 9V5.25C12 2.4375 14.3438 0 17.25 0H30.75C33.5625 0 36 2.4375 36 5.25V9H42C45.2812 9 48 11.7188 48 15V26.25V39C48 42.375 45.2812 45 42 45H6C2.625 45 0 42.375 0 39V26.25V15C0 11.7188 2.625 9 6 9H12ZM4.5 28.5V39C4.5 39.8438 5.15625 40.5 6 40.5H42C42.75 40.5 43.5 39.8438 43.5 39V28.5H30V30C30 31.6875 28.5938 33 27 33H21C19.3125 33 18 31.6875 18 30V28.5H4.5ZM18 24H30H43.5V15C43.5 14.25 42.75 13.5 42 13.5H33.75H14.25H6C5.15625 13.5 4.5 14.25 4.5 15V24H18Z" fill="#99A1AF"/>
</svg>
