<svg width="48" height="48" viewBox="0 0 48 48" fill="none" xmlns="http://www.w3.org/2000/svg">
<path d="M42 4.5H27C26.1562 4.5 25.5 5.25 25.5 6V42C25.5 42.8438 26.1562 43.5 27 43.5H42C42.75 43.5 43.5 42.8438 43.5 42V6C43.5 5.25 42.75 4.5 42 4.5ZM27 0H42C45.2812 0 48 2.71875 48 6V42C48 45.375 45.2812 48 42 48H27C23.625 48 21 45.375 21 42V6C21 2.71875 23.625 0 27 0ZM18 12V16.5H6.75C5.4375 16.5 4.5 17.5312 4.5 18.75V41.25C4.5 42.5625 5.4375 43.5 6.75 43.5H18.0938C18.375 45.2812 19.125 46.7812 20.25 48H6.75C3 48 0 45 0 41.25V18.75C0 15.0938 3 12 6.75 12H18ZM10.5 30H13.5C14.25 30 15 30.75 15 31.5V34.5C15 35.3438 14.25 36 13.5 36H10.5C9.65625 36 9 35.3438 9 34.5V31.5C9 30.75 9.65625 30 10.5 30ZM31.5 31.5V28.5C31.5 27.75 32.1562 27 33 27H36C36.75 27 37.5 27.75 37.5 28.5V31.5C37.5 32.3438 36.75 33 36 33H33C32.1562 33 31.5 32.3438 31.5 31.5ZM10.5 21H13.5C14.25 21 15 21.75 15 22.5V25.5C15 26.3438 14.25 27 13.5 27H10.5C9.65625 27 9 26.3438 9 25.5V22.5C9 21.75 9.65625 21 10.5 21ZM31.5 10.5C31.5 9.75 32.1562 9 33 9H36C36.75 9 37.5 9.75 37.5 10.5V13.5C37.5 14.3438 36.75 15 36 15H33C32.1562 15 31.5 14.3438 31.5 13.5V10.5ZM33 24C32.1562 24 31.5 23.3438 31.5 22.5V19.5C31.5 18.75 32.1562 18 33 18H36C36.75 18 37.5 18.75 37.5 19.5V22.5C37.5 23.3438 36.75 24 36 24H33Z" fill="#F27B21"/>
</svg>
