<svg width="48" height="54" viewBox="0 0 48 54" fill="none" xmlns="http://www.w3.org/2000/svg">
<path d="M16.5 10.25V14H31.5V10.25C31.5 9.875 31.125 9.5 30.75 9.5H17.25C16.7812 9.5 16.5 9.875 16.5 10.25ZM12 14V10.25C12 7.4375 14.3438 5 17.25 5H30.75C33.5625 5 36 7.4375 36 10.25V14H42C45.2812 14 48 16.7188 48 20V31.25V44C48 47.375 45.2812 50 42 50H6C2.625 50 0 47.375 0 44V31.25V20C0 16.7188 2.625 14 6 14H12ZM4.5 33.5V44C4.5 44.8438 5.15625 45.5 6 45.5H42C42.75 45.5 43.5 44.8438 43.5 44V33.5H30V35C30 36.6875 28.5938 38 27 38H21C19.3125 38 18 36.6875 18 35V33.5H4.5ZM18 29H30H43.5V20C43.5 19.25 42.75 18.5 42 18.5H33.75H14.25H6C5.15625 18.5 4.5 19.25 4.5 20V29H18Z" fill="#F27B21"/>
</svg>
