<svg width="55" height="42" viewBox="0 0 55 42" fill="none" xmlns="http://www.w3.org/2000/svg">
<path d="M6.66675 1.5C4.1355 1.5 2.16675 3.5625 2.16675 6V7.5H53.1667V6C53.1667 3.5625 51.1042 1.5 48.6667 1.5H6.66675ZM2.16675 9V36C2.16675 38.5312 4.1355 40.5 6.66675 40.5H48.6667C51.1042 40.5 53.1667 38.5312 53.1667 36V9H2.16675ZM0.666748 6C0.666748 2.71875 3.29175 0 6.66675 0H48.6667C51.948 0 54.6667 2.71875 54.6667 6V36C54.6667 39.375 51.948 42 48.6667 42H6.66675C3.29175 42 0.666748 39.375 0.666748 36V6ZM18.6667 24C20.2605 24 21.6667 23.1562 22.5105 21.75C23.3542 20.4375 23.3542 18.6562 22.5105 17.25C21.6667 15.9375 20.2605 15 18.6667 15C16.9792 15 15.573 15.9375 14.7292 17.25C13.8855 18.6562 13.8855 20.4375 14.7292 21.75C15.573 23.1562 16.9792 24 18.6667 24ZM18.6667 13.5C20.7292 13.5 22.698 14.7188 23.823 16.5C24.8542 18.375 24.8542 20.7188 23.823 22.5C22.698 24.375 20.7292 25.5 18.6667 25.5C16.5105 25.5 14.5417 24.375 13.4167 22.5C12.3855 20.7188 12.3855 18.375 13.4167 16.5C14.5417 14.7188 16.5105 13.5 18.6667 13.5ZM14.9167 30C12.0105 30 9.66675 32.4375 9.66675 35.25C9.66675 35.7188 9.29175 36 8.91675 36C8.448 36 8.16675 35.7188 8.16675 35.25C8.16675 31.5938 11.1667 28.5 14.9167 28.5H22.4167C26.073 28.5 29.1667 31.5938 29.1667 35.25C29.1667 35.7188 28.7917 36 28.4167 36C27.948 36 27.6667 35.7188 27.6667 35.25C27.6667 32.4375 25.2292 30 22.4167 30H14.9167ZM33.6667 18.75C33.6667 18.375 33.948 18 34.4167 18H47.9167C48.2917 18 48.6667 18.375 48.6667 18.75C48.6667 19.2188 48.2917 19.5 47.9167 19.5H34.4167C33.948 19.5 33.6667 19.2188 33.6667 18.75ZM33.6667 24.75C33.6667 24.375 33.948 24 34.4167 24H47.9167C48.2917 24 48.6667 24.375 48.6667 24.75C48.6667 25.2188 48.2917 25.5 47.9167 25.5H34.4167C33.948 25.5 33.6667 25.2188 33.6667 24.75ZM33.6667 30.75C33.6667 30.375 33.948 30 34.4167 30H47.9167C48.2917 30 48.6667 30.375 48.6667 30.75C48.6667 31.2188 48.2917 31.5 47.9167 31.5H34.4167C33.948 31.5 33.6667 31.2188 33.6667 30.75Z" fill="#F27B21"/>
</svg>
