<svg width="49" height="48" viewBox="0 0 49 48" fill="none" xmlns="http://www.w3.org/2000/svg">
<path d="M24.3334 1.5C11.8646 1.5 1.83337 11.625 1.83337 24C1.83337 36.4688 11.8646 46.5 24.3334 46.5C24.7084 46.5 25.0834 46.875 25.0834 47.25C25.0834 47.7188 24.7084 48 24.3334 48C11.0209 48 0.333374 37.3125 0.333374 24C0.333374 10.7812 11.0209 0 24.3334 0C37.5521 0 48.3334 10.7812 48.3334 24V25.875C48.3334 30.2812 44.7709 33.75 40.4584 33.75C36.9896 33.75 33.9896 31.5938 32.9584 28.5C31.3646 31.5938 28.0834 33.75 24.3334 33.75C18.8959 33.75 14.5834 29.4375 14.5834 24C14.5834 18.6562 18.8959 14.25 24.3334 14.25C27.8021 14.25 30.8021 16.125 32.5834 18.8438V15.75C32.5834 15.375 32.8646 15 33.3334 15C33.7084 15 34.0834 15.375 34.0834 15.75V24V25.875C34.0834 29.4375 36.8959 32.25 40.4584 32.25C43.9271 32.25 46.8334 29.4375 46.8334 25.875V24C46.8334 11.625 36.7084 1.5 24.3334 1.5ZM32.5834 24C32.5834 21.0938 30.9896 18.375 28.4584 16.875C25.8334 15.4688 22.7396 15.4688 20.2084 16.875C17.5834 18.375 16.0834 21.0938 16.0834 24C16.0834 27 17.5834 29.7188 20.2084 31.2188C22.7396 32.625 25.8334 32.625 28.4584 31.2188C30.9896 29.7188 32.5834 27 32.5834 24Z" fill="#F27B21"/>
</svg>
