<svg width="48" height="54" viewBox="0 0 48 54" fill="none" xmlns="http://www.w3.org/2000/svg">
<path d="M12 7.25V15.5H7.5V7.25C7.5 6.03125 8.4375 5 9.75 5C10.9688 5 12 6.03125 12 7.25ZM28.5 7.25V15.5H24V7.25C24 6.03125 24.9375 5 26.25 5C27.4688 5 28.5 6.03125 28.5 7.25ZM2.25 18.5H3H7.5H28.5H33H33.75C34.9688 18.5 36 19.5312 36 20.75C36 22.0625 34.9688 23 33.75 23H33V29C33 36.5938 27.4688 42.7812 20.25 43.9062V50.75C20.25 52.0625 19.2188 53 18 53C16.6875 53 15.75 52.0625 15.75 50.75V43.9062C8.53125 42.7812 3 36.5938 3 29V23H2.25C0.9375 23 0 22.0625 0 20.75C0 19.5312 0.9375 18.5 2.25 18.5ZM18 39.5C23.7188 39.5 28.5 34.8125 28.5 29V23H7.5V29C7.5 34.8125 12.1875 39.5 18 39.5Z" fill="#99A1AF"/>
</svg>
