<svg width="51" height="54" viewBox="0 0 51 54" fill="none" xmlns="http://www.w3.org/2000/svg">
<path d="M34.0312 14H43.2188C41.7188 12.4062 37.4062 9.5 27 9.5C17.3438 9.5 12.4688 12.4062 10.7812 14H19.875C20.3438 13.1562 21.375 12.5 22.5 12.5H31.5C32.5312 12.5 33.5625 13.1562 34.0312 14ZM43.5 18.5H29.25V26H43.5V18.5ZM10.5 18.5V26H24.75V18.5H10.5ZM10.5 30.5V40.25C10.5 41.5625 11.4375 42.5 12.75 42.5H34.125H41.25C42.4688 42.5 43.5 41.5625 43.5 40.25V30.5H10.5ZM6.9375 11.5625C9.28125 8.65625 15.6562 5 27 5C39 5 44.8125 8.65625 47.0625 11.6562C47.7188 12.5938 48 13.625 48 14.4688V17C49.5938 17 51 18.4062 51 20V26C51 27.6875 49.5938 29 48 29V40.25C48 42.5938 46.7812 44.6562 45 45.875V50.75C45 52.0625 43.9688 53 42.75 53C41.4375 53 40.5 52.0625 40.5 50.75V47H34.125H13.5V50.75C13.5 52.0625 12.4688 53 11.25 53C9.9375 53 9 52.0625 9 50.75V45.875C7.125 44.6562 6 42.5938 6 40.25V29C4.3125 29 3 27.6875 3 26V20C3 18.4062 4.3125 17 6 17V14.4688C6 13.625 6.1875 12.5 6.9375 11.5625ZM16.5 33.5C18.0938 33.5 19.5 34.9062 19.5 36.5C19.5 38.1875 18.0938 39.5 16.5 39.5C14.8125 39.5 13.5 38.1875 13.5 36.5C13.5 34.9062 14.8125 33.5 16.5 33.5ZM37.5 33.5C39.0938 33.5 40.5 34.9062 40.5 36.5C40.5 38.1875 39.0938 39.5 37.5 39.5C35.8125 39.5 34.5 38.1875 34.5 36.5C34.5 34.9062 35.8125 33.5 37.5 33.5Z" fill="#99A1AF"/>
</svg>
