<svg width="48" height="54" viewBox="0 0 48 54" fill="none" xmlns="http://www.w3.org/2000/svg">
<path d="M24 9.6875L6.84375 16.9062C6.28125 17.1875 5.90625 17.6562 6 18.125C6 26.75 9.5625 41.5625 23.4375 48.125C23.8125 48.3125 24.1875 48.3125 24.4688 48.125C38.3438 41.4688 41.9062 26.75 42 18.125C42 17.6562 41.625 17.1875 41.1562 16.9062L24 9.6875ZM25.2188 5.28125L42.8438 12.7812C44.9062 13.7188 46.5 15.6875 46.5 18.125C46.4062 27.5 42.5625 44.4688 26.4375 52.25C24.8438 53 23.0625 53 21.4688 52.25C5.34375 44.4688 1.5 27.5 1.5 18.125C1.40625 15.6875 3 13.7188 5.0625 12.7812L22.6875 5.28125C23.0625 5.09375 23.5312 5 24 5C24.375 5 24.8438 5.09375 25.2188 5.28125Z" fill="#99A1AF"/>
</svg>
