<svg width="49" height="48" viewBox="0 0 49 48" fill="none" xmlns="http://www.w3.org/2000/svg">
<path d="M33.3334 1.5H24.3334V3.75V7.5H33.3334V1.5ZM24.3334 9V13.5H44.5834C44.9584 13.5 45.3334 13.875 45.3334 14.25C45.3334 14.7188 44.9584 15 44.5834 15H4.08337C3.61462 15 3.33337 14.7188 3.33337 14.25C3.33337 13.875 3.61462 13.5 4.08337 13.5H22.8334V9V7.5V5.25V1.5C22.8334 0.75 23.4896 0 24.3334 0H33.3334C34.0834 0 34.8334 0.75 34.8334 1.5V7.5C34.8334 8.34375 34.0834 9 33.3334 9H24.3334ZM7.83337 18.75V34.5H17.5834V18.75C17.5834 18.375 17.8646 18 18.3334 18C18.7084 18 19.0834 18.375 19.0834 18.75V34.5H29.5834V18.75C29.5834 18.375 29.8646 18 30.3334 18C30.7084 18 31.0834 18.375 31.0834 18.75V34.5H40.8334V18.75C40.8334 18.375 41.1146 18 41.5834 18C41.9584 18 42.3334 18.375 42.3334 18.75V35.25C42.3334 35.7188 41.9584 36 41.5834 36H7.08337C6.61462 36 6.33337 35.7188 6.33337 35.25V18.75C6.33337 18.375 6.61462 18 7.08337 18C7.45837 18 7.83337 18.375 7.83337 18.75ZM4.08337 40.5H44.5834C44.9584 40.5 45.3334 40.875 45.3334 41.25C45.3334 41.7188 44.9584 42 44.5834 42H4.08337C3.61462 42 3.33337 41.7188 3.33337 41.25C3.33337 40.875 3.61462 40.5 4.08337 40.5ZM1.08337 46.5H47.5834C47.9584 46.5 48.3334 46.875 48.3334 47.25C48.3334 47.7188 47.9584 48 47.5834 48H1.08337C0.614624 48 0.333374 47.7188 0.333374 47.25C0.333374 46.875 0.614624 46.5 1.08337 46.5Z" fill="#F27B21"/>
</svg>
