<svg width="35" height="40" viewBox="0 0 35 40" fill="none" xmlns="http://www.w3.org/2000/svg">
<path d="M8.75 10V15H26.25V10C26.25 5.23438 22.2656 1.25 17.5 1.25C12.6562 1.25 8.75 5.23438 8.75 10ZM7.5 15V10C7.5 4.53125 11.9531 0 17.5 0C22.9688 0 27.5 4.53125 27.5 10V15H30C32.7344 15 35 17.2656 35 20V35C35 37.8125 32.7344 40 30 40H5C2.1875 40 0 37.8125 0 35V20C0 17.2656 2.1875 15 5 15H7.5ZM7.5 16.25H5C2.89062 16.25 1.25 17.9688 1.25 20V35C1.25 37.1094 2.89062 38.75 5 38.75H30C32.0312 38.75 33.75 37.1094 33.75 35V20C33.75 17.9688 32.0312 16.25 30 16.25H27.5H26.25H8.75H7.5Z" fill="#F27B21"/>
</svg>
