<svg width="44" height="44" viewBox="0 0 44 44" fill="none" xmlns="http://www.w3.org/2000/svg">
<path d="M13.833 1.5H4.83301C3.14551 1.5 1.83301 2.90625 1.83301 4.5V13.5C1.83301 15.1875 3.14551 16.5 4.83301 16.5H13.833C15.4268 16.5 16.833 15.1875 16.833 13.5V4.5C16.833 2.90625 15.4268 1.5 13.833 1.5ZM4.83301 0H13.833C16.2705 0 18.333 2.0625 18.333 4.5V13.5C18.333 16.0312 16.2705 18 13.833 18H4.83301C2.30176 18 0.333008 16.0312 0.333008 13.5V4.5C0.333008 2.0625 2.30176 0 4.83301 0ZM13.833 25.5H4.83301C3.14551 25.5 1.83301 26.9062 1.83301 28.5V37.5C1.83301 39.1875 3.14551 40.5 4.83301 40.5H13.833C15.4268 40.5 16.833 39.1875 16.833 37.5V28.5C16.833 26.9062 15.4268 25.5 13.833 25.5ZM4.83301 24H13.833C16.2705 24 18.333 26.0625 18.333 28.5V37.5C18.333 40.0312 16.2705 42 13.833 42H4.83301C2.30176 42 0.333008 40.0312 0.333008 37.5V28.5C0.333008 26.0625 2.30176 24 4.83301 24ZM28.833 1.5C27.1455 1.5 25.833 2.90625 25.833 4.5V13.5C25.833 15.1875 27.1455 16.5 28.833 16.5H37.833C39.4268 16.5 40.833 15.1875 40.833 13.5V4.5C40.833 2.90625 39.4268 1.5 37.833 1.5H28.833ZM24.333 4.5C24.333 2.0625 26.3018 0 28.833 0H37.833C40.2705 0 42.333 2.0625 42.333 4.5V13.5C42.333 16.0312 40.2705 18 37.833 18H28.833C26.3018 18 24.333 16.0312 24.333 13.5V4.5ZM33.333 22.5C33.708 22.5 34.083 22.875 34.083 23.25V32.25H43.083C43.458 32.25 43.833 32.625 43.833 33C43.833 33.4688 43.458 33.75 43.083 33.75H34.083V42.75C34.083 43.2188 33.708 43.5 33.333 43.5C32.8643 43.5 32.583 43.2188 32.583 42.75V33.75H23.583C23.1143 33.75 22.833 33.4688 22.833 33C22.833 32.625 23.1143 32.25 23.583 32.25H32.583V23.25C32.583 22.875 32.8643 22.5 33.333 22.5Z" fill="#F27B21"/>
</svg>
