<svg width="61" height="49" viewBox="0 0 61 49" fill="none" xmlns="http://www.w3.org/2000/svg">
<path d="M8.16602 8.5C8.16602 10.6562 9.29102 12.625 11.166 13.75C12.9473 14.7812 15.291 14.7812 17.166 13.75C18.9473 12.625 20.166 10.6562 20.166 8.5C20.166 6.4375 18.9473 4.46875 17.166 3.34375C15.291 2.3125 12.9473 2.3125 11.166 3.34375C9.29102 4.46875 8.16602 6.4375 8.16602 8.5ZM21.666 8.5C21.666 11.2188 20.166 13.6562 17.916 15.0625C15.5723 16.375 12.666 16.375 10.416 15.0625C8.07227 13.6562 6.66602 11.2188 6.66602 8.5C6.66602 5.875 8.07227 3.4375 10.416 2.03125C12.666 0.71875 15.5723 0.71875 17.916 2.03125C20.166 3.4375 21.666 5.875 21.666 8.5ZM30.666 14.5C27.9473 14.5 25.5098 16 24.1035 18.25C22.791 20.5938 22.791 23.5 24.1035 25.75C25.5098 28.0938 27.9473 29.5 30.666 29.5C33.291 29.5 35.7285 28.0938 37.1348 25.75C38.4473 23.5 38.4473 20.5938 37.1348 18.25C35.7285 16 33.291 14.5 30.666 14.5ZM30.666 31C27.3848 31 24.4785 29.3125 22.791 26.5C21.1973 23.7812 21.1973 20.3125 22.791 17.5C24.4785 14.7812 27.3848 13 30.666 13C33.8535 13 36.7598 14.7812 38.4473 17.5C40.041 20.3125 40.041 23.7812 38.4473 26.5C36.7598 29.3125 33.8535 31 30.666 31ZM25.1348 35.5C19.041 35.5 14.166 40.4688 14.166 46.5625C14.166 47.125 14.541 47.5 15.1035 47.5H46.1348C46.6973 47.5 47.166 47.125 47.166 46.5625C47.166 40.4688 42.1973 35.5 36.1035 35.5H25.1348ZM25.1348 34H36.1035C43.041 34 48.666 39.625 48.666 46.5625C48.666 47.9688 47.541 49 46.1348 49H15.1035C13.6973 49 12.666 47.875 12.666 46.5625C12.666 39.625 18.1973 34 25.1348 34ZM48.666 2.5C46.5098 2.5 44.541 3.71875 43.416 5.5C42.3848 7.375 42.3848 9.71875 43.416 11.5C44.541 13.375 46.5098 14.5 48.666 14.5C50.7285 14.5 52.6973 13.375 53.8223 11.5C54.8535 9.71875 54.8535 7.375 53.8223 5.5C52.6973 3.71875 50.7285 2.5 48.666 2.5ZM48.666 16C45.9473 16 43.5098 14.5938 42.1035 12.25C40.791 10 40.791 7.09375 42.1035 4.75C43.5098 2.5 45.9473 1 48.666 1C51.291 1 53.7285 2.5 55.1348 4.75C56.4473 7.09375 56.4473 10 55.1348 12.25C53.7285 14.5938 51.291 16 48.666 16ZM50.916 20.5H42.5723C42.4785 20.0312 42.3848 19.5625 42.291 19H50.916C56.2598 19 60.666 23.4062 60.666 28.75C60.666 29.2188 60.291 29.5 59.916 29.5C59.4473 29.5 59.166 29.2188 59.166 28.75C59.166 24.25 55.416 20.5 50.916 20.5ZM18.7598 20.5H10.416C5.82227 20.5 2.16602 24.25 2.16602 28.75C2.16602 29.2188 1.79102 29.5 1.41602 29.5C0.947266 29.5 0.666016 29.2188 0.666016 28.75C0.666016 23.4062 4.97852 19 10.416 19H19.041C18.8535 19.5625 18.7598 20.0312 18.7598 20.5Z" fill="#F27B21"/>
</svg>
