<svg width="49" height="42" viewBox="0 0 49 42" fill="none" xmlns="http://www.w3.org/2000/svg">
<path d="M12.666 1.5V6V10.5H47.166V6C47.166 3.5625 45.1035 1.5 42.666 1.5H12.666ZM11.166 1.5H6.66602C4.13477 1.5 2.16602 3.5625 2.16602 6V10.5H11.166V6V1.5ZM2.16602 12V36C2.16602 38.5312 4.13477 40.5 6.66602 40.5H42.666C45.1035 40.5 47.166 38.5312 47.166 36V12H11.916H2.16602ZM0.666016 6C0.666016 2.71875 3.29102 0 6.66602 0H42.666C45.9473 0 48.666 2.71875 48.666 6V36C48.666 39.375 45.9473 42 42.666 42H6.66602C3.29102 42 0.666016 39.375 0.666016 36V6Z" fill="#F27B21"/>
</svg>
