<svg width="60" height="48" viewBox="0 0 60 48" fill="none" xmlns="http://www.w3.org/2000/svg">
<path d="M21 1.5C19.3125 1.5 17.9062 2.4375 17.0625 3.75C16.2188 5.15625 16.2188 6.9375 17.0625 8.25C17.9062 9.65625 19.3125 10.5 21 10.5C22.5938 10.5 24 9.65625 24.8438 8.25C25.6875 6.9375 25.6875 5.15625 24.8438 3.75C24 2.4375 22.5938 1.5 21 1.5ZM21 12C17.625 12 15 9.375 15 6C15 2.71875 17.625 0 21 0C24.2812 0 27 2.71875 27 6C27 8.15625 25.875 9.9375 24.2812 11.0625L27.75 18.75C28.875 18.2812 30.1875 18 31.5 18C34.6875 18 37.5938 19.5 39.5625 21.8438L48.8438 15.0938C48.2812 14.25 48 13.125 48 12C48 8.71875 50.625 6 54 6C57.2812 6 60 8.71875 60 12C60 15.375 57.2812 18 54 18C52.3125 18 50.8125 17.3438 49.7812 16.3125L40.4062 23.0625C41.4375 24.6562 42 26.5312 42 28.5C42 30.2812 41.5312 31.875 40.875 33.2812L49.2188 38.3438C50.3438 36.9375 52.0312 36 54 36C57.2812 36 60 38.7188 60 42C60 45.375 57.2812 48 54 48C50.625 48 48 45.375 48 42C48 41.1562 48.0938 40.3125 48.4688 39.6562L40.0312 34.5938C38.1562 37.3125 34.9688 39 31.5 39C25.875 39 21.375 34.7812 21 29.25H11.9062C11.5312 32.25 9 34.5 6 34.5C2.625 34.5 0 31.875 0 28.5C0 25.2188 2.625 22.5 6 22.5C9 22.5 11.5312 24.8438 11.9062 27.75H21C21.2812 24.0938 23.3438 21 26.4375 19.3125L22.875 11.7188C22.3125 11.9062 21.6562 12 21 12ZM6 33C7.59375 33 9 32.1562 9.84375 30.75C10.6875 29.4375 10.6875 27.6562 9.84375 26.25C9 24.9375 7.59375 24 6 24C4.3125 24 2.90625 24.9375 2.0625 26.25C1.21875 27.6562 1.21875 29.4375 2.0625 30.75C2.90625 32.1562 4.3125 33 6 33ZM49.5 42V42.0938C49.5 44.5312 51.4688 46.5938 54 46.5938C56.4375 46.5938 58.5 44.5312 58.5 42.0938C58.5 39.5625 56.4375 37.5938 54 37.5938C52.5938 37.5938 51.375 38.1562 50.5312 39.0938L50.625 39.1875L49.7812 40.4062C49.5938 40.875 49.5 41.4375 49.5 42ZM54 7.5C52.3125 7.5 50.9062 8.4375 50.0625 9.75C49.2188 11.1562 49.2188 12.9375 50.0625 14.25C50.9062 15.6562 52.3125 16.5 54 16.5C55.5938 16.5 57 15.6562 57.8438 14.25C58.6875 12.9375 58.6875 11.1562 57.8438 9.75C57 8.4375 55.5938 7.5 54 7.5ZM31.5 19.5C28.2188 19.5 25.3125 21.2812 23.625 24C22.0312 26.8125 22.0312 30.2812 23.625 33C25.3125 35.8125 28.2188 37.5 31.5 37.5C34.6875 37.5 37.5938 35.8125 39.2812 33C40.875 30.2812 40.875 26.8125 39.2812 24C37.5938 21.2812 34.6875 19.5 31.5 19.5Z" fill="#F27B21"/>
</svg>
