<svg width="42" height="42" viewBox="0 0 42 42" fill="none" xmlns="http://www.w3.org/2000/svg">
<path d="M4.5 1.5C2.8125 1.5 1.5 2.90625 1.5 4.5V13.5C1.5 15.1875 2.8125 16.5 4.5 16.5H13.5C15.0938 16.5 16.5 15.1875 16.5 13.5V4.5C16.5 2.90625 15.0938 1.5 13.5 1.5H4.5ZM0 4.5C0 2.0625 1.96875 0 4.5 0H13.5C15.9375 0 18 2.0625 18 4.5V13.5C18 16.0312 15.9375 18 13.5 18H4.5C1.96875 18 0 16.0312 0 13.5V4.5ZM4.5 25.5C2.8125 25.5 1.5 26.9062 1.5 28.5V37.5C1.5 39.1875 2.8125 40.5 4.5 40.5H13.5C15.0938 40.5 16.5 39.1875 16.5 37.5V28.5C16.5 26.9062 15.0938 25.5 13.5 25.5H4.5ZM0 28.5C0 26.0625 1.96875 24 4.5 24H13.5C15.9375 24 18 26.0625 18 28.5V37.5C18 40.0312 15.9375 42 13.5 42H4.5C1.96875 42 0 40.0312 0 37.5V28.5ZM37.5 1.5H28.5C26.8125 1.5 25.5 2.90625 25.5 4.5V13.5C25.5 15.1875 26.8125 16.5 28.5 16.5H37.5C39.0938 16.5 40.5 15.1875 40.5 13.5V4.5C40.5 2.90625 39.0938 1.5 37.5 1.5ZM28.5 0H37.5C39.9375 0 42 2.0625 42 4.5V13.5C42 16.0312 39.9375 18 37.5 18H28.5C25.9688 18 24 16.0312 24 13.5V4.5C24 2.0625 25.9688 0 28.5 0ZM28.5 25.5C26.8125 25.5 25.5 26.9062 25.5 28.5V37.5C25.5 39.1875 26.8125 40.5 28.5 40.5H37.5C39.0938 40.5 40.5 39.1875 40.5 37.5V28.5C40.5 26.9062 39.0938 25.5 37.5 25.5H28.5ZM24 28.5C24 26.0625 25.9688 24 28.5 24H37.5C39.9375 24 42 26.0625 42 28.5V37.5C42 40.0312 39.9375 42 37.5 42H28.5C25.9688 42 24 40.0312 24 37.5V28.5Z" fill="#F27B21"/>
</svg>
