<svg width="61" height="49" viewBox="0 0 61 49" fill="none" xmlns="http://www.w3.org/2000/svg">
<path d="M4.79102 1.1875L12.291 5.6875C12.5723 5.875 12.7598 6.34375 12.4785 6.71875C12.291 7 11.8223 7.1875 11.4473 6.90625L3.94727 2.40625C3.66602 2.21875 3.47852 1.75 3.75977 1.375C3.94727 1.09375 4.41602 0.90625 4.79102 1.1875ZM57.291 2.40625L49.791 6.90625C49.416 7.1875 48.9473 7 48.7598 6.71875C48.4785 6.34375 48.666 5.875 48.9473 5.6875L56.4473 1.1875C56.8223 0.90625 57.291 1 57.4785 1.375C57.7598 1.75 57.5723 2.21875 57.291 2.40625ZM1.41602 16H8.91602C9.29102 16 9.66602 16.375 9.66602 16.75C9.66602 17.2188 9.29102 17.5 8.91602 17.5H1.41602C0.947266 17.5 0.666016 17.2188 0.666016 16.75C0.666016 16.375 0.947266 16 1.41602 16ZM52.416 16H59.916C60.291 16 60.666 16.375 60.666 16.75C60.666 17.2188 60.291 17.5 59.916 17.5H52.416C51.9473 17.5 51.666 17.2188 51.666 16.75C51.666 16.375 51.9473 16 52.416 16ZM12.291 26.4062L4.79102 30.9062C4.41602 31.1875 3.94727 31 3.75977 30.7188C3.47852 30.3438 3.66602 29.875 3.94727 29.6875L11.4473 25.1875C11.8223 24.9062 12.291 25.0938 12.4785 25.375C12.7598 25.75 12.5723 26.2188 12.291 26.4062ZM49.791 25.1875L57.291 29.6875C57.5723 29.875 57.7598 30.3438 57.4785 30.7188C57.291 31 56.8223 31.1875 56.4473 30.9062L48.9473 26.4062C48.666 26.2188 48.4785 25.75 48.7598 25.375C48.9473 25.0938 49.416 24.9062 49.791 25.1875ZM45.666 17.5C45.666 9.25 38.916 2.5 30.666 2.5C22.3223 2.5 15.666 9.25 15.666 17.5C15.666 20.6875 16.6035 23.6875 18.291 26.125C18.7598 26.6875 19.2285 27.3438 19.6973 28C20.8223 29.5938 22.041 31.2812 23.0723 33.0625C23.7285 34.375 24.1035 35.6875 24.3848 37H22.8848C22.6035 35.875 22.3223 34.8438 21.7598 33.8125C20.8223 32.125 19.6973 30.5312 18.4785 28.9375C18.0098 28.2812 17.541 27.625 17.0723 26.9688C15.1973 24.25 14.166 21.0625 14.166 17.5C14.166 8.40625 21.4785 1 30.666 1C39.7598 1 47.166 8.40625 47.166 17.5C47.166 21.0625 46.041 24.25 44.166 26.9688C43.6973 27.625 43.2285 28.2812 42.7598 28.9375C41.6348 30.5312 40.416 32.125 39.4785 33.8125C38.916 34.8438 38.6348 35.875 38.4473 37H36.8535C37.1348 35.6875 37.5098 34.375 38.166 33.0625C39.1973 31.2812 40.416 29.5938 41.6348 28C42.1035 27.3438 42.5723 26.6875 42.9473 26.125C44.6348 23.6875 45.666 20.6875 45.666 17.5ZM21.666 16.75C21.666 17.2188 21.291 17.5 20.916 17.5C20.4473 17.5 20.166 17.2188 20.166 16.75C20.166 11.4062 24.4785 7 29.916 7C30.291 7 30.666 7.375 30.666 7.75C30.666 8.21875 30.291 8.5 29.916 8.5C25.3223 8.5 21.666 12.25 21.666 16.75ZM30.666 47.5C33.9473 47.5 36.666 44.875 36.666 41.5H24.666C24.666 44.875 27.291 47.5 30.666 47.5ZM23.166 41.0312C23.166 40.4688 23.541 40 24.1035 40H37.1348C37.6973 40 38.166 40.4688 38.166 41.0312V41.5C38.166 45.7188 34.791 49 30.666 49C26.4473 49 23.166 45.7188 23.166 41.5V41.0312Z" fill="#F27B21"/>
</svg>
