<svg width="49" height="42" viewBox="0 0 49 42" fill="none" xmlns="http://www.w3.org/2000/svg">
<path d="M42.333 40.5C44.7705 40.5 46.833 38.5312 46.833 36V12C46.833 9.5625 44.7705 7.5 42.333 7.5H41.583V29.25C41.583 29.625 41.3955 29.8125 41.1143 30C40.833 30.0938 40.5518 30.0938 40.3643 29.9062L33.333 24.2812L26.3018 29.9062C26.0205 30.0938 25.7393 30.0938 25.458 30C25.1768 29.8125 25.083 29.625 25.083 29.25V6C25.083 6 25.083 6 25.083 5.90625L21.9893 2.90625C21.1455 2.0625 20.0205 1.5 18.8018 1.5H6.33301C3.80176 1.5 1.83301 3.5625 1.83301 6V36C1.83301 38.5312 3.80176 40.5 6.33301 40.5H42.333ZM40.083 7.5H28.5518C27.8018 7.5 27.1455 7.40625 26.583 7.03125V27.75L32.8643 22.6875C33.0518 22.5 33.5205 22.5 33.8018 22.6875L40.083 27.75V7.5ZM40.833 6H42.333C45.6143 6 48.333 8.71875 48.333 12V36C48.333 39.375 45.6143 42 42.333 42H6.33301C2.95801 42 0.333008 39.375 0.333008 36V6C0.333008 2.71875 2.95801 0 6.33301 0H18.8018C20.3955 0 21.8955 0.65625 23.0205 1.78125L26.3955 5.15625C26.958 5.71875 27.708 6 28.5518 6H40.833Z" fill="#F27B21"/>
</svg>
