<svg width="61" height="48" viewBox="0 0 61 48" fill="none" xmlns="http://www.w3.org/2000/svg">
<path d="M28.4688 0.1875L46.2812 16.0312C45.8125 16.3125 45.4375 16.5938 44.9688 16.875L28 1.78125L8.5 19.0312V42C8.5 44.5312 10.4688 46.5 13 46.5H20.5V30.75C20.5 29.5312 21.4375 28.5 22.75 28.5H33.25C34.4688 28.5 35.5 29.5312 35.5 30.75V46.5H37.1875C37.2812 47.0625 37.4688 47.5312 37.75 48H13C9.625 48 7 45.375 7 42V20.4375L2.21875 24.5625C1.9375 24.8438 1.375 24.8438 1.1875 24.5625C0.90625 24.1875 0.90625 23.7188 1.1875 23.4375L27.4375 0.1875C27.7188 0 28.1875 0 28.4688 0.1875ZM22 46.5H34V30.75C34 30.375 33.625 30 33.25 30H22.75C22.2812 30 22 30.375 22 30.75V46.5ZM50.5 19.5C47.9688 19.5 46 21.5625 46 24V30H55V24C55 21.5625 52.9375 19.5 50.5 19.5ZM44.5 24C44.5 20.7188 47.125 18 50.5 18C53.7812 18 56.5 20.7188 56.5 24V30H58C59.5938 30 61 31.4062 61 33V45C61 46.6875 59.5938 48 58 48H43C41.3125 48 40 46.6875 40 45V33C40 31.4062 41.3125 30 43 30H44.5V24ZM43 31.5C42.1562 31.5 41.5 32.25 41.5 33V45C41.5 45.8438 42.1562 46.5 43 46.5H58C58.75 46.5 59.5 45.8438 59.5 45V33C59.5 32.25 58.75 31.5 58 31.5H56.5H55H46H44.5H43Z" fill="#F27B21"/>
</svg>
