<svg width="61" height="48" viewBox="0 0 61 48" fill="none" xmlns="http://www.w3.org/2000/svg">
<path d="M29.583 6.84375C30.708 6.28125 32.0205 6 33.333 6C38.3018 6 42.333 10.0312 42.333 15C42.333 16.125 42.1455 17.1562 41.7705 18.0938C41.208 18.0938 40.6455 18.1875 40.083 18.2812C40.5518 17.25 40.833 16.2188 40.833 15C40.833 10.875 37.458 7.5 33.333 7.5C31.9268 7.5 30.6143 7.875 29.583 8.53125C29.3955 8.625 29.1143 8.625 28.9268 8.625C28.6455 8.53125 28.5518 8.34375 28.458 8.0625C27.4268 4.3125 23.958 1.5 19.833 1.5C15.0518 1.5 11.1143 5.25 10.833 9.84375C10.833 10.125 10.7393 10.3125 10.5518 10.4062C10.3643 10.5 10.1768 10.5938 9.98926 10.5938C9.80176 10.5938 9.52051 10.5938 9.33301 10.5938C5.11426 10.5938 1.83301 13.875 1.83301 18.0938C1.83301 22.2188 5.11426 25.5938 9.33301 25.5938H15.6143C15.5205 26.0625 15.4268 26.5312 15.4268 27.0938H9.33301C4.36426 27.0938 0.333008 23.0625 0.333008 18.0938C0.333008 13.125 4.36426 9.09375 9.33301 9.09375H9.42676C10.083 3.9375 14.4893 0 19.833 0C24.2393 0 28.083 2.90625 29.583 6.84375ZM49.6455 29.7188C49.7393 29.3438 49.833 28.9688 49.833 28.5C49.833 25.2188 47.1143 22.5 43.833 22.5C41.958 22.5 40.3643 23.3438 39.2393 24.6562C38.958 25.0312 38.3955 25.2188 37.9268 25.125C37.458 25.125 36.9893 24.8438 36.8018 24.375C35.3018 21.4688 32.208 19.5 28.833 19.5C23.8643 19.5 19.833 23.5312 19.833 28.5C19.833 29.1562 19.833 29.7188 19.9268 30.1875C20.1143 30.9375 19.6455 31.6875 18.9893 31.875C15.9893 32.9062 13.833 35.7188 13.833 39C13.833 43.2188 17.1143 46.5 21.333 46.5H51.333C55.458 46.5 58.833 43.2188 58.833 39C58.833 34.875 55.458 31.5 51.333 31.5C51.2393 31.5 51.2393 31.5 51.1455 31.5C50.6768 31.5938 50.3018 31.3125 50.0205 31.0312C49.7393 30.6562 49.5518 30.1875 49.6455 29.7188ZM28.833 18C32.3018 18 35.3955 19.7812 37.2705 22.3125C37.5518 22.7812 37.833 23.25 38.1143 23.625C38.3955 23.25 38.7705 22.875 39.2393 22.5938C40.458 21.6562 42.0518 21 43.833 21C47.958 21 51.333 24.375 51.333 28.5C51.333 29.0625 51.2393 29.5312 51.1455 30C51.1455 30 51.2393 30 51.333 30C51.708 30 52.1768 30.0938 52.6455 30.1875C56.958 30.8438 60.333 34.5 60.333 39C60.333 43.9688 56.3018 48 51.333 48H21.333C16.3643 48 12.333 43.9688 12.333 39C12.333 35.0625 14.8643 31.6875 18.4268 30.4688C18.333 29.9062 18.333 29.25 18.333 28.5C18.333 22.7812 23.0205 18 28.833 18Z" fill="#F27B21"/>
</svg>
