<svg width="50" height="41" viewBox="0 0 50 41" fill="none" xmlns="http://www.w3.org/2000/svg">
<path d="M6.25 7.25C6.25 9.04688 7.1875 10.6875 8.75 11.625C10.2344 12.4844 12.1875 12.4844 13.75 11.625C15.2344 10.6875 16.25 9.04688 16.25 7.25C16.25 5.53125 15.2344 3.89062 13.75 2.95312C12.1875 2.09375 10.2344 2.09375 8.75 2.95312C7.1875 3.89062 6.25 5.53125 6.25 7.25ZM17.5 7.25C17.5 9.51562 16.25 11.5469 14.375 12.7188C12.4219 13.8125 10 13.8125 8.125 12.7188C6.17188 11.5469 5 9.51562 5 7.25C5 5.0625 6.17188 3.03125 8.125 1.85938C10 0.765625 12.4219 0.765625 14.375 1.85938C16.25 3.03125 17.5 5.0625 17.5 7.25ZM25 12.25C22.7344 12.25 20.7031 13.5 19.5312 15.375C18.4375 17.3281 18.4375 19.75 19.5312 21.625C20.7031 23.5781 22.7344 24.75 25 24.75C27.1875 24.75 29.2188 23.5781 30.3906 21.625C31.4844 19.75 31.4844 17.3281 30.3906 15.375C29.2188 13.5 27.1875 12.25 25 12.25ZM25 26C22.2656 26 19.8438 24.5938 18.4375 22.25C17.1094 19.9844 17.1094 17.0938 18.4375 14.75C19.8438 12.4844 22.2656 11 25 11C27.6562 11 30.0781 12.4844 31.4844 14.75C32.8125 17.0938 32.8125 19.9844 31.4844 22.25C30.0781 24.5938 27.6562 26 25 26ZM20.3906 29.75C15.3125 29.75 11.25 33.8906 11.25 38.9688C11.25 39.4375 11.5625 39.75 12.0312 39.75H37.8906C38.3594 39.75 38.75 39.4375 38.75 38.9688C38.75 33.8906 34.6094 29.75 29.5312 29.75H20.3906ZM20.3906 28.5H29.5312C35.3125 28.5 40 33.1875 40 38.9688C40 40.1406 39.0625 41 37.8906 41H12.0312C10.8594 41 10 40.0625 10 38.9688C10 33.1875 14.6094 28.5 20.3906 28.5ZM40 2.25C38.2031 2.25 36.5625 3.26562 35.625 4.75C34.7656 6.3125 34.7656 8.26562 35.625 9.75C36.5625 11.3125 38.2031 12.25 40 12.25C41.7188 12.25 43.3594 11.3125 44.2969 9.75C45.1562 8.26562 45.1562 6.3125 44.2969 4.75C43.3594 3.26562 41.7188 2.25 40 2.25ZM40 13.5C37.7344 13.5 35.7031 12.3281 34.5312 10.375C33.4375 8.5 33.4375 6.07812 34.5312 4.125C35.7031 2.25 37.7344 1 40 1C42.1875 1 44.2188 2.25 45.3906 4.125C46.4844 6.07812 46.4844 8.5 45.3906 10.375C44.2188 12.3281 42.1875 13.5 40 13.5ZM41.875 17.25H34.9219C34.8438 16.8594 34.7656 16.4688 34.6875 16H41.875C46.3281 16 50 19.6719 50 24.125C50 24.5156 49.6875 24.75 49.375 24.75C48.9844 24.75 48.75 24.5156 48.75 24.125C48.75 20.375 45.625 17.25 41.875 17.25ZM15.0781 17.25H8.125C4.29688 17.25 1.25 20.375 1.25 24.125C1.25 24.5156 0.9375 24.75 0.625 24.75C0.234375 24.75 0 24.5156 0 24.125C0 19.6719 3.59375 16 8.125 16H15.3125C15.1562 16.4688 15.0781 16.8594 15.0781 17.25Z" fill="#F27B21"/>
</svg>
