<svg width="49" height="42" viewBox="0 0 49 42" fill="none" xmlns="http://www.w3.org/2000/svg">
<path d="M15.7188 35.9062C18.5312 36.9375 21.625 37.5 25 37.5C37.6562 37.5 47.5 29.25 47.5 19.5C47.5 9.84375 37.6562 1.5 25 1.5C12.25 1.5 2.5 9.84375 2.5 19.5C2.5 23.3438 3.90625 26.9062 6.53125 29.9062C6.8125 30.1875 6.90625 30.5625 6.90625 31.0312C6.71875 33.5625 5.6875 35.9062 4.75 37.5C4.1875 38.4375 3.625 39.1875 3.15625 39.75L2.03125 38.8125L3.15625 39.75C2.96875 40.0312 2.78125 40.2188 2.6875 40.3125C2.59375 40.4062 2.5 40.5 2.5 40.5C4.84375 40.5 7.375 39.75 9.53125 38.8125C11.5938 37.9688 13.2812 36.9375 14.3125 36.1875C14.6875 35.8125 15.25 35.8125 15.7188 35.9062ZM1.375 39.4688C1.46875 39.4688 1.46875 39.375 1.5625 39.375C1.65625 39.1875 1.84375 39 2.03125 38.8125C2.40625 38.3438 2.875 37.5938 3.4375 36.75C4.375 35.25 5.21875 33.1875 5.40625 30.8438C2.59375 27.6562 1 23.8125 1 19.5C1 8.8125 11.6875 0 25 0C38.2188 0 49 8.8125 49 19.5C49 30.2812 38.2188 39 25 39C21.5312 39 18.1562 38.4375 15.25 37.4062C14.125 38.1562 12.25 39.2812 10.0938 40.2188C7.84375 41.25 5.125 42 2.5 42C1.84375 42 1.28125 41.7188 1.09375 41.1562C0.8125 40.5938 1 39.9375 1.375 39.4688ZM11.5 17.1562C11.5 17.5312 11.5938 17.8125 12.0625 18C12.5312 18.2812 13.0938 18.4688 13.9375 18.75C14.6875 18.9375 15.5312 19.2188 16.1875 19.5938C16.8438 20.0625 17.4062 20.8125 17.5 21.8438C17.5 22.7812 17.125 23.5312 16.4688 24.0938C15.9062 24.5625 15.1562 24.75 14.4062 24.75C13 24.75 11.3125 24.2812 10.4688 24C10.0938 23.9062 9.8125 23.4375 10 23.0625C10.0938 22.6875 10.5625 22.4062 10.9375 22.5938C11.7812 22.875 13.1875 23.25 14.3125 23.25C14.875 23.25 15.3438 23.0625 15.5312 22.875C15.8125 22.6875 16 22.4062 16 21.8438C15.9062 21.4688 15.8125 21.1875 15.3438 20.9062C14.875 20.625 14.2188 20.4375 13.4688 20.1562H13.375C12.7188 19.9688 11.875 19.6875 11.2188 19.3125C10.5625 18.9375 10 18.1875 10 17.1562C10 16.125 10.5625 15.375 11.3125 14.9062C12.0625 14.4375 12.9062 14.25 13.75 14.25C14.5 14.3438 15.625 14.4375 16.4688 14.7188C16.8438 14.8125 17.125 15.1875 16.9375 15.5625C16.8438 16.0312 16.4688 16.2188 16.0938 16.125C15.3438 15.9375 14.4062 15.8438 13.6562 15.75C13.0938 15.75 12.5312 15.9375 12.0625 16.2188C11.6875 16.4062 11.5 16.7812 11.5 17.1562ZM34 17.1562C34 17.5312 34.0938 17.7188 34.5625 18C35.0312 18.2812 35.5938 18.4688 36.4375 18.75C37.1875 18.9375 38.0312 19.2188 38.6875 19.5938C39.3438 20.0625 39.9062 20.7188 40 21.75C40 22.875 39.4375 23.7188 38.6875 24.1875C37.9375 24.6562 37 24.8438 36.1562 24.75C35.125 24.75 34.1875 24.375 33.3438 24.0938C33.25 24.0938 33.0625 24 32.9688 24C32.5938 23.9062 32.4062 23.4375 32.5 23.0625C32.5938 22.6875 33.0625 22.4062 33.4375 22.5938C33.625 22.5938 33.7188 22.6875 33.9062 22.6875C34.75 22.9688 35.4062 23.25 36.25 23.25C36.8125 23.3438 37.4688 23.1562 37.8438 22.875C38.2188 22.6875 38.5 22.3125 38.5 21.8438C38.4062 21.4688 38.3125 21.1875 37.8438 20.9062C37.375 20.625 36.7188 20.4375 35.9688 20.1562H35.875C35.2188 19.9688 34.375 19.6875 33.7188 19.3125C33.0625 18.8438 32.5 18.1875 32.5 17.1562C32.5 16.125 33.0625 15.2812 33.8125 14.9062C34.5625 14.4375 35.4062 14.25 36.25 14.25C37.0938 14.3438 37.9375 14.4375 38.6875 14.7188C39.0625 14.8125 39.25 15.1875 39.1562 15.5625C39.0625 16.0312 38.6875 16.2188 38.2188 16.125C37.5625 15.9375 36.8125 15.8438 36.1562 15.75C35.5938 15.75 35.0312 15.9375 34.5625 16.2188C34.1875 16.4062 34 16.7812 34 17.1562ZM20.2188 14.3438C20.5 14.25 20.875 14.3438 21.0625 14.625L25 19.7812L28.8438 14.625C29.0312 14.3438 29.4062 14.25 29.6875 14.3438C29.9688 14.4375 30.25 14.7188 30.25 15V24C30.25 24.4688 29.875 24.75 29.5 24.75C29.0312 24.75 28.75 24.4688 28.75 24V17.25L25.5625 21.4688C25.375 21.6562 25.1875 21.75 25 21.75C24.7188 21.75 24.5312 21.6562 24.3438 21.4688L21.25 17.25V24C21.25 24.4688 20.875 24.75 20.5 24.75C20.0312 24.75 19.75 24.4688 19.75 24V15C19.75 14.7188 19.9375 14.4375 20.2188 14.3438Z" fill="#F27B21"/>
</svg>
