<svg width="48" height="42" viewBox="0 0 48 42" fill="none" xmlns="http://www.w3.org/2000/svg">
<path d="M6 1.5C3.46875 1.5 1.5 3.5625 1.5 6V12C1.5 14.5312 3.46875 16.5 6 16.5H42C44.4375 16.5 46.5 14.5312 46.5 12V6C46.5 3.5625 44.4375 1.5 42 1.5H6ZM0 6C0 2.71875 2.625 0 6 0H42C45.2812 0 48 2.71875 48 6V12C48 15.375 45.2812 18 42 18H6C2.625 18 0 15.375 0 12V6ZM6 25.5C3.46875 25.5 1.5 27.5625 1.5 30V36C1.5 38.5312 3.46875 40.5 6 40.5H42C44.4375 40.5 46.5 38.5312 46.5 36V30C46.5 27.5625 44.4375 25.5 42 25.5H6ZM0 30C0 26.7188 2.625 24 6 24H42C45.2812 24 48 26.7188 48 30V36C48 39.375 45.2812 42 42 42H6C2.625 42 0 39.375 0 36V30ZM31.5 33C31.5 32.25 32.1562 31.5 33 31.5C33.75 31.5 34.5 32.25 34.5 33C34.5 33.8438 33.75 34.5 33 34.5C32.1562 34.5 31.5 33.8438 31.5 33ZM33 7.5C33.75 7.5 34.5 8.25 34.5 9C34.5 9.84375 33.75 10.5 33 10.5C32.1562 10.5 31.5 9.84375 31.5 9C31.5 8.25 32.1562 7.5 33 7.5ZM37.5 33C37.5 32.25 38.1562 31.5 39 31.5C39.75 31.5 40.5 32.25 40.5 33C40.5 33.8438 39.75 34.5 39 34.5C38.1562 34.5 37.5 33.8438 37.5 33ZM39 7.5C39.75 7.5 40.5 8.25 40.5 9C40.5 9.84375 39.75 10.5 39 10.5C38.1562 10.5 37.5 9.84375 37.5 9C37.5 8.25 38.1562 7.5 39 7.5Z" fill="#F27B21"/>
</svg>
