<svg width="36" height="49" viewBox="0 0 36 49" fill="none" xmlns="http://www.w3.org/2000/svg">
<path d="M34.5 18C34.5 8.90625 27.0938 1.5 18 1.5C8.8125 1.5 1.5 8.90625 1.5 18C1.5 19.7812 2.0625 22.0312 3.09375 24.5625C4.21875 27.0938 5.625 29.8125 7.3125 32.4375C10.5938 37.7812 14.5312 42.9375 16.875 45.9375C17.4375 46.5938 18.4688 46.5938 19.0312 45.9375C21.375 42.9375 25.3125 37.7812 28.5938 32.4375C30.2812 29.8125 31.6875 27.0938 32.8125 24.5625C33.8438 22.0312 34.5 19.7812 34.5 18ZM36 18C36 26.25 25.0312 40.7812 20.1562 46.875C19.0312 48.2812 16.875 48.2812 15.75 46.875C10.9688 40.7812 0 26.25 0 18C0 8.0625 8.0625 0 18 0C27.9375 0 36 8.0625 36 18ZM18 10.5C20.625 10.5 23.0625 12 24.4688 14.25C25.7812 16.5938 25.7812 19.5 24.4688 21.75C23.0625 24.0938 20.625 25.5 18 25.5C15.2812 25.5 12.8438 24.0938 11.4375 21.75C10.125 19.5 10.125 16.5938 11.4375 14.25C12.8438 12 15.2812 10.5 18 10.5ZM24 18C24 15.9375 22.7812 13.9688 21 12.8438C19.125 11.8125 16.7812 11.8125 15 12.8438C13.125 13.9688 12 15.9375 12 18C12 20.1562 13.125 22.125 15 23.25C16.7812 24.2812 19.125 24.2812 21 23.25C22.7812 22.125 24 20.1562 24 18Z" fill="#F27B21"/>
</svg>
