<svg width="49" height="49" viewBox="0 0 49 49" fill="none" xmlns="http://www.w3.org/2000/svg">
<path d="M32.125 40.3125C33.1562 38.25 34 35.8125 34.5625 33H26.3125L26.6875 31.5H34.8438C35.2188 29.1562 35.5 26.7188 35.5 24C35.5 21.375 35.2188 18.8438 34.8438 16.5H15.0625C14.6875 18.6562 14.5 20.8125 14.5 23.1562L13 23.5312C13 21.0938 13.1875 18.75 13.5625 16.5H3.71875C2.875 18.8438 2.5 21.375 2.5 24C2.5 24.8438 2.5 25.6875 2.59375 26.5312C2.03125 26.7188 1.5625 27.0938 1.1875 27.4688C1 26.3438 1 25.2188 1 24C1 10.7812 11.6875 0 25 0C38.2188 0 49 10.7812 49 24C49 37.3125 38.2188 48 25 48C23.7812 48 22.6562 47.9062 21.5312 47.8125C22 47.3438 22.375 46.7812 22.5625 46.0312V45.9375C23.4062 46.3125 24.1562 46.5 25 46.5C27.4375 46.5 29.9688 44.5312 32.125 40.3125ZM17.7812 7.78125C16.75 9.84375 15.9062 12.2812 15.3438 15H34.5625C34 12.2812 33.1562 9.75 32.125 7.78125C29.9688 3.5625 27.4375 1.5 25 1.5C22.5625 1.5 19.9375 3.5625 17.7812 7.78125ZM37 24C37 26.625 36.7188 29.1562 36.3438 31.5H46.1875C47.0312 29.1562 47.5 26.7188 47.5 24C47.5 21.375 47.0312 18.8438 46.1875 16.5H36.3438C36.7188 18.9375 37 21.4688 37 24ZM36.0625 15H45.625C42.7188 8.53125 36.9062 3.65625 29.7812 2.0625C32.5938 4.59375 34.9375 9.28125 36.0625 15ZM4.375 15H13.8438C14.9688 9.28125 17.3125 4.59375 20.125 2.0625C13 3.65625 7.1875 8.53125 4.375 15ZM36.0625 33C34.9375 38.8125 32.5938 43.5 29.7812 46.0312C36.9062 44.4375 42.7188 39.5625 45.625 33H36.0625ZM25.6562 24.2812L19.6562 45.2812C19.5625 45.5625 19.2812 45.75 19 45.75C18.625 45.75 18.3438 45.5625 18.25 45.2812L14.9688 35.0625L2.21875 47.8125C1.9375 48.0938 1.46875 48.0938 1.1875 47.8125C0.90625 47.5312 0.90625 47.0625 1.1875 46.7812L13.9375 34.0312L3.71875 30.75C3.4375 30.6562 3.15625 30.375 3.25 30C3.25 29.7188 3.4375 29.4375 3.71875 29.3438L24.7188 23.3438C25 23.25 25.2812 23.3438 25.4688 23.5312C25.6562 23.7188 25.75 24 25.6562 24.2812ZM6.53125 30.0938L15.5312 33C15.8125 33 16 33.1875 16 33.4688L18.9062 42.4688L23.875 25.125L6.53125 30.0938Z" fill="#F27B21"/>
</svg>
