<svg width="40" height="40" viewBox="0 0 40 40" fill="none" xmlns="http://www.w3.org/2000/svg">
<path d="M10.7031 3.82812C11.3281 1.64062 13.2812 0 15.625 0C17.5 0 19.1406 1.09375 20 2.57812C20.7812 1.09375 22.4219 0 24.375 0C26.6406 0 28.6719 1.64062 29.2188 3.82812C31.7188 4.0625 33.75 6.17188 33.75 8.75C33.75 9.29688 33.6719 9.84375 33.5156 10.3125C35.7812 11.0156 37.5 13.125 37.5 15.625C37.5 16.6406 37.1875 17.5781 36.7969 18.3594C38.6719 19.375 40 21.4844 40 23.75C40 26.4062 38.3594 28.5938 36.0938 29.5312C36.1719 29.9219 36.25 30.3125 36.25 30.625C36.25 33.75 33.6719 36.25 30.625 36.25C30.3125 36.25 30 36.25 29.7656 36.25C29.1406 38.4375 27.0312 40 24.6875 40C22.6562 40 20.8594 38.9062 20 37.1875C19.0625 38.9062 17.3438 40 15.3125 40C12.8906 40 10.8594 38.4375 10.1562 36.25C9.92188 36.25 9.60938 36.25 9.375 36.25C6.25 36.25 3.75 33.75 3.75 30.625C3.75 30.3125 3.75 29.9219 3.82812 29.5312C1.5625 28.5938 0 26.4062 0 23.75C0 21.4844 1.25 19.375 3.125 18.3594C2.73438 17.5781 2.5 16.6406 2.5 15.625C2.5 13.125 4.14062 11.0156 6.40625 10.3125C6.32812 9.84375 6.25 9.29688 6.25 8.75C6.25 6.17188 8.20312 4.0625 10.7031 3.82812ZM15.625 1.25C13.6719 1.25 12.1094 2.65625 11.875 4.53125C11.7969 4.84375 11.5625 5 11.25 5C9.14062 5 7.5 6.71875 7.5 8.75C7.5 9.375 7.57812 9.92188 7.89062 10.4688C7.96875 10.625 7.96875 10.8594 7.8125 11.0156C7.73438 11.1719 7.57812 11.3281 7.42188 11.3281C5.3125 11.6406 3.75 13.5156 3.75 15.625C3.75 16.6406 4.0625 17.5 4.53125 18.2031C4.6875 18.3594 4.6875 18.5938 4.60938 18.75C4.60938 18.9844 4.45312 19.1406 4.29688 19.1406C2.5 19.9219 1.25 21.7188 1.25 23.75C1.25 26.0156 2.73438 27.9688 4.76562 28.5938C4.92188 28.5938 5.07812 28.75 5.15625 28.9062C5.23438 28.9844 5.23438 29.2188 5.15625 29.375C5 29.7656 5 30.2344 5 30.625C5 33.0469 6.95312 35 9.375 35C9.76562 35 10.1562 35 10.4688 34.9219C10.625 34.8438 10.8594 34.8438 11.0156 35C11.1719 35.0781 11.25 35.2344 11.25 35.3906C11.5625 37.3438 13.2812 38.75 15.3125 38.75C17.4219 38.75 19.2188 37.1094 19.2969 35L19.375 34.9219V34.6875V22.5H15C13.9062 22.5 13.125 23.3594 13.125 24.375V25.0781C14.1406 25.3906 15 26.4062 15 27.5C15 28.9062 13.8281 30 12.5 30C11.0938 30 10 28.9062 10 27.5C10 26.4062 10.7812 25.3906 11.875 25.0781V24.375C11.875 22.6562 13.2031 21.25 15 21.25H19.375V11.875H16.1719C15.8594 12.9688 14.8438 13.75 13.75 13.75C12.3438 13.75 11.25 12.6562 11.25 11.25C11.25 9.92188 12.3438 8.75 13.75 8.75C14.8438 8.75 15.8594 9.60938 16.1719 10.625H19.375V5C19.375 2.96875 17.6562 1.25 15.625 1.25ZM20.625 11.875V28.125H26.3281C26.5625 27.1094 27.5781 26.25 28.75 26.25C30.0781 26.25 31.25 27.4219 31.25 28.75C31.25 30.1562 30.0781 31.25 28.75 31.25C27.5781 31.25 26.5625 30.4688 26.3281 29.375H20.625V34.6875V34.9219V35C20.7031 37.1094 22.5 38.75 24.6875 38.75C26.6406 38.75 28.3594 37.3438 28.6719 35.3906C28.6719 35.2344 28.8281 35.0781 28.9062 35C29.0625 34.8438 29.2969 34.8438 29.4531 34.9219C29.8438 35 30.1562 35 30.625 35C32.9688 35 35 33.0469 35 30.625C35 30.2344 34.9219 29.7656 34.7656 29.375C34.6875 29.2188 34.7656 29.0625 34.8438 28.9062C34.9219 28.75 35 28.5938 35.1562 28.5938C37.2656 27.9688 38.75 26.0156 38.75 23.8281C38.75 21.7188 37.4219 19.9219 35.625 19.1406C35.4688 19.1406 35.3125 18.9844 35.3125 18.75C35.2344 18.5938 35.3125 18.3594 35.3906 18.2031C35.9375 17.5 36.25 16.6406 36.25 15.625C36.25 13.5156 34.6094 11.6406 32.5781 11.3281C32.3438 11.3281 32.1875 11.1719 32.1094 11.0156C32.0312 10.8594 32.0312 10.625 32.1094 10.4688C32.3438 9.92188 32.5 9.375 32.5 8.75C32.5 6.71875 30.7812 5 28.75 5H28.6719C28.3594 5 28.125 4.84375 28.0469 4.53125C27.8125 2.65625 26.25 1.25 24.375 1.25C22.2656 1.25 20.625 2.96875 20.625 5V10.625H25C26.7188 10.625 28.125 12.0312 28.125 13.75V15.0781C29.1406 15.3906 30 16.4062 30 17.5C30 18.9062 28.8281 20 27.5 20C26.0938 20 25 18.9062 25 17.5C25 16.4062 25.7812 15.3906 26.875 15.0781V13.75C26.875 12.7344 26.0156 11.875 25 11.875H20.625ZM13.75 12.5C14.375 12.5 15 11.9531 15 11.25C15 10.625 14.375 10 13.75 10C13.0469 10 12.5 10.625 12.5 11.25C12.5 11.9531 13.0469 12.5 13.75 12.5ZM12.5 28.75C13.125 28.75 13.75 28.2031 13.75 27.5C13.75 26.875 13.125 26.25 12.5 26.25C11.7969 26.25 11.25 26.875 11.25 27.5C11.25 28.2031 11.7969 28.75 12.5 28.75ZM28.75 17.5C28.75 16.875 28.125 16.25 27.5 16.25C26.7969 16.25 26.25 16.875 26.25 17.5C26.25 18.2031 26.7969 18.75 27.5 18.75C28.125 18.75 28.75 18.2031 28.75 17.5ZM28.75 30C29.375 30 30 29.4531 30 28.75C30 28.125 29.375 27.5 28.75 27.5C28.0469 27.5 27.5 28.125 27.5 28.75C27.5 29.4531 28.0469 30 28.75 30Z" fill="#F27B21"/>
</svg>
