<svg width="61" height="42" viewBox="0 0 61 42" fill="none" xmlns="http://www.w3.org/2000/svg">
<path d="M14.166 8.25V12C14.166 12.4688 13.791 12.75 13.416 12.75C12.9473 12.75 12.666 12.4688 12.666 12V8.25C12.666 3.75 16.3223 0 20.916 0C25.416 0 29.166 3.75 29.166 8.25V9.75C29.166 12.0938 28.9785 14.5312 28.6035 16.7812L44.6348 12.0938C44.916 12 45.291 12.0938 45.4785 12.375C45.666 12.5625 45.666 12.9375 45.4785 13.2188L38.7285 24H53.916C54.291 24 54.666 24.375 54.666 24.75C54.666 25.2188 54.291 25.5 53.916 25.5H37.416C37.1348 25.5 36.8535 25.4062 36.7598 25.125C36.5723 24.9375 36.5723 24.6562 36.7598 24.375L43.2285 14.0625L28.3223 18.4688C28.2285 19.125 28.1348 19.6875 27.9473 20.3438L27.4785 22.4062C26.541 26.625 25.041 30.75 22.9785 34.5938L20.4473 39.375C19.6035 41.0625 17.916 42 16.041 42C13.3223 42 11.166 39.8438 11.166 37.125V27C11.166 24 13.1348 21.375 15.9473 20.5312L27.0098 17.25C27.3848 14.8125 27.666 12.2812 27.666 9.75V8.25C27.666 4.59375 24.5723 1.5 20.916 1.5C17.166 1.5 14.166 4.59375 14.166 8.25ZM16.416 22.0312C14.166 22.6875 12.666 24.6562 12.666 27V37.125C12.666 39 14.166 40.5 16.1348 40.5C17.3535 40.5 18.5723 39.8438 19.1348 38.7188L21.666 33.9375C23.6348 30.1875 25.1348 26.1562 26.0723 22.0312L26.541 19.9688C26.541 19.6875 26.6348 19.3125 26.7285 18.9375L16.416 22.0312ZM1.41602 31.5H5.91602C6.29102 31.5 6.66602 31.875 6.66602 32.25C6.66602 32.7188 6.29102 33 5.91602 33H1.41602C0.947266 33 0.666016 32.7188 0.666016 32.25C0.666016 31.875 0.947266 31.5 1.41602 31.5ZM31.416 31.5H59.916C60.291 31.5 60.666 31.875 60.666 32.25C60.666 32.7188 60.291 33 59.916 33H31.416C30.9473 33 30.666 32.7188 30.666 32.25C30.666 31.875 30.9473 31.5 31.416 31.5Z" fill="#F27B21"/>
</svg>
