<svg width="42" height="48" viewBox="0 0 42 48" fill="none" xmlns="http://www.w3.org/2000/svg">
<path d="M36 1.5H6C3.46875 1.5 1.5 3.5625 1.5 6V34.5C1.5 37.0312 3.46875 39 6 39H36C38.4375 39 40.5 37.0312 40.5 34.5V6C40.5 3.5625 38.4375 1.5 36 1.5ZM6 0H36C39.2812 0 42 2.71875 42 6V34.5C42 36.75 40.7812 38.7188 39 39.75V45C39 46.6875 37.5938 48 36 48H6C4.3125 48 3 46.6875 3 45V39.75C1.125 38.7188 0 36.75 0 34.5V6C0 2.71875 2.625 0 6 0ZM37.5 40.3125C36.9375 40.5 36.4688 40.5 36 40.5H6C5.4375 40.5 4.96875 40.5 4.5 40.3125V45C4.5 45.8438 5.15625 46.5 6 46.5H36C36.75 46.5 37.5 45.8438 37.5 45V40.3125ZM33 7.5H9C8.15625 7.5 7.5 8.25 7.5 9V22.5C7.5 23.3438 8.15625 24 9 24H33C33.75 24 34.5 23.3438 34.5 22.5V9C34.5 8.25 33.75 7.5 33 7.5ZM9 6H33C34.5938 6 36 7.40625 36 9V22.5C36 24.1875 34.5938 25.5 33 25.5H9C7.3125 25.5 6 24.1875 6 22.5V9C6 7.40625 7.3125 6 9 6ZM21 32.25C21 31.875 21.2812 31.5 21.75 31.5H35.25C35.625 31.5 36 31.875 36 32.25C36 32.7188 35.625 33 35.25 33H21.75C21.2812 33 21 32.7188 21 32.25ZM7.5 34.5C6.65625 34.5 6 33.8438 6 33C6 32.25 6.65625 31.5 7.5 31.5C8.25 31.5 9 32.25 9 33C9 33.8438 8.25 34.5 7.5 34.5Z" fill="#F27B21"/>
</svg>
