<svg width="49" height="49" viewBox="0 0 49 49" fill="none" xmlns="http://www.w3.org/2000/svg">
<path d="M16.833 39V46.5L28.3643 37.875C28.6455 37.6875 28.9268 37.5 29.3018 37.5H42.333C44.7705 37.5 46.833 35.5312 46.833 33V6C46.833 3.5625 44.7705 1.5 42.333 1.5H6.33301C3.80176 1.5 1.83301 3.5625 1.83301 6V33C1.83301 35.5312 3.80176 37.5 6.33301 37.5H15.333C16.083 37.5 16.833 38.25 16.833 39ZM6.33301 0H42.333C45.6143 0 48.333 2.71875 48.333 6V33C48.333 36.375 45.6143 39 42.333 39H29.3018L17.6768 47.7188C17.208 48.0938 16.6455 48.0938 16.083 47.9062C15.6143 47.625 15.333 47.1562 15.333 46.5V40.5V39H13.833H6.33301C2.95801 39 0.333008 36.375 0.333008 33V6C0.333008 2.71875 2.95801 0 6.33301 0ZM13.833 19.5C13.833 18.75 13.083 18 12.333 18C11.4893 18 10.833 18.75 10.833 19.5C10.833 20.3438 11.4893 21 12.333 21C13.083 21 13.833 20.3438 13.833 19.5ZM12.333 16.5C13.9268 16.5 15.333 17.9062 15.333 19.5C15.333 21.1875 13.9268 22.5 12.333 22.5C10.6455 22.5 9.33301 21.1875 9.33301 19.5C9.33301 17.9062 10.6455 16.5 12.333 16.5ZM25.833 19.5C25.833 18.75 25.083 18 24.333 18C23.4893 18 22.833 18.75 22.833 19.5C22.833 20.3438 23.4893 21 24.333 21C25.083 21 25.833 20.3438 25.833 19.5ZM24.333 16.5C25.9268 16.5 27.333 17.9062 27.333 19.5C27.333 21.1875 25.9268 22.5 24.333 22.5C22.6455 22.5 21.333 21.1875 21.333 19.5C21.333 17.9062 22.6455 16.5 24.333 16.5ZM36.333 21C37.083 21 37.833 20.3438 37.833 19.5C37.833 18.75 37.083 18 36.333 18C35.4893 18 34.833 18.75 34.833 19.5C34.833 20.3438 35.4893 21 36.333 21ZM33.333 19.5C33.333 17.9062 34.6455 16.5 36.333 16.5C37.9268 16.5 39.333 17.9062 39.333 19.5C39.333 21.1875 37.9268 22.5 36.333 22.5C34.6455 22.5 33.333 21.1875 33.333 19.5Z" fill="#F27B21"/>
</svg>
