<svg width="54" height="49" viewBox="0 0 54 49" fill="none" xmlns="http://www.w3.org/2000/svg">
<path d="M30 1.5H6C3.46875 1.5 1.5 3.5625 1.5 6V42C1.5 44.5312 3.46875 46.5 6 46.5H29.1562C29.7188 47.0625 30.2812 47.5312 30.8438 48C30.5625 48 30.2812 48 30 48H6C2.625 48 0 45.375 0 42V6C0 2.71875 2.625 0 6 0H30C33.2812 0 36 2.71875 36 6V18.6562C35.4375 18.8438 34.9688 18.9375 34.5 19.125V6C34.5 3.5625 32.4375 1.5 30 1.5ZM6 12.75C6 12.375 6.28125 12 6.75 12H29.25C29.625 12 30 12.375 30 12.75C30 13.2188 29.625 13.5 29.25 13.5H6.75C6.28125 13.5 6 13.2188 6 12.75ZM6.75 21H26.25C26.625 21 27 21.375 27 21.75C27 22.2188 26.625 22.5 26.25 22.5H6.75C6.28125 22.5 6 22.2188 6 21.75C6 21.375 6.28125 21 6.75 21ZM6.75 30H20.25C20.625 30 21 30.375 21 30.75C21 31.2188 20.625 31.5 20.25 31.5H6.75C6.28125 31.5 6 31.2188 6 30.75C6 30.375 6.28125 30 6.75 30ZM52.5 34.5C52.5 30.2812 50.1562 26.3438 46.5 24.1875C42.75 22.0312 38.1562 22.0312 34.5 24.1875C30.75 26.3438 28.5 30.2812 28.5 34.5C28.5 38.8125 30.75 42.75 34.5 44.9062C38.1562 47.0625 42.75 47.0625 46.5 44.9062C50.1562 42.75 52.5 38.8125 52.5 34.5ZM27 34.5C27 29.7188 29.5312 25.3125 33.75 22.875C37.875 20.4375 43.0312 20.4375 47.25 22.875C51.375 25.3125 54 29.7188 54 34.5C54 39.375 51.375 43.7812 47.25 46.2188C43.0312 48.6562 37.875 48.6562 33.75 46.2188C29.5312 43.7812 27 39.375 27 34.5ZM40.5 30C39.6562 30 39 29.3438 39 28.5C39 27.75 39.6562 27 40.5 27C41.25 27 42 27.75 42 28.5C42 29.3438 41.25 30 40.5 30ZM38.25 41.25C38.25 40.875 38.5312 40.5 39 40.5H39.75V33.75H39C38.5312 33.75 38.25 33.4688 38.25 33C38.25 32.625 38.5312 32.25 39 32.25H40.5C40.875 32.25 41.25 32.625 41.25 33V40.5H42C42.375 40.5 42.75 40.875 42.75 41.25C42.75 41.7188 42.375 42 42 42H40.5H39C38.5312 42 38.25 41.7188 38.25 41.25Z" fill="#F27B21"/>
</svg>
