<svg width="37" height="48" viewBox="0 0 37 48" fill="none" xmlns="http://www.w3.org/2000/svg">
<path d="M18.666 0C22.1348 0 24.9473 2.625 25.3223 6H26.166C28.041 6 29.7285 7.3125 30.3848 9H30.666C33.9473 9 36.666 11.7188 36.666 15V42C36.666 45.375 33.9473 48 30.666 48H6.66602C3.29102 48 0.666016 45.375 0.666016 42V15C0.666016 11.7188 3.29102 9 6.66602 9H6.85352C7.50977 7.3125 9.19727 6 11.166 6H11.916C12.291 2.625 15.1035 0 18.666 0ZM2.16602 15V42C2.16602 44.5312 4.13477 46.5 6.66602 46.5H30.666C33.1035 46.5 35.166 44.5312 35.166 42V15C35.166 12.5625 33.1035 10.5 30.666 10.5V12C30.666 13.6875 29.2598 15 27.666 15H9.66602C7.97852 15 6.66602 13.6875 6.66602 12V10.5C4.13477 10.5 2.16602 12.5625 2.16602 15ZM13.416 6.75C13.416 7.21875 13.041 7.5 12.666 7.5H11.166C9.47852 7.5 8.16602 8.90625 8.16602 10.5V12C8.16602 12.8438 8.82227 13.5 9.66602 13.5H27.666C28.416 13.5 29.166 12.8438 29.166 12V10.5C29.166 8.90625 27.7598 7.5 26.166 7.5H24.666C24.1973 7.5 23.916 7.21875 23.916 6.75C23.916 3.9375 21.4785 1.5 18.666 1.5C15.7598 1.5 13.416 3.9375 13.416 6.75ZM18.666 9C17.8223 9 17.166 8.34375 17.166 7.5C17.166 6.75 17.8223 6 18.666 6C19.416 6 20.166 6.75 20.166 7.5C20.166 8.34375 19.416 9 18.666 9ZM18.666 19.5C16.9785 19.5 15.5723 20.4375 14.7285 21.75C13.8848 23.1562 13.8848 24.9375 14.7285 26.25C15.5723 27.6562 16.9785 28.5 18.666 28.5C20.2598 28.5 21.666 27.6562 22.5098 26.25C23.3535 24.9375 23.3535 23.1562 22.5098 21.75C21.666 20.4375 20.2598 19.5 18.666 19.5ZM18.666 30C16.5098 30 14.541 28.875 13.416 27C12.3848 25.2188 12.3848 22.875 13.416 21C14.541 19.2188 16.5098 18 18.666 18C20.7285 18 22.6973 19.2188 23.8223 21C24.8535 22.875 24.8535 25.2188 23.8223 27C22.6973 28.875 20.7285 30 18.666 30ZM14.916 34.5C12.0098 34.5 9.66602 36.9375 9.66602 39.75C9.66602 40.2188 9.94727 40.5 10.416 40.5H26.916C27.291 40.5 27.666 40.2188 27.666 39.75C27.666 36.9375 25.2285 34.5 22.416 34.5H14.916ZM8.16602 39.75C8.16602 36.0938 11.166 33 14.916 33H22.416C26.0723 33 29.166 36.0938 29.166 39.75C29.166 41.0625 28.1348 42 26.916 42H10.416C9.10352 42 8.16602 41.0625 8.16602 39.75Z" fill="#F27B21"/>
</svg>
