<svg width="48" height="48" viewBox="0 0 48 48" fill="none" xmlns="http://www.w3.org/2000/svg">
<path d="M26.9062 30.8438C28.3125 31.3125 29.9062 31.5 31.5 31.5C39.75 31.5 46.5 24.8438 46.5 16.5C46.5 8.25 39.75 1.5 31.5 1.5C23.1562 1.5 16.5 8.25 16.5 16.5C16.5 18.1875 16.6875 19.6875 17.1562 21.0938C17.3438 21.6562 17.1562 22.2188 16.7812 22.5938L1.6875 37.7812C1.5 37.875 1.5 38.0625 1.5 38.25V45.75C1.5 46.2188 1.78125 46.5 2.25 46.5H9.75C10.125 46.5 10.5 46.2188 10.5 45.75V42C10.5 41.25 11.1562 40.5 12 40.5H15.75C16.125 40.5 16.5 40.2188 16.5 39.75V36C16.5 35.25 17.1562 34.5 18 34.5H21.75C21.9375 34.5 22.125 34.5 22.2188 34.3125L25.4062 31.2188C25.7812 30.8438 26.3438 30.6562 26.9062 30.8438ZM31.5 33C29.7188 33 28.0312 32.8125 26.4375 32.25L23.3438 35.3438C22.875 35.8125 22.3125 36 21.75 36H19.5H18V37.5V39.75C18 41.0625 16.9688 42 15.75 42H13.5H12V43.5V45.75C12 47.0625 10.9688 48 9.75 48H2.25C0.9375 48 0 47.0625 0 45.75V38.25C0 37.6875 0.1875 37.125 0.65625 36.6562L15.75 21.5625C15.1875 19.9688 15 18.2812 15 16.5C15 7.40625 22.3125 0 31.5 0C40.5938 0 48 7.40625 48 16.5C48 25.6875 40.5938 33 31.5 33ZM34.5 9.75C35.8125 9.75 37.0312 10.5 37.6875 11.625C38.3438 12.8438 38.3438 14.25 37.6875 15.375C37.0312 16.5938 35.8125 17.25 34.5 17.25C33.0938 17.25 31.875 16.5938 31.2188 15.375C30.5625 14.25 30.5625 12.8438 31.2188 11.625C31.875 10.5 33.0938 9.75 34.5 9.75ZM36.75 13.5C36.75 12.2812 35.7188 11.25 34.5 11.25C33.1875 11.25 32.25 12.2812 32.25 13.5C32.25 14.8125 33.1875 15.75 34.5 15.75C35.7188 15.75 36.75 14.8125 36.75 13.5Z" fill="#F27B21"/>
</svg>
