<svg width="49" height="42" viewBox="0 0 49 42" fill="none" xmlns="http://www.w3.org/2000/svg">
<path d="M12.333 1.5C11.4893 1.5 10.833 2.25 10.833 3V6H18.333V3C18.333 2.25 17.583 1.5 16.833 1.5H12.333ZM9.33301 6.1875V3C9.33301 1.40625 10.6455 0 12.333 0H16.833C18.4268 0 19.833 1.40625 19.833 3V6.1875C20.6768 6.46875 21.333 7.3125 21.333 8.25V9H27.333V8.25C27.333 7.3125 27.8955 6.46875 28.833 6.1875V3C28.833 1.40625 30.1455 0 31.833 0H36.333C37.9268 0 39.333 1.40625 39.333 3V6.1875C41.1143 6.5625 42.5205 8.0625 42.8018 9.9375L43.3643 14.25C43.6455 16.7812 44.4893 19.125 45.708 21.2812C47.3955 24.0938 48.333 27.2812 48.333 30.4688V37.5C48.333 40.0312 46.2705 42 43.833 42H31.833C29.3018 42 27.333 40.0312 27.333 37.5V24H21.333V37.5C21.333 40.0312 19.2705 42 16.833 42H4.83301C2.30176 42 0.333008 40.0312 0.333008 37.5V30.4688C0.333008 27.2812 1.17676 24.0938 2.86426 21.2812C4.08301 19.125 4.92676 16.7812 5.30176 14.25L5.77051 9.9375C6.05176 8.0625 7.45801 6.5625 9.33301 6.1875ZM10.2705 7.5C8.77051 7.5 7.45801 8.625 7.27051 10.125L6.70801 14.4375C6.42676 17.1562 5.48926 19.7812 4.17676 22.0312C2.58301 24.5625 1.83301 27.5625 1.83301 30.4688V37.5C1.83301 39.1875 3.14551 40.5 4.83301 40.5H16.833C18.4268 40.5 19.833 39.1875 19.833 37.5V23.25V9.75V8.25C19.833 7.875 19.458 7.5 19.083 7.5H18.333H10.833H10.2705ZM38.3018 7.5H37.833H30.333H29.583C29.1143 7.5 28.833 7.875 28.833 8.25V9.75V23.25V37.5C28.833 39.1875 30.1455 40.5 31.833 40.5H43.833C45.4268 40.5 46.833 39.1875 46.833 37.5V30.4688C46.833 27.5625 45.9893 24.5625 44.4893 22.0312C43.083 19.7812 42.1455 17.1562 41.8643 14.4375L41.3018 10.125C41.1143 8.625 39.8018 7.5 38.3018 7.5ZM30.333 6H37.833V3C37.833 2.25 37.083 1.5 36.333 1.5H31.833C30.9893 1.5 30.333 2.25 30.333 3V6ZM21.333 22.5H27.333V10.5H21.333V22.5Z" fill="#F27B21"/>
</svg>
