<svg width="36" height="48" viewBox="0 0 36 48" fill="none" xmlns="http://www.w3.org/2000/svg">
<path d="M12 2.25V10.5H7.5V2.25C7.5 1.03125 8.4375 0 9.75 0C10.9688 0 12 1.03125 12 2.25ZM28.5 2.25V10.5H24V2.25C24 1.03125 24.9375 0 26.25 0C27.4688 0 28.5 1.03125 28.5 2.25ZM2.25 13.5H3H7.5H28.5H33H33.75C34.9688 13.5 36 14.5312 36 15.75C36 17.0625 34.9688 18 33.75 18H33V24C33 31.5938 27.4688 37.7812 20.25 38.9062V45.75C20.25 47.0625 19.2188 48 18 48C16.6875 48 15.75 47.0625 15.75 45.75V38.9062C8.53125 37.7812 3 31.5938 3 24V18H2.25C0.9375 18 0 17.0625 0 15.75C0 14.5312 0.9375 13.5 2.25 13.5ZM18 34.5C23.7188 34.5 28.5 29.8125 28.5 24V18H7.5V24C7.5 29.8125 12.1875 34.5 18 34.5Z" fill="#F27B21"/>
</svg>
