<svg width="48" height="48" viewBox="0 0 48 48" fill="none" xmlns="http://www.w3.org/2000/svg">
<path d="M31.0312 9H40.2188C38.7188 7.40625 34.4062 4.5 24 4.5C14.3438 4.5 9.46875 7.40625 7.78125 9H16.875C17.3438 8.15625 18.375 7.5 19.5 7.5H28.5C29.5312 7.5 30.5625 8.15625 31.0312 9ZM40.5 13.5H26.25V21H40.5V13.5ZM7.5 13.5V21H21.75V13.5H7.5ZM7.5 25.5V35.25C7.5 36.5625 8.4375 37.5 9.75 37.5H31.125H38.25C39.4688 37.5 40.5 36.5625 40.5 35.25V25.5H7.5ZM3.9375 6.5625C6.28125 3.65625 12.6562 0 24 0C36 0 41.8125 3.65625 44.0625 6.65625C44.7188 7.59375 45 8.625 45 9.46875V12C46.5938 12 48 13.4062 48 15V21C48 22.6875 46.5938 24 45 24V35.25C45 37.5938 43.7812 39.6562 42 40.875V45.75C42 47.0625 40.9688 48 39.75 48C38.4375 48 37.5 47.0625 37.5 45.75V42H31.125H10.5V45.75C10.5 47.0625 9.46875 48 8.25 48C6.9375 48 6 47.0625 6 45.75V40.875C4.125 39.6562 3 37.5938 3 35.25V24C1.3125 24 0 22.6875 0 21V15C0 13.4062 1.3125 12 3 12V9.46875C3 8.625 3.1875 7.5 3.9375 6.5625ZM13.5 28.5C15.0938 28.5 16.5 29.9062 16.5 31.5C16.5 33.1875 15.0938 34.5 13.5 34.5C11.8125 34.5 10.5 33.1875 10.5 31.5C10.5 29.9062 11.8125 28.5 13.5 28.5ZM34.5 28.5C36.0938 28.5 37.5 29.9062 37.5 31.5C37.5 33.1875 36.0938 34.5 34.5 34.5C32.8125 34.5 31.5 33.1875 31.5 31.5C31.5 29.9062 32.8125 28.5 34.5 28.5Z" fill="#F27B21"/>
</svg>
