<svg width="60" height="46" viewBox="0 0 60 46" fill="none" xmlns="http://www.w3.org/2000/svg">
<path d="M54.375 21.9688L41.625 34.7188C36.9375 39.4062 29.3438 39.4062 24.6562 34.7188C19.9688 30.0312 19.9688 22.4375 24.6562 17.75L28.4062 14C28.6875 13.7188 29.1562 13.7188 29.4375 14C29.7188 14.2812 29.7188 14.75 29.4375 15.125L25.6875 18.7812C21.6562 22.9062 21.6562 29.5625 25.6875 33.6875C29.8125 37.7188 36.4688 37.7188 40.5938 33.6875L53.25 20.9375C57.375 16.8125 57.375 10.1562 53.25 6.03125C49.2188 2 42.5625 2 38.4375 6.03125L36.8438 7.625C36.5625 8 36.0938 8 35.8125 7.625C35.5312 7.34375 35.5312 6.875 35.8125 6.59375L37.4062 5C42.0938 0.3125 49.6875 0.3125 54.375 5C59.0625 9.6875 59.0625 17.2812 54.375 21.9688ZM5.53125 24.125L18.2812 11.375C22.9688 6.6875 30.5625 6.6875 35.25 11.375C39.9375 16.0625 39.9375 23.6562 35.25 28.3438L31.5938 32.0938C31.2188 32.375 30.75 32.375 30.4688 32.0938C30.1875 31.8125 30.1875 31.25 30.4688 30.9688L34.2188 27.3125C38.3438 23.1875 38.3438 16.5312 34.2188 12.4062C30.0938 8.375 23.4375 8.375 19.3125 12.4062L6.65625 25.1562C2.53125 29.2812 2.53125 35.9375 6.65625 39.9688C10.6875 44.0938 17.3438 44.0938 21.4688 39.9688L23.0625 38.375C23.3438 38.0938 23.8125 38.0938 24.0938 38.375C24.375 38.75 24.375 39.2188 24.0938 39.5L22.5 41.0938C17.8125 45.7812 10.2188 45.7812 5.53125 41.0938C0.84375 36.4062 0.84375 28.8125 5.53125 24.125Z" fill="#F27B21"/>
</svg>
