<svg width="199" height="48" viewBox="0 0 199 48" fill="none" xmlns="http://www.w3.org/2000/svg">
<path d="M27.9992 39.9957C27.6094 40.3852 27.6094 41.0111 27.9992 41.4006L31.6053 45.003C33.5406 46.9363 36.7012 46.9363 38.6504 45.003L51.5015 32.165C51.8913 31.7755 51.8913 31.1496 51.5015 30.7602L45.0829 24.3481C44.7348 24.0004 44.1083 23.9169 43.6767 24.3481L27.9992 39.9957Z" fill="#353535"/>
<path d="M7.9777 39.8567L13.1293 45.003C14.076 45.9488 15.3152 46.4634 16.6518 46.4634C17.9884 46.4634 19.2276 45.9488 20.1743 45.003L33.0254 32.165C33.3595 31.8312 33.457 31.1913 33.0254 30.7602L26.6068 24.3481C26.217 23.9587 25.5904 23.9587 25.2006 24.3481L10.9294 38.6048C10.275 39.2586 9.16116 39.6202 8.13085 39.5367C7.94985 39.5089 7.83847 39.7315 7.9777 39.8567Z" fill="#353535"/>
<path d="M34.5709 6.60021L29.4194 1.45387C27.0524 -0.91066 23.8501 -0.00657468 22.3743 1.45387L9.53715 14.278C9.41184 14.4032 9.31438 14.5562 9.27261 14.7231C9.17515 15.0847 9.27261 15.4463 9.52323 15.6967L15.9418 22.1088C16.3316 22.4982 16.9582 22.4982 17.348 22.1088L31.6053 7.86593C32.2597 7.19829 33.3735 6.85057 34.4038 6.93402C34.5848 6.94793 34.6962 6.72539 34.5709 6.60021Z" fill="#353535"/>
<path d="M42.2565 15.6828C42.6463 15.2933 42.6463 14.6674 42.2565 14.278L37.2024 9.22901C36.0329 8.10238 34.1672 8.1302 33.0255 9.27074L28.0131 14.278C27.6233 14.6674 27.6233 15.2933 28.0131 15.6828L34.4317 22.0948C34.9051 22.5538 35.5456 22.3869 35.8379 22.0948L42.2565 15.6828Z" fill="#353535"/>
<path d="M0.292324 32.1789L5.34641 37.2418C6.51596 38.3684 8.38165 38.3406 9.52335 37.2L14.5357 32.1928C14.9255 31.8033 14.9255 31.1774 14.5357 30.788L8.11712 24.3759C7.78296 24.0421 7.12857 23.9587 6.71088 24.3759L0.292324 30.788C-0.0975228 31.1635 -0.0975228 31.7894 0.292324 32.1789Z" fill="#353535"/>
<path d="M157.281 27.6094L119.174 27.5955V26.3993H117.781V27.5955C116.222 27.5955 114.871 27.5816 114.133 27.5677H113.911V26.3854H112.532V23.0194C112.532 20.5436 113.883 19.57 115.47 19.57H116.222C117.809 19.57 119.16 20.5436 119.16 23.0194V26.3993L156.961 26.4132C157.532 26.4132 158.116 26.4132 158.144 25.4813V23.1585C158.144 23.0472 158.214 22.9777 158.339 22.9777H159.356C159.467 22.9777 159.537 23.0472 159.537 23.1585V25.3839C159.537 27.0113 158.576 27.6094 157.281 27.6094ZM117.781 26.3854V22.9499C117.781 21.6007 117.35 20.9052 116.055 20.9052H115.651C114.342 20.9052 113.925 21.6146 113.925 22.9499V26.3715H114.481C114.969 26.3715 115.832 26.3715 116.598 26.3715L117.781 26.3854ZM153.229 26.7609V23.1585C153.229 20.4601 154.677 19.5561 156.446 19.5561C158.075 19.5561 159.314 20.182 159.495 21.7676C159.509 21.8928 159.425 21.9762 159.314 21.9762H158.339C158.242 21.9762 158.158 21.9206 158.144 21.7954C158.075 21.1139 157.392 20.7801 156.487 20.7801C155.388 20.7801 154.622 21.2251 154.622 22.5048V24.3547V26.9278H153.397C153.299 26.9278 153.229 26.8583 153.229 26.7609Z" fill="#353535"/>
<path d="M167.598 26.3715V16.6908C167.598 16.5795 167.668 16.51 167.779 16.51H168.796C168.907 16.51 168.977 16.5934 168.977 16.6908V26.3715H167.598Z" fill="#353535"/>
<path d="M197.241 27.4147V16.6908C197.241 16.5795 197.31 16.51 197.422 16.51H198.438C198.549 16.51 198.619 16.5795 198.619 16.6908V27.4147C198.619 27.5259 198.536 27.6094 198.438 27.6094H197.422C197.324 27.6094 197.241 27.5259 197.241 27.4147Z" fill="#353535"/>
<path d="M168.99 27.4286V26.3715L177.873 26.3854V20.9609C177.873 20.8496 177.943 20.7801 178.054 20.7801H179.071C179.182 20.7801 179.252 20.8496 179.252 20.9609V26.3854H181.243L182.76 26.3715V20.6966C182.76 20.5853 182.83 20.5158 182.941 20.5158H183.958C184.069 20.5158 184.153 20.5853 184.153 20.6966V26.3715L186.548 26.3854H187.355V20.4602C187.355 20.3489 187.439 20.2654 187.55 20.2654H188.566C188.678 20.2654 188.747 20.335 188.747 20.4602V26.3993H189.485C190.195 26.3993 192.2 26.3993 192.256 26.3993C192.855 26.3993 193.453 26.3993 193.453 25.37V16.6908C193.453 16.5795 193.523 16.51 193.634 16.51H194.651C194.762 16.51 194.846 16.5934 194.846 16.6908V25.37C194.846 27.0113 193.885 27.6094 192.576 27.6094C192.326 27.6094 184.626 27.5955 184.348 27.5538C184.236 27.5259 184.181 27.4564 184.181 27.3451V26.3715H182.788V27.4008C182.788 27.512 182.733 27.5816 182.621 27.5955H169.171C169.06 27.5955 168.99 27.5259 168.99 27.4286Z" fill="#353535"/>
<path d="M160.665 30.0852V28.889C160.804 28.9168 160.957 28.9168 161.11 28.9168C162.28 28.9447 163.031 28.6108 162.99 27.0669V19.7647C162.99 19.6812 163.045 19.6117 163.143 19.6117H164.159C164.243 19.6117 164.312 19.6812 164.312 19.7647V26.8444C164.312 28.9307 163.449 30.1686 161.556 30.1965C161.235 30.1965 160.943 30.1547 160.665 30.0852Z" fill="#353535"/>
<path d="M128.948 13.8395V12.6433C129.087 12.6711 129.226 12.6711 129.379 12.6711C130.479 12.6989 131.203 12.5181 131.273 11.2246H132.596C132.456 13.0049 131.565 13.9229 129.839 13.9368C129.519 13.9507 129.226 13.909 128.948 13.8395ZM132.735 11.2385H132.61V10.0423H131.287V3.43552C131.287 3.35207 131.343 3.28252 131.44 3.28252H132.456C132.54 3.28252 132.61 3.33816 132.61 3.43552V10.0423H132.679C133.375 10.0423 183.958 10.0562 184.055 10.0562C184.654 10.0562 185.239 10.0562 185.239 9.02695V3.49116C185.239 3.37989 185.309 3.31034 185.42 3.31034H186.436C186.548 3.31034 186.617 3.3938 186.617 3.49116V9.02695C186.617 10.6682 185.657 11.2524 184.348 11.2524C184.209 11.2524 133.501 11.2524 132.735 11.2385ZM123.17 11.2385H122.947V10.0562H121.555V6.60678C121.555 4.13098 122.905 3.15734 124.492 3.15734H125.244C126.831 3.15734 128.196 4.13098 128.196 6.60678V10.0701H126.804V11.2663C125.272 11.2663 123.908 11.2524 123.17 11.2385ZM189.625 11.0855V0.361632C189.625 0.25036 189.694 0.180815 189.806 0.180815H190.822C190.933 0.180815 191.003 0.25036 191.003 0.361632V11.0855C191.003 11.1968 190.92 11.2663 190.822 11.2663H189.806C189.694 11.2663 189.625 11.1968 189.625 11.0855ZM193.231 11.1272V10.1118H193.969C196.405 10.1118 197.324 9.79194 197.324 7.21877C197.324 4.64561 196.405 4.42306 193.969 4.42306H193.231V3.40771C193.231 3.32425 193.286 3.26862 193.37 3.26862H194.122C197.394 3.26862 198.772 3.93625 198.772 7.20487C198.772 10.4735 197.394 11.2524 194.122 11.2524H193.37C193.286 11.2663 193.231 11.2107 193.231 11.1272ZM126.818 10.0701V6.56505C126.818 5.21588 126.386 4.52043 125.091 4.52043H124.687C123.392 4.52043 122.961 5.22979 122.961 6.57896V10.0701H123.518C124.005 10.0701 124.868 10.0701 125.648 10.0701H126.818ZM177.553 4.45088V3.83888C177.553 3.76934 177.609 3.69979 177.665 3.69979H178.18V2.86525C178.18 1.34917 179.015 1.09881 179.809 1.09881C180.686 1.09881 181.354 1.52999 181.452 2.57317C181.466 2.64271 181.424 2.68444 181.368 2.68444H180.839C180.784 2.68444 180.756 2.65662 180.756 2.58707C180.714 2.10026 180.324 1.87771 179.837 1.87771C179.224 1.87771 178.904 2.19762 178.904 3.07389V3.68589H181.438C181.508 3.68589 181.549 3.74152 181.549 3.82498V4.43697C181.549 4.50652 181.494 4.57606 181.438 4.57606H177.679C177.609 4.57606 177.553 4.52043 177.553 4.45088Z" fill="#353535"/>
<path d="M96.1864 14.1455C96.089 14.1316 96.0472 14.062 96.0472 13.9786V13.144C96.0472 13.0467 96.1168 12.991 96.2143 12.991C96.3953 13.0049 96.5484 13.0188 96.7016 13.0188C97.3281 13.0188 97.9964 13.0188 97.9964 11.9061L97.9825 3.46334C97.9825 3.36598 98.0382 3.31034 98.1356 3.31034H99.2077C99.3052 3.31034 99.3609 3.36598 99.3609 3.46334L99.3748 11.9061C99.3748 13.6169 98.3863 14.2289 97.0218 14.2289C96.7712 14.215 96.4788 14.2011 96.1864 14.1455ZM83.0569 9.1104C83.0569 7.42741 84.4492 6.56505 86.2592 6.56505H88.3895V6.20342C88.3895 4.82642 87.7629 4.33961 86.5795 4.33961C85.6327 4.33961 84.8669 4.68733 84.7973 5.43842C84.7834 5.54969 84.7138 5.59142 84.6302 5.59142H83.5999C83.5025 5.59142 83.4328 5.52188 83.4468 5.42451C83.6417 3.78325 84.9365 3.11562 86.6352 3.11562C88.1806 3.11562 89.7957 3.50507 89.7957 5.8696V6.41205C89.7957 6.50942 89.74 6.56505 89.6425 6.56505H88.4034V7.77514H89.6425C89.74 7.77514 89.7957 7.83077 89.7957 7.92814V11.1133C89.7957 11.2107 89.74 11.2663 89.6425 11.2663H88.5705C88.473 11.2663 88.4173 11.2107 88.4173 11.1133V10.2231H88.3895C87.9161 11.0159 86.9832 11.5167 85.9251 11.5167C84.2404 11.5306 83.0569 10.6821 83.0569 9.1104ZM101.143 9.1104C101.143 7.42741 102.535 6.56505 104.345 6.56505H106.476V6.20342C106.476 4.82642 105.849 4.33961 104.666 4.33961C103.719 4.33961 102.953 4.68733 102.883 5.43842C102.87 5.54969 102.8 5.59142 102.716 5.59142H101.686C101.589 5.59142 101.519 5.52188 101.533 5.42451C101.728 3.78325 103.009 3.11562 104.721 3.11562C106.267 3.11562 107.882 3.50507 107.882 5.8696V6.41205C107.882 6.50942 107.826 6.56505 107.729 6.56505H106.49V7.77514H107.729C107.826 7.77514 107.882 7.83077 107.882 7.92814V11.1133C107.882 11.2107 107.826 11.2663 107.729 11.2663H106.629C106.531 11.2663 106.476 11.2107 106.476 11.1133V10.2231H106.448C105.974 11.0159 105.042 11.5167 103.983 11.5167C102.327 11.5306 101.143 10.6821 101.143 9.1104ZM63.8152 8.01159C63.8012 7.91423 63.8569 7.85859 63.9544 7.85859H65.2075C65.3049 7.85859 65.3606 7.91423 65.3746 7.99768C65.5277 9.20776 66.6137 10.237 68.2566 10.237C69.635 10.237 70.8324 9.55549 70.8324 8.44277C70.8324 5.29933 64.1632 7.13532 64.1632 3.26862C64.1632 1.59953 65.6809 -1.90735e-06 68.0478 -1.90735e-06C69.9413 -1.90735e-06 71.5564 0.973629 71.9045 2.89307C71.9184 3.00435 71.8766 3.05998 71.7653 3.05998H70.554C70.4565 3.05998 70.4147 3.01825 70.373 2.92089C70.1363 1.96117 69.4123 1.27963 68.1035 1.27963C66.8226 1.27963 65.7505 1.82208 65.7505 3.07389C65.7505 5.77224 72.3779 3.96407 72.3779 8.03941C72.3779 10.1258 70.721 11.5167 68.006 11.5167C65.9454 11.5306 63.9962 10.4039 63.8152 8.01159ZM74.3271 11.1272V0.333814C74.3271 0.23645 74.3967 0.180815 74.4803 0.180815H75.5524C75.6498 0.180815 75.7055 0.250359 75.7055 0.333814V4.60388H75.7334C76.2764 3.58852 77.1674 3.12953 78.3509 3.12953C80.0078 3.12953 81.2469 4.06143 81.2469 6.27296V11.1272C81.2469 11.2246 81.1773 11.2802 81.0938 11.2802H80.0356C79.9381 11.2802 79.8824 11.2107 79.8824 11.1272V6.67632C79.8824 5.20197 79.1027 4.46479 77.8914 4.46479C76.6801 4.46479 75.7194 5.18806 75.7194 6.67632V11.1272C75.7194 11.2246 75.6498 11.2802 75.5663 11.2802H74.4942C74.3967 11.2802 74.3271 11.2107 74.3271 11.1272ZM91.8702 11.1272V3.44943C91.8702 3.35207 91.9399 3.29643 92.0234 3.29643H93.0955C93.1929 3.29643 93.2486 3.35207 93.2486 3.44943V4.50652H93.2765C93.7916 3.53289 94.8498 2.87916 95.9497 3.2408C96.0472 3.28253 96.075 3.35207 96.075 3.43552V4.3257C96.075 4.43697 96.0193 4.4787 95.908 4.46479C95.713 4.42306 95.532 4.39525 95.351 4.39525C94.1536 4.39525 93.2486 5.20197 93.2486 6.56505V11.1133C93.2486 11.2107 93.179 11.2663 93.0955 11.2663H92.0234C91.9399 11.2802 91.8702 11.2107 91.8702 11.1272ZM109.97 11.1272V0.333814C109.97 0.23645 110.026 0.180815 110.123 0.180815H111.196C111.293 0.180815 111.349 0.250359 111.349 0.333814V4.67343H111.377C111.92 3.67198 112.811 3.21298 113.994 3.21298C115.651 3.21298 116.904 4.14488 116.904 6.34251V11.1133C116.904 11.2107 116.834 11.2663 116.751 11.2663H115.679C115.581 11.2663 115.526 11.1968 115.526 11.1133V6.74587C115.526 5.27151 114.746 4.53434 113.535 4.53434C112.323 4.53434 111.363 5.25761 111.363 6.74587V11.1133C111.363 11.2107 111.293 11.2663 111.209 11.2663H110.137C110.04 11.2802 109.97 11.2107 109.97 11.1272ZM88.4034 8.24804V7.78905H86.6769C85.2985 7.78905 84.6302 8.23413 84.6302 9.12431C84.6302 9.93103 85.3264 10.3066 86.1757 10.3066C87.1225 10.3066 88.4034 9.52767 88.4034 8.24804ZM106.476 8.24804V7.78905H104.749C103.371 7.78905 102.702 8.23413 102.702 9.12431C102.702 9.93103 103.399 10.3066 104.248 10.3066C105.195 10.3066 106.476 9.52767 106.476 8.24804ZM97.8154 1.07099C97.8154 0.570267 98.1913 0.166906 98.7065 0.166906C99.2077 0.166906 99.5837 0.556358 99.5837 1.07099C99.5837 1.55781 99.2077 1.94726 98.7065 1.94726C98.1913 1.94726 97.8154 1.55781 97.8154 1.07099Z" fill="#353535"/>
<path d="M78.685 29.0559C78.685 28.4718 78.9496 27.9293 79.3394 27.5538C79.3951 27.4842 79.4508 27.4703 79.5343 27.4703H80.4533C80.6203 27.4981 80.6621 27.5816 80.5646 27.6789C80.3697 27.9015 80.0773 28.3048 80.0773 28.6665C80.1052 29.5288 81.0241 30.0156 82.2772 30.0156C84.5049 30.0156 85.2985 29.2507 85.2846 28.277C85.2846 27.818 84.9783 27.4564 84.491 27.4564H81.9152C81.5114 27.4564 81.3165 27.4008 81.1216 27.0669L80.7874 26.441V25.1058C79.7014 24.5355 79.1584 23.4506 79.1584 22.3935C79.1584 20.8635 80.2723 19.2918 82.5696 19.2918C83.1126 19.2918 83.5999 19.4031 84.0036 19.57H87.1363C87.2338 19.57 87.3034 19.6395 87.3034 19.7369V20.641C87.3034 20.7383 87.2338 20.8079 87.1363 20.8079H85.396C85.6605 21.2947 85.7997 21.8371 85.7997 22.3935C85.7997 23.9374 84.7416 25.5091 82.5696 25.5091C82.4443 25.5091 82.305 25.5091 82.2076 25.4952V26.2602H84.7416C86.0086 26.2602 86.6351 27.0808 86.6351 28.0823C86.6351 29.9739 85.1732 31.2257 82.2633 31.2257C79.228 31.2396 78.685 30.0435 78.685 29.0559ZM97.8015 25.4118C97.8015 23.7288 99.1938 22.8664 101.004 22.8664H103.134V22.5048C103.134 21.1278 102.507 20.641 101.324 20.641C100.377 20.641 99.6115 20.9887 99.5418 21.7398C99.5279 21.8511 99.4583 21.8928 99.3748 21.8928H98.3445C98.247 21.8928 98.1774 21.8232 98.1913 21.7259C98.3862 20.0846 99.6811 19.417 101.38 19.417C102.925 19.417 104.54 19.8064 104.54 22.1571V22.6995C104.54 22.7969 104.485 22.8525 104.387 22.8525H103.148V24.0626H104.387C104.485 24.0626 104.54 24.1321 104.54 24.2156V27.4286C104.54 27.5259 104.485 27.5816 104.387 27.5816H103.287C103.19 27.5816 103.12 27.512 103.12 27.4286V26.5384H103.092C102.619 27.3312 101.686 27.8319 100.628 27.8319C98.9849 27.8319 97.8015 26.9835 97.8015 25.4118ZM93.0676 25.3839V20.9192C93.0676 20.8218 93.1372 20.7522 93.2208 20.7522H94.4738V19.5839H93.2347C93.1372 19.5839 93.0676 19.5143 93.0676 19.417V16.6213C93.0676 16.5239 93.1372 16.4683 93.2208 16.4683H94.2928C94.3903 16.4683 94.4599 16.5378 94.4599 16.6213V19.57H96.6319C96.7294 19.57 96.799 19.6395 96.799 19.7369V20.5714C96.799 20.6688 96.7294 20.7383 96.6319 20.7383H94.4599V25.3561C94.4599 26.3019 95.2396 26.5106 95.9914 26.5106C96.2003 26.5106 96.4091 26.4689 96.6041 26.4689C96.7155 26.4689 96.7851 26.5384 96.7851 26.6358V27.4842C96.7851 27.5816 96.7294 27.6511 96.6319 27.665C96.2978 27.7068 95.9358 27.7485 95.5877 27.7485C94.3207 27.7624 93.0676 27.2756 93.0676 25.3839ZM65.3884 27.4286V26.3298H64.024C63.9265 26.3298 63.8708 26.2602 63.8708 26.1768L63.8987 17.9148C63.8987 17.8174 63.9544 17.7618 64.0518 17.7618H65.4024V16.663C65.4024 16.5656 65.472 16.51 65.5555 16.51H67.1984C70.7767 16.51 72.531 18.5129 72.531 22.0875C72.531 25.6621 70.7488 27.6094 67.1706 27.6094H65.5277C65.4441 27.5816 65.3884 27.5259 65.3884 27.4286ZM75.3992 27.4286V20.7383H74.2018C74.1043 20.7383 74.0486 20.6688 74.0486 20.5853V19.7647C74.0486 19.6673 74.1182 19.6117 74.2018 19.6117H76.6244C76.7219 19.6117 76.7775 19.6673 76.7775 19.7647V27.4286C76.7775 27.5259 76.7219 27.5816 76.6244 27.5816H75.5523C75.4688 27.5816 75.3992 27.5259 75.3992 27.4286ZM89.6147 27.4286V20.7383H88.4173C88.3198 20.7383 88.2641 20.6688 88.2641 20.5853V19.7647C88.2641 19.6673 88.3337 19.6117 88.4173 19.6117H90.8399C90.9374 19.6117 90.9931 19.6673 90.9931 19.7647V27.4286C90.9931 27.5259 90.9234 27.5816 90.8399 27.5816H89.7678C89.6843 27.5816 89.6147 27.5259 89.6147 27.4286ZM106.531 27.4286V16.6491C106.531 16.5517 106.601 16.4961 106.684 16.4961H107.756C107.854 16.4961 107.91 16.5656 107.91 16.6491V27.4286C107.91 27.5259 107.84 27.5816 107.756 27.5816H106.684C106.601 27.5816 106.531 27.5259 106.531 27.4286ZM103.134 24.5355V24.0765H101.421C100.029 24.0765 99.3748 24.5216 99.3748 25.4257C99.3748 26.2324 100.071 26.6079 100.92 26.6079C101.853 26.6079 103.134 25.829 103.134 24.5355ZM70.9438 22.0736C70.9438 19.2501 69.7046 17.7479 67.0314 17.7479H65.4163L65.3884 26.3298H66.9896C69.6628 26.3298 70.9438 24.8971 70.9438 22.0736ZM84.3378 22.4213C84.3378 21.5033 83.7391 20.6132 82.5556 20.6132C81.2886 20.6132 80.6621 21.5033 80.6621 22.4213C80.6621 23.3254 81.2886 24.2434 82.5556 24.2434C83.753 24.2434 84.3378 23.3254 84.3378 22.4213ZM75.2182 17.1359C75.2182 16.6352 75.5941 16.2318 76.1092 16.2318C76.6105 16.2318 77.0003 16.6213 77.0003 17.1359C77.0003 17.6227 76.6244 18.0122 76.1092 18.0122C75.5941 18.0261 75.2182 17.6227 75.2182 17.1359ZM89.4197 17.1359C89.4197 16.6352 89.7957 16.2318 90.3108 16.2318C90.812 16.2318 91.188 16.6213 91.188 17.1359C91.188 17.6227 90.812 18.0122 90.3108 18.0122C89.8096 18.0261 89.4197 17.6227 89.4197 17.1359Z" fill="#353535"/>
<path d="M83.5024 47.847V36.8172C83.5024 36.7198 83.572 36.6642 83.6556 36.6642H84.7276C84.8251 36.6642 84.8808 36.7337 84.8808 36.8172V37.763H84.9086C85.5213 36.9006 86.468 36.3999 87.6515 36.3999C89.8374 36.3999 91.2297 38.069 91.2297 40.7395C91.2297 43.4239 89.8374 45.1069 87.6515 45.1069C86.468 45.1069 85.5213 44.6201 84.9086 43.7299H84.8808V47.847C84.8808 47.9444 84.8112 48 84.7276 48H83.6556C83.572 48 83.5024 47.9444 83.5024 47.847ZM92.5385 42.7146C92.5385 41.0177 93.9308 40.1692 95.7408 40.1692H97.8711V39.8076C97.8711 38.4445 97.2445 37.9438 96.0611 37.9438C95.1143 37.9438 94.3485 38.2915 94.2789 39.0426C94.265 39.1539 94.1954 39.1956 94.1118 39.1956H93.0815C92.9841 39.1956 92.9144 39.1261 92.9284 39.0287C93.1233 37.3874 94.4042 36.7198 96.1168 36.7198C97.6622 36.7198 99.2773 37.1093 99.2773 39.4599V40.0023C99.2773 40.0997 99.2077 40.1553 99.1241 40.1553H97.885V41.3654H99.1241C99.2216 41.3654 99.2773 41.435 99.2773 41.5184V44.7036C99.2773 44.8009 99.2077 44.8566 99.1241 44.8566H98.0521C97.9546 44.8566 97.8989 44.8009 97.8989 44.7036V43.8134H97.8711C97.3977 44.6062 96.4648 45.1069 95.4067 45.1069C93.722 45.1487 92.5385 44.3002 92.5385 42.7146ZM73.9651 41.5462C73.9512 41.4489 74.0069 41.3932 74.1043 41.3932H75.5384V40.2666H74.16C74.0625 40.2666 73.9929 40.1971 74.0069 40.0858C74.3271 37.9577 75.7472 36.6642 77.961 36.6642C79.8824 36.6642 81.7203 37.9021 81.7203 40.9203V41.2402C81.7203 41.3376 81.6506 41.3932 81.5671 41.3932H75.5523C75.6359 43.0901 76.4573 43.9108 78.0446 43.9108C79.047 43.9108 79.6875 43.4935 80.0495 42.798C80.0912 42.7146 80.1609 42.6868 80.2444 42.6868H81.5253C81.6367 42.6868 81.6924 42.7563 81.6506 42.8815C81.038 44.3837 79.7571 45.1348 78.0585 45.1348C75.6915 45.1208 74.1739 43.8968 73.9651 41.5462ZM125.968 41.5462C125.954 41.4489 126.01 41.3932 126.107 41.3932H127.541V40.2666H126.163C126.065 40.2666 125.996 40.1971 126.01 40.0858C126.33 37.9577 127.764 36.6642 129.964 36.6642C131.885 36.6642 133.723 37.9021 133.723 40.9203V41.2402C133.723 41.3376 133.667 41.3932 133.57 41.3932H127.555C127.639 43.0901 128.46 43.9108 130.047 43.9108C131.036 43.9108 131.69 43.4935 132.052 42.798C132.094 42.7146 132.164 42.6868 132.247 42.6868H133.528C133.64 42.6868 133.695 42.7563 133.653 42.8815C133.041 44.3837 131.76 45.1348 130.061 45.1348C127.68 45.1208 126.177 43.8968 125.968 41.5462ZM107.074 42.6868V38.2359C107.074 38.1385 107.144 38.069 107.241 38.069H108.494V36.9006H107.255C107.158 36.9006 107.088 36.8311 107.088 36.7476V33.9519C107.088 33.8545 107.158 33.7989 107.241 33.7989H108.313C108.411 33.7989 108.467 33.8685 108.467 33.9519V36.9006H110.666C110.764 36.9006 110.833 36.9702 110.833 37.0675V37.9021C110.833 37.9994 110.764 38.069 110.666 38.069H108.508V42.6868C108.508 43.6326 109.288 43.8412 110.04 43.8412C110.249 43.8412 110.458 43.7995 110.652 43.7995C110.764 43.7995 110.833 43.869 110.833 43.9525V44.8009C110.833 44.8983 110.778 44.9678 110.68 44.9818C110.346 45.0235 109.984 45.0652 109.636 45.0652C108.341 45.0791 107.074 44.5784 107.074 42.6868ZM144.277 42.6868V38.2359C144.277 38.1385 144.346 38.069 144.444 38.069H145.697V36.9006H144.472C144.374 36.9006 144.305 36.8311 144.305 36.7476V33.9519C144.305 33.8545 144.374 33.7989 144.458 33.7989H145.544C145.641 33.7989 145.697 33.8685 145.697 33.9519V36.9006H147.869C147.966 36.9006 148.036 36.9702 148.036 37.0675V37.9021C148.036 37.9994 147.966 38.069 147.869 38.069H145.697V42.6868C145.697 43.6326 146.477 43.8412 147.229 43.8412C147.437 43.8412 147.646 43.7995 147.841 43.7995C147.953 43.7995 148.022 43.869 148.022 43.9525V44.8009C148.022 44.8983 147.966 44.9678 147.869 44.9818C147.535 45.0235 147.173 45.0652 146.825 45.0652C145.53 45.0791 144.277 44.5784 144.277 42.6868ZM65.3884 44.7314V43.6326H64.024C63.9265 43.6326 63.8708 43.563 63.8708 43.4796L63.9126 35.2176C63.9126 35.1203 63.9683 35.0646 64.0657 35.0646H65.4163V33.9658C65.4163 33.8685 65.4859 33.8128 65.5694 33.8128H67.2124C70.7906 33.8128 72.5449 35.8157 72.5449 39.3903C72.5449 42.9649 70.7628 44.9122 67.1845 44.9122H65.5416C65.4441 44.8983 65.3884 44.8288 65.3884 44.7314ZM101.366 44.7314V37.0675C101.366 36.9702 101.421 36.9145 101.519 36.9145H102.591C102.688 36.9145 102.744 36.9702 102.744 37.0675V38.1246H102.772C103.287 37.151 104.345 36.4973 105.431 36.8589C105.529 36.8867 105.557 36.9702 105.557 37.0536V37.9438C105.557 38.0551 105.487 38.0968 105.39 38.0829C105.195 38.0412 105 38.0133 104.833 38.0133C103.635 38.0133 102.73 38.8201 102.73 40.1831V44.7175C102.73 44.8148 102.661 44.8705 102.577 44.8705H101.505C101.421 44.8983 101.366 44.8288 101.366 44.7314ZM112.198 44.7314V37.0675C112.198 36.9702 112.268 36.9145 112.351 36.9145H113.423C113.521 36.9145 113.576 36.9702 113.576 37.0675V38.1246H113.604C113.897 37.1093 114.802 36.6503 115.985 36.6503C117.141 36.6503 118.087 37.1093 118.575 38.1246H118.603C119.173 36.9563 120.12 36.6503 121.304 36.6503C122.961 36.6503 124.2 37.5822 124.2 39.7937V44.7314C124.2 44.8288 124.13 44.8844 124.047 44.8844H122.974C122.877 44.8844 122.807 44.8148 122.807 44.7314V40.1971C122.807 38.7227 122.028 37.9855 120.816 37.9855C119.605 37.9855 118.881 38.7227 118.881 40.1971V44.7314C118.881 44.8288 118.811 44.8844 118.728 44.8844H117.656C117.558 44.8844 117.503 44.8148 117.503 44.7314V40.1971C117.503 38.7227 116.709 37.9855 115.512 37.9855C114.3 37.9855 113.576 38.7227 113.576 40.1971V44.7314C113.576 44.8288 113.507 44.8844 113.423 44.8844H112.351C112.254 44.8983 112.198 44.8288 112.198 44.7314ZM135.505 44.7314V37.0675C135.505 36.9702 135.561 36.9145 135.658 36.9145H136.73C136.828 36.9145 136.898 36.9702 136.898 37.0675V38.1246H136.925C137.468 37.1232 138.359 36.6642 139.543 36.6642C141.2 36.6642 142.453 37.5961 142.453 39.7937V44.7314C142.453 44.8288 142.397 44.8844 142.3 44.8844H141.228C141.13 44.8844 141.075 44.8148 141.075 44.7314V40.1971C141.075 38.7227 140.281 37.9855 139.083 37.9855C137.872 37.9855 136.911 38.7088 136.911 40.1971V44.7314C136.911 44.8288 136.842 44.8844 136.744 44.8844H135.672C135.575 44.8983 135.505 44.8288 135.505 44.7314ZM97.885 41.8522V41.3932H96.1585C94.7801 41.3932 94.1118 41.8383 94.1118 42.7285C94.1118 43.5352 94.808 43.9108 95.6573 43.9108C96.6041 43.9108 97.885 43.1458 97.885 41.8522ZM89.6843 40.7395C89.6843 38.8201 88.7654 37.6239 87.2756 37.6239C85.8137 37.6239 84.8808 38.8201 84.8808 40.7395C84.8808 42.6729 85.8137 43.8968 87.2756 43.8968C88.7793 43.8829 89.6843 42.6729 89.6843 40.7395ZM70.9438 39.3764C70.9438 36.5529 69.7046 35.0507 67.0314 35.0507H65.4163L65.3884 43.6326H67.0035C69.6628 43.6326 70.9438 42.1999 70.9438 39.3764ZM77.961 37.8742C76.5409 37.8742 75.7333 38.7644 75.5384 40.2527H80.1748C80.0912 38.6392 79.0609 37.8742 77.961 37.8742ZM129.95 37.8742C128.53 37.8742 127.722 38.7644 127.527 40.2527H132.15C132.08 38.6392 131.064 37.8742 129.95 37.8742Z" fill="#353535"/>
<path d="M162.447 47.0542C162.447 46.5674 162.809 46.2057 163.282 46.2057C163.755 46.2057 164.117 46.5813 164.117 47.0542C164.117 47.5132 163.755 47.8887 163.282 47.8887C162.809 47.8748 162.447 47.5132 162.447 47.0542ZM165.231 47.0542C165.231 46.5674 165.593 46.2057 166.067 46.2057C166.54 46.2057 166.902 46.5813 166.902 47.0542C166.902 47.5132 166.54 47.8887 166.067 47.8887C165.593 47.8748 165.231 47.5132 165.231 47.0542ZM185.601 47.6106V46.4144C185.74 46.4422 185.893 46.4561 186.046 46.4561C187.146 46.4839 187.856 46.1918 187.926 44.8983H189.221C189.082 46.6787 188.218 47.7079 186.492 47.7357C186.172 47.7218 185.879 47.694 185.601 47.6106ZM170.536 46.011V44.8427L165.482 44.8288C165.37 44.8288 165.315 44.7314 165.315 44.634V43.6743H163.922V44.6618C163.922 44.7731 163.839 44.8705 163.728 44.8705L159.328 44.8983V43.7021H157.936V44.8983H154.218C154.135 44.8983 154.079 44.8427 154.065 44.7453V43.6882H152.798C152.728 43.6882 152.673 43.6326 152.687 43.5352V40.1275C152.687 37.6517 154.037 36.6781 155.624 36.6781H156.39C157.977 36.6781 159.328 37.6517 159.328 40.1275V43.6882L163.922 43.6604V37.0953C163.922 36.9841 163.992 36.9006 164.103 36.9006H165.12C165.231 36.9006 165.315 36.9841 165.315 37.0953L165.329 43.6604H169.158V40.8786C169.158 38.4028 170.508 37.4292 172.109 37.4292H172.471C174.059 37.4292 175.409 38.4028 175.409 40.8786V43.6604H175.66C176.3 43.6604 177.414 43.6743 178.556 43.6743V40.4474C178.556 37.7491 180.004 36.845 181.772 36.845C183.387 36.845 184.64 37.4709 184.821 39.0565C184.835 39.1817 184.738 39.2652 184.64 39.2652H183.665C183.554 39.2652 183.484 39.2095 183.471 39.0843C183.401 38.4028 182.705 38.069 181.814 38.069C180.714 38.069 179.948 38.5141 179.948 39.7937V41.6436V43.6743C181.159 43.6743 182.162 43.6743 182.287 43.6743C182.858 43.6743 183.443 43.6743 183.471 42.7424V40.4335C183.471 40.3222 183.54 40.2527 183.665 40.2527H184.682C184.793 40.2527 184.863 40.3222 184.863 40.4335V42.6589C184.863 44.2863 183.902 44.8844 182.607 44.8983L174.031 44.8427V46.011H170.536ZM189.388 44.8844H189.263V43.7021H187.94V37.0814C187.94 36.998 187.996 36.9284 188.093 36.9284H189.109C189.193 36.9284 189.249 36.998 189.249 37.0814V43.7021H189.318C190.014 43.7021 192.284 43.716 192.367 43.716C192.966 43.716 193.565 43.716 193.565 42.6868V34.0075C193.565 33.8963 193.634 33.8267 193.746 33.8267H194.762C194.874 33.8267 194.943 33.9102 194.943 34.0075V42.6868C194.943 44.328 193.982 44.9261 192.674 44.9261C192.534 44.8983 190.154 44.8983 189.388 44.8844ZM197.352 44.7036V33.9797C197.352 33.8685 197.422 33.7989 197.533 33.7989H198.549C198.661 33.7989 198.73 33.8685 198.73 33.9797V44.7036C198.73 44.8148 198.647 44.8983 198.549 44.8983H197.533C197.435 44.8983 197.352 44.8148 197.352 44.7036ZM174.003 44.8148V40.8369C174.003 39.4877 173.571 38.7783 172.276 38.7783C170.968 38.7783 170.536 39.4877 170.536 40.8369V44.8148H174.003ZM154.065 43.6882H157.936V40.0858C157.936 38.7366 157.504 38.0412 156.195 38.0412H155.805C154.497 38.0412 154.065 38.7505 154.065 40.0858V43.6882Z" fill="#353535"/>
<path d="M125.648 0.486678C125.982 0.111295 126.538 0.0695853 126.914 0.403259C127.29 0.736932 127.332 1.29306 126.998 1.66844C126.678 2.04382 126.107 2.08553 125.731 1.75186C125.355 1.41818 125.314 0.848158 125.648 0.486678Z" fill="#353535"/>
<path d="M122.877 0.486678C123.197 0.111295 123.768 0.0695853 124.144 0.403259C124.519 0.736932 124.561 1.29306 124.227 1.66844C123.907 2.04382 123.336 2.08553 122.961 1.75186C122.585 1.41818 122.557 0.848158 122.877 0.486678Z" fill="#353535"/>
<path d="M116.723 16.6907C117.057 16.3153 117.614 16.2736 117.989 16.6073C118.365 16.9409 118.407 17.4971 118.073 17.8724C117.753 18.2478 117.182 18.2895 116.806 17.9559C116.431 17.6222 116.389 17.0522 116.723 16.6907Z" fill="#353535"/>
<path d="M113.952 16.6907C114.272 16.3153 114.843 16.2736 115.219 16.6073C115.595 16.9409 115.636 17.4971 115.302 17.8724C114.982 18.2478 114.412 18.2895 114.036 17.9559C113.66 17.6222 113.632 17.0522 113.952 16.6907Z" fill="#353535"/>
<path d="M154.608 17.9565C154.232 17.6227 154.19 17.0664 154.524 16.6908C154.859 16.3153 155.415 16.2735 155.791 16.6074C156.167 16.9412 156.195 17.4975 155.875 17.8731C155.541 18.2486 154.984 18.2764 154.608 17.9565ZM157.365 17.9565C156.989 17.6227 156.947 17.0664 157.281 16.6908C157.615 16.3153 158.172 16.2735 158.548 16.6074C158.924 16.9412 158.952 17.4975 158.632 17.8731C158.311 18.2486 157.741 18.2764 157.365 17.9565Z" fill="#353535"/>
<path d="M184.083 17.5809C184.417 17.2055 184.974 17.1638 185.35 17.4974C185.726 17.8311 185.767 18.3872 185.433 18.7626C185.113 19.138 184.543 19.1797 184.167 18.846C183.791 18.5263 183.763 17.9562 184.083 17.5809Z" fill="#353535"/>
<path d="M181.312 17.5809C181.646 17.2055 182.203 17.1638 182.579 17.4974C182.955 17.8311 182.996 18.3872 182.662 18.7626C182.342 19.138 181.772 19.1797 181.396 18.846C181.034 18.5263 180.992 17.9562 181.312 17.5809Z" fill="#353535"/>
<path d="M182.649 15.4806C182.969 15.1052 183.54 15.0635 183.915 15.3972C184.291 15.7308 184.333 16.287 183.999 16.6624C183.679 17.0377 183.108 17.0794 182.732 16.7458C182.357 16.426 182.315 15.856 182.649 15.4806Z" fill="#353535"/>
<path d="M179.711 35.1481C179.335 34.8282 179.294 34.2579 179.628 33.8824C179.962 33.5068 180.519 33.4651 180.895 33.7989C181.271 34.1327 181.312 34.6891 180.978 35.0646C180.658 35.4402 180.087 35.4819 179.711 35.1481ZM182.482 35.1481C182.106 34.8282 182.064 34.2579 182.398 33.8824C182.733 33.5068 183.29 33.4651 183.665 33.7989C184.041 34.1327 184.083 34.6891 183.749 35.0646C183.429 35.4402 182.858 35.4819 182.482 35.1481Z" fill="#353535"/>
<path d="M154.399 35.1481C154.023 34.8282 153.981 34.2579 154.316 33.8824C154.65 33.5068 155.207 33.4651 155.583 33.7989C155.958 34.1327 156 34.6891 155.666 35.0646C155.346 35.4402 154.775 35.4819 154.399 35.1481ZM157.17 35.1481C156.794 34.8282 156.752 34.2579 157.086 33.8824C157.406 33.5068 157.977 33.4651 158.353 33.7989C158.729 34.1327 158.757 34.6891 158.437 35.0646C158.117 35.4402 157.546 35.4819 157.17 35.1481Z" fill="#353535"/>
</svg>