<svg width="170" height="42" viewBox="0 0 170 42" fill="none" xmlns="http://www.w3.org/2000/svg">
<path d="M137.362 1.85255C136.969 2.46622 136.587 3.07988 136.16 3.67039C136.056 3.82091 135.801 3.8788 135.605 3.92511C132.888 4.59667 130.425 5.80084 128.136 7.41026C128.101 7.43341 128.078 7.47973 128.032 7.53762C128.298 8.04708 128.783 8.18602 129.269 8.22076C130.518 8.31338 131.778 8.38285 133.038 8.39443C134.726 8.39443 136.414 8.34812 138.102 8.3018C141.698 8.20918 145.282 8.12813 148.877 8.01234C150.461 7.96603 151.687 8.61443 152.727 9.74912C153.086 10.1428 153.086 10.6291 152.924 11.1038C152.866 11.2891 152.773 11.4627 152.681 11.7175C152.912 11.8217 153.132 12.0069 153.352 12.0069C155.063 11.9722 156.797 11.9954 158.496 11.7985C159.988 11.6248 161.271 10.7912 162.578 9.96911C160.566 8.84599 158.531 8.82284 156.438 9.69123C156.647 8.09339 157.953 6.72712 159.421 6.56502C159.814 6.51871 160.254 6.59976 160.624 6.7387C161.664 7.09763 162.693 7.51446 163.734 7.91971C165.514 8.61442 167.399 8.7881 169.283 8.91547C169.48 8.92704 169.665 8.9502 170 8.98494C169.803 9.35545 169.607 9.61018 169.503 9.91122C169.179 10.7796 168.67 11.0691 167.699 10.8491C166.069 10.4786 164.566 10.9764 163.144 11.7985C162.231 12.3311 161.283 12.8059 160.358 13.3269C159.41 13.8711 158.415 14.2069 157.294 14.1837C155.953 14.1605 154.612 14.1953 153.271 14.1721C152.265 14.149 152.161 14.0332 152.034 13.0374C152.034 12.9911 151.999 12.9564 151.964 12.8753C151.721 13.2227 151.513 13.5585 151.259 13.8595C151.166 13.9753 151.005 14.0911 150.866 14.0795C150.01 14.0795 149.155 13.9984 148.288 14.01C143.351 14.0448 138.414 14.0911 133.489 14.1258C130.726 14.149 127.963 14.1605 125.188 14.1605C124.853 14.1605 124.714 14.2879 124.552 14.5658C123.303 16.8005 121.477 18.3983 119.13 19.3825C118.228 19.7646 117.326 19.7182 116.424 19.3477C115.21 18.8614 114.135 18.1436 113.28 17.1478C113.083 16.9162 113.037 16.5457 112.921 16.2331C113.187 16.3605 113.499 16.4299 113.707 16.6152C115.407 18.0741 117.28 18.1899 119.28 17.3562C120.852 16.6962 122.251 15.7584 123.442 14.5195C123.523 14.4384 123.581 14.3458 123.731 14.149C123.222 14.149 122.795 14.149 122.378 14.149C121.951 14.149 121.511 14.149 121.095 14.0795C120.112 13.9406 119.592 13.269 119.731 12.2964C119.916 10.988 120.529 9.87649 121.523 9.0081C122.286 8.33654 123.13 8.44075 123.777 9.22809C124.309 9.86491 124.575 10.548 124.829 12.0069C133.628 12.1459 142.438 11.9838 151.247 11.7869C151.282 11.7406 151.305 11.6943 151.34 11.6364C151.109 11.4049 150.912 11.1385 150.646 10.9533C149.71 10.2702 148.611 10.1891 147.513 10.2007C144.241 10.247 140.958 10.328 137.686 10.3859C135.05 10.4323 132.425 10.467 129.789 10.467C129.13 10.467 128.46 10.3975 127.824 10.247C126.818 10.027 126.494 9.36703 126.818 8.37127C127.223 7.09763 127.986 6.06714 129.072 5.29138C130.876 4.00616 132.899 3.12619 134.946 2.32727C135.57 2.08413 136.229 1.89887 136.876 1.70203C137.004 1.6673 137.154 1.67888 137.293 1.67888C137.316 1.72519 137.35 1.77151 137.374 1.81782M122.748 11.9722C122.795 11.9027 122.841 11.8333 122.876 11.7754C122.563 11.5091 122.286 11.1849 121.939 10.9764C121.65 10.8028 121.28 10.9186 121.153 11.2659C121.026 11.6248 121.361 11.7522 121.627 11.8101C121.997 11.8912 122.367 11.9143 122.737 11.9722" fill="#353535"/>
<path d="M40.8356 0.636822C40.8356 1.47048 40.8124 2.31571 40.8356 3.14937C40.9049 5.19877 40.9743 7.25975 41.0784 9.30915C41.0899 9.69124 41.1708 10.0618 41.2749 10.4323C41.483 11.1849 41.9801 11.6712 42.7432 11.8217C43.2866 11.9259 43.8531 12.007 44.4196 12.007C46.0729 12.007 47.7262 11.9491 49.3795 11.9606C52.1427 11.9606 54.9058 12.007 57.669 12.0185C58.5824 12.0185 59.4842 11.9722 60.3975 11.9143C61.3918 11.8564 62.2358 11.4628 62.9642 10.7565C63.1607 10.5712 63.4844 10.5249 63.7504 10.4091C63.6925 10.6986 63.681 10.9996 63.5769 11.2659C63.4613 11.5554 63.2648 11.8101 63.1145 12.0764C64.2706 12.6901 66.1205 12.1806 66.8604 11.0922C67.1841 10.6175 67.531 10.1544 67.8894 9.70282C67.9703 9.59861 68.1668 9.58703 68.3056 9.52914C68.3403 9.66808 68.4327 9.81861 68.3981 9.93439C68.3056 10.4207 68.1668 10.8954 68.0165 11.4975C68.7102 11.6943 69.427 11.8912 70.271 12.1343C69.9935 10.9533 70.4213 10.1544 71.1728 9.27442C71.2191 9.7144 71.2306 10.027 71.3 10.3281C71.3462 10.5249 71.4503 10.7912 71.6006 10.8607C72.2249 11.1501 72.8723 11.3817 73.5313 11.6017C73.9476 11.7406 74.1441 11.5785 74.0863 11.1038C73.9244 9.65651 73.7857 8.19761 73.647 6.75029C73.5082 5.43034 73.277 4.12196 73.2654 2.80201C73.2654 1.93362 73.7973 1.16944 74.4447 0.382095C74.4563 0.578931 74.4794 0.659979 74.4678 0.717872C74.3175 1.60942 74.4331 1.88731 75.254 2.30413C75.6471 2.50097 75.7511 2.73254 75.6124 3.12621C75.4852 3.48514 75.4274 3.86723 75.2887 4.21459C75.2193 4.39985 75.0459 4.55037 74.8378 4.8051C74.9534 6.07874 75.1037 7.49132 75.2193 8.9039C75.3234 10.2933 75.2193 11.6596 74.5372 12.9101C74.0863 13.7437 73.6123 13.9521 72.7336 13.6048C72.063 13.3385 71.4272 12.968 70.7566 12.6206C70.5601 12.8985 70.3404 13.1995 70.1323 13.5122C69.8895 13.9058 69.5426 14.0448 69.1149 13.9174C68.3981 13.7206 67.6813 13.489 66.8373 13.2343C66.0511 14.1374 64.7909 14.1606 63.5422 14.1721C62.9295 14.1721 62.3167 14.1953 61.704 14.149C61.3918 14.1258 61.0912 13.9753 60.7791 13.8943C60.6634 13.8595 60.5247 13.8595 60.4091 13.8711C58.9755 13.9637 57.5419 14.1142 56.1082 14.1258C52.8595 14.1606 49.6223 14.149 46.3735 14.1258C45.1364 14.1258 43.8878 14.1027 42.6623 13.9637C40.9049 13.7553 39.9916 12.8753 39.8297 11.1038C39.6332 9.07758 39.5985 7.03975 39.506 5.00193C39.4713 4.19143 39.4829 3.38094 39.4251 2.57044C39.4019 2.18835 39.4944 1.89888 39.7372 1.621C40.0494 1.26206 40.3384 0.89155 40.6275 0.521037C40.7084 0.544194 40.7778 0.56735 40.8587 0.590507" fill="#353535"/>
<path d="M6.6138 9.77228C6.38257 10.0849 6.19759 10.3512 6.00104 10.6175C5.58483 11.1849 5.02988 11.4627 4.31307 11.3238C3.50377 11.1733 2.69447 10.9996 1.88517 10.8375C1.54989 10.768 1.43427 10.5365 1.54989 10.247C2.04703 9.03125 2.63666 7.90813 4.08184 7.53762C4.70616 7.37552 5.2958 7.03974 5.88543 6.7387C6.01261 6.66923 6.1629 6.39135 6.12822 6.27556C5.93168 5.65032 6.11666 5.10613 6.33633 4.55036C6.50975 4.12195 6.64848 3.67039 6.81034 3.24198C6.87971 3.24198 6.94908 3.24198 7.01845 3.25356C7.08782 3.73986 7.16875 4.23774 7.23812 4.72404C7.43466 6.06715 7.5734 7.42184 7.82775 8.75337C8.2324 10.8607 9.45792 11.8796 11.5968 12.0185C11.724 12.0185 11.8627 12.0301 11.9899 12.0301C18.418 12.0301 24.8462 12.0301 31.2744 12.0069C31.7831 12.0069 32.2802 11.868 32.7889 11.7754C33.0664 11.7175 33.1473 11.5322 33.0548 11.2428C32.9392 10.9186 32.8583 10.5828 32.7427 10.1775C32.5693 10.328 32.4536 10.4323 32.338 10.5365C31.6675 11.1038 30.8928 11.1849 30.1067 10.8838C29.3783 10.5944 29.0777 9.95754 29.043 9.22809C28.9736 8.07023 29.332 7.02817 30.1182 6.17135C30.9853 5.22191 32.0374 5.25665 32.8236 6.27556C33.9219 7.67656 34.2688 9.29756 34.0376 11.0575C33.9798 11.4627 33.8988 11.8796 33.7716 12.2732C33.3786 13.5585 32.4999 14.1953 31.1472 14.1953C27.4822 14.1953 23.8288 14.1953 20.1638 14.1953C17.2503 14.1953 14.3368 14.1953 11.4234 14.1953C11.0072 14.1953 10.5909 14.1605 10.1863 14.1027C8.59081 13.8827 7.60808 12.9216 7.07626 11.4512C6.89127 10.9417 6.7641 10.4091 6.59068 9.80701M6.33633 7.53762C5.72357 8.07023 5.15706 8.57969 4.53274 9.12388C4.91427 9.14704 5.24955 9.19335 5.58483 9.18177C6.41726 9.17019 6.56755 8.98494 6.42882 8.17444C6.39413 7.96603 6.35945 7.75761 6.32476 7.53762M30.2801 8.1976C30.6154 8.61443 31.2744 8.82284 31.494 8.60285C31.6675 8.42917 31.6328 7.96602 31.4247 7.79235C31.0663 7.50288 30.7079 7.61867 30.2685 8.1976" fill="#353535"/>
<path d="M86.2259 9.78387C86.0756 10.0154 85.9368 10.2007 85.8096 10.386C85.2894 11.2312 84.5379 11.4975 83.5898 11.2775C82.9077 11.127 82.2372 10.9649 81.555 10.8259C81.1735 10.7449 81.081 10.5017 81.2082 10.2123C81.6822 9.07758 82.1793 7.96603 83.5552 7.58394C84.2257 7.39869 84.8732 7.06291 85.4975 6.73871C85.6362 6.66924 85.7981 6.3682 85.7634 6.24083C85.5784 5.61559 85.7634 5.0714 85.9946 4.50405C86.1565 4.07565 86.3068 3.64724 86.4686 3.23041C86.5149 3.23041 86.5611 3.23041 86.6189 3.23041C86.6768 3.41567 86.7461 3.60093 86.7808 3.79776C87.0236 5.44192 87.197 7.08607 87.4861 8.70706C87.8791 10.8838 89.1509 11.9491 91.3707 12.0069C93.209 12.0533 95.0472 12.0185 96.8855 12.0185C101.822 12.0185 106.759 12.0185 111.684 12.0185C111.915 12.0185 112.147 12.0185 112.378 12.0069C113.014 11.9722 113.43 11.6596 113.615 11.0459C113.811 10.4091 113.962 9.76071 114.239 9.17021C114.447 8.69549 114.771 8.24392 115.129 7.87341C115.673 7.30606 116.251 7.2829 116.783 7.85025C117.349 8.46392 117.846 9.15863 118.286 9.8765C118.633 10.4438 118.286 12.1575 117.789 12.5975C117.627 12.7364 117.338 12.7943 117.118 12.7711C116.205 12.6553 115.291 12.4817 114.378 12.3311C113.996 12.2733 113.673 12.389 113.488 12.7248C112.794 13.9753 111.707 14.2184 110.355 14.2069C104.689 14.1606 99.0244 14.2069 93.3708 14.2069C92.1453 14.2069 90.9198 14.149 89.7058 14.01C88.3647 13.8595 87.4398 13.0606 86.9195 11.8217C86.6536 11.1849 86.4686 10.5133 86.2374 9.80702M84.2373 9.05442C84.2373 9.05442 84.2373 9.14705 84.2257 9.19336C84.6997 9.19336 85.1622 9.21652 85.6247 9.19336C85.9137 9.17021 86.1912 9.04284 86.1565 8.67233C86.1218 8.29024 86.0409 7.90815 85.9831 7.53763C85.3934 8.05867 84.8154 8.55654 84.2373 9.05442ZM114.575 10.1428C114.609 10.2007 114.632 10.2586 114.667 10.3165L116.355 10.5365C116.378 10.467 116.413 10.386 116.436 10.3165C116.031 10.0965 115.65 9.81861 115.234 9.69124C115.072 9.64493 114.806 9.9807 114.586 10.1428" fill="#353535"/>
<path d="M12.6488 30.0232C12.0823 30.1737 11.5389 30.3242 10.9724 30.4863C10.8568 30.2084 10.7643 29.9653 10.6718 29.7221C10.3481 28.8653 9.72376 28.3443 8.86822 28.0895C6.29001 27.3022 3.91992 28.7958 3.61932 31.4705C3.52683 32.281 3.54995 33.1378 3.70025 33.9367C4.04709 35.7545 5.34197 36.8545 7.18024 37.0166C8.42888 37.1208 9.58503 36.8082 10.6256 36.125C10.799 36.0093 10.9262 35.743 10.9493 35.5345C10.9955 35.0251 10.9608 34.5156 10.9608 33.9367H7.52709V32.2694H12.8222V33.6009C12.8222 34.5619 12.8222 35.523 12.8222 36.484C12.8222 36.6577 12.7413 36.8892 12.6141 36.9934C10.5215 38.846 7.14556 39.2976 4.69453 38.0818C2.71752 37.0976 1.85042 35.384 1.64231 33.2767C1.50357 31.8641 1.7348 30.4979 2.37068 29.2242C3.34184 27.2906 4.99513 26.457 7.05307 26.2833C8.10516 26.1907 9.13413 26.318 10.1169 26.7233C11.5736 27.3254 12.2904 28.4832 12.6488 30.0347" fill="#353535"/>
<path d="M124.066 30.081C123.442 30.1274 122.876 30.1737 122.298 30.2084C122.274 30.1042 122.24 30.0116 122.217 29.919C121.951 28.68 121.465 28.159 120.205 28.0085C119.581 27.9274 118.922 28.0085 118.286 28.1127C117.985 28.159 117.673 28.3674 117.43 28.5874C116.679 29.2821 116.852 30.3705 117.8 30.7179C118.748 31.0652 119.743 31.2621 120.702 31.5515C121.35 31.7484 122.02 31.922 122.61 32.2347C124.806 33.3809 125.015 36.3103 123.026 37.8039C122.217 38.4176 121.292 38.6955 120.297 38.7534C119.06 38.8229 117.846 38.6955 116.737 38.105C115.453 37.4103 114.609 35.9051 114.736 34.4809C115.28 34.4346 115.835 34.3767 116.413 34.3188C116.447 34.4114 116.482 34.4809 116.482 34.5619C116.667 36.0093 117.581 36.7271 118.933 36.9703C119.789 37.1208 120.656 37.0976 121.465 36.7271C122.113 36.4377 122.54 35.963 122.54 35.1988C122.54 34.4577 122.113 34.0062 121.477 33.7978C120.494 33.4736 119.477 33.2304 118.482 32.9294C117.95 32.7673 117.396 32.6168 116.898 32.362C115.8 31.8063 115.141 30.9379 115.164 29.6411C115.187 28.3327 115.777 27.3601 116.933 26.8159C118.644 26.0054 120.413 26.0286 122.113 26.8391C123.419 27.4643 123.962 28.6106 124.043 30.081" fill="#353535"/>
<path d="M65.8084 38.5565V37.966C65.8084 36.345 65.8084 34.7125 65.8084 33.0915C65.8084 32.9294 65.8084 32.7557 65.8084 32.5936C65.7505 31.702 65.4384 31.2505 64.8141 31.1231C63.9816 30.9494 63.1145 31.3084 62.8024 32.0378C62.629 32.4662 62.5365 32.9641 62.5249 33.4272C62.4902 34.9325 62.5133 36.4492 62.5133 37.9545V38.5218H60.7444V37.9776C60.7444 36.3566 60.7444 34.724 60.7444 33.103C60.7444 32.9525 60.7444 32.802 60.7444 32.6515C60.7213 31.7599 60.4092 31.2505 59.8311 31.1231C58.9987 30.9263 58.0969 31.2968 57.7847 32.0494C57.5997 32.501 57.4957 33.0104 57.4841 33.4967C57.4379 34.9904 57.461 36.484 57.461 37.9776C57.461 38.1513 57.461 38.3366 57.461 38.5334H55.7152V29.7453H57.2644C57.2876 29.9768 57.3107 30.1853 57.3338 30.4979C58.0853 29.8147 58.8946 29.479 59.8542 29.5021C60.8369 29.5253 61.6231 29.8611 62.1781 30.7526C62.2821 30.6484 62.3862 30.5789 62.4671 30.4863C63.4383 29.4905 64.6175 29.2937 65.9008 29.6642C66.9645 29.9768 67.5541 30.88 67.5773 32.3157C67.6119 34.2725 67.5888 36.2293 67.5773 38.186C67.5773 38.3134 67.4154 38.5218 67.3113 38.5334C66.8373 38.5681 66.3633 38.545 65.8315 38.545" fill="#353535"/>
<path d="M140.75 37.6766C139.489 38.6492 138.137 38.9618 136.645 38.6029C135.57 38.3481 134.853 37.5608 134.715 36.565C134.564 35.3956 135.015 34.3188 136.067 33.8788C136.923 33.5199 137.882 33.4273 138.796 33.2188C139.281 33.1146 139.767 33.022 140.253 32.941C140.599 32.8831 140.669 32.7094 140.622 32.3852C140.507 31.5515 140.276 31.2505 139.432 31.0884C139.004 31.0073 138.541 31.0189 138.102 31.0537C137.189 31.1231 136.842 31.7947 136.622 32.6399C136.044 32.5589 135.478 32.4894 134.911 32.4083C135.223 30.741 136.009 29.919 137.593 29.6179C138.611 29.4211 139.64 29.3979 140.634 29.7105C141.767 30.0579 142.31 30.7526 142.345 31.9336C142.391 33.242 142.391 34.5504 142.403 35.8588C142.403 36.7503 142.403 37.6534 142.969 38.5334C142.334 38.5334 141.779 38.545 141.224 38.5218C141.12 38.5218 141.016 38.3481 140.946 38.2324C140.865 38.0703 140.819 37.8966 140.738 37.6534M140.542 34.423C139.489 34.6198 138.46 34.7935 137.455 35.0251C136.842 35.164 136.53 35.6156 136.564 36.1714C136.588 36.6924 136.946 37.0861 137.524 37.225C139.374 37.6766 140.854 36.3335 140.553 34.423" fill="#353535"/>
<path d="M153.178 32.4199C153.375 31.2852 153.837 30.3937 154.912 29.9421C156.207 29.3979 157.56 29.3632 158.901 29.7337C160.069 30.0695 160.612 30.8221 160.647 32.0378C160.682 33.6125 160.67 35.1872 160.728 36.7619C160.751 37.3408 160.959 37.9082 161.086 38.5566C160.601 38.5566 160.034 38.626 159.502 38.5218C159.283 38.4755 159.144 38.0355 158.947 37.7461C158.832 37.8271 158.658 37.9313 158.485 38.0471C157.421 38.7187 156.265 38.8808 155.051 38.6492C153.883 38.4176 153.086 37.5724 152.982 36.5303C152.854 35.2335 153.409 34.1799 154.589 33.7515C155.375 33.4736 156.23 33.3925 157.051 33.2304C157.537 33.1378 158.022 33.0336 158.508 32.9525C158.785 32.9062 158.889 32.7673 158.878 32.4778C158.843 31.6789 158.566 31.2737 157.768 31.1116C157.317 31.0189 156.843 31.0189 156.392 31.0537C155.641 31.1 155.178 31.5631 154.993 32.2694C154.912 32.5936 154.739 32.6515 154.461 32.6052C154.045 32.5357 153.617 32.4778 153.167 32.4083M158.82 34.4114C157.768 34.6083 156.751 34.7819 155.745 35.0135C155.132 35.1525 154.785 35.6156 154.808 36.1366C154.831 36.6693 155.213 37.0861 155.791 37.225C157.629 37.6766 159.051 36.3798 158.82 34.4114Z" fill="#353535"/>
<path d="M77.0459 34.643H70.8143C70.7103 35.7777 71.4502 36.8545 72.5023 37.144C73.6122 37.4566 74.5949 37.0166 75.0689 35.9282C75.2423 35.5461 75.4389 35.4419 75.8204 35.523C76.2251 35.5924 76.6297 35.6387 77.0575 35.7082C76.8725 36.6229 76.4563 37.3292 75.7973 37.8966C73.6584 39.7028 70.005 38.6839 69.1726 36.0208C68.7448 34.6546 68.7911 33.2651 69.3113 31.922C69.7275 30.8452 70.5022 30.081 71.6005 29.7337C74.2943 28.9 76.7569 30.3242 77.0344 33.3115C77.0691 33.7167 77.0344 34.1335 77.0344 34.6314M75.1614 33.1146C75.1267 31.8641 74.2481 31.0189 73.0225 31.0305C71.8433 31.0305 70.8952 31.9568 70.8837 33.1146H75.1614Z" fill="#353535"/>
<path d="M39.6562 34.6314H33.3552C33.2396 35.7314 34.0027 36.8429 35.0316 37.144C36.1415 37.4566 37.1358 37.0282 37.6098 35.9514C37.7833 35.5461 38.0029 35.4535 38.396 35.523C38.7775 35.5924 39.1706 35.6388 39.5522 35.6966C39.4944 36.924 38.4076 38.186 37.0896 38.5565C36.13 38.8229 35.1588 38.8344 34.1992 38.5334C32.9737 38.1629 32.1413 37.3292 31.7482 36.1251C31.3088 34.7935 31.3204 33.4388 31.7713 32.1189C32.4072 30.2547 34.0952 29.2937 36.234 29.5369C37.9798 29.7221 39.3556 31.1926 39.5637 33.0915C39.61 33.5778 39.6215 34.0757 39.6562 34.6198M33.4246 33.1031H37.7255C37.6214 31.7715 36.7659 30.9726 35.4825 31.0189C34.3611 31.0537 33.4362 31.9799 33.413 33.1031" fill="#353535"/>
<path d="M162.601 26.4685H164.335V30.4053C165.237 29.6642 166.173 29.4442 167.202 29.5369C168.717 29.6758 169.722 30.6021 169.78 32.1073C169.85 34.1451 169.838 36.1829 169.85 38.2208C169.85 38.3366 169.699 38.545 169.618 38.545C169.133 38.5797 168.636 38.5565 168.092 38.5565V37.966C168.092 36.3103 168.092 34.6546 168.092 32.9873C168.092 31.7368 167.618 31.1463 166.566 31.0652C165.514 30.9842 164.508 31.7368 164.45 32.802C164.358 34.4925 164.381 36.1829 164.358 37.8734C164.358 38.0818 164.358 38.2902 164.358 38.5565C163.815 38.5565 163.341 38.5681 162.867 38.545C162.763 38.545 162.67 38.3597 162.578 38.2555C162.566 38.2323 162.578 38.186 162.578 38.1629C162.578 34.3535 162.578 30.5326 162.578 26.7233C162.578 26.6538 162.589 26.5959 162.612 26.4801" fill="#353535"/>
<path d="M126.09 26.4801H127.801V30.3589C127.986 30.2431 128.113 30.1737 128.229 30.0926C129.373 29.3748 130.564 29.3284 131.79 29.8379C132.634 30.1968 133.131 30.88 133.2 31.7831C133.281 32.8599 133.293 33.9367 133.304 35.0135C133.316 36.1714 133.304 37.3292 133.304 38.5334H131.535V33.242C131.535 33.1378 131.535 33.0452 131.535 32.9409C131.524 31.7484 131.073 31.181 130.055 31.0768C129.073 30.9726 128.136 31.6326 127.928 32.6168C127.847 32.9873 127.824 33.3694 127.824 33.7514C127.812 35.1988 127.801 36.6345 127.824 38.0818C127.824 38.4871 127.708 38.6144 127.315 38.5797C126.922 38.545 126.529 38.5797 126.09 38.5797V26.4917V26.4801Z" fill="#353535"/>
<path d="M104.609 34.1451C104.539 34.643 104.504 35.2219 104.377 35.7893C103.915 37.7924 102.134 38.7997 100.261 38.7418C97.741 38.6607 96.3421 36.9355 96.2843 34.504C96.2612 33.7978 96.319 33.0683 96.4924 32.3852C96.978 30.4516 98.6197 29.3863 100.793 29.5137C102.701 29.6295 104.169 30.961 104.47 32.8715C104.528 33.2651 104.562 33.6588 104.609 34.1335M102.851 34.0525C102.701 33.4736 102.62 32.8367 102.377 32.2694C102.007 31.4242 101.29 30.9957 100.354 31.0189C99.4405 31.0421 98.7584 31.4936 98.4116 32.3273C97.926 33.4967 97.9376 34.6893 98.3885 35.8703C98.7237 36.7503 99.533 37.2482 100.458 37.225C101.418 37.2018 102.111 36.7271 102.447 35.8472C102.655 35.303 102.712 34.7009 102.863 34.0525" fill="#353535"/>
<path d="M18.1981 29.4326C20.5567 29.5137 22.1175 30.9842 22.314 33.462C22.3718 34.2609 22.3025 35.0946 22.129 35.8703C21.7128 37.6766 19.8745 38.8576 18.0016 38.7418C15.3425 38.5913 13.8163 36.6229 14.0591 33.5083C14.1979 31.8178 14.8569 30.4631 16.5217 29.8147C17.0536 29.6063 17.6316 29.5484 18.1981 29.4211M15.7702 34.0641C15.8974 34.6777 15.9437 35.2682 16.1402 35.8008C16.4755 36.704 17.1692 37.2134 18.1519 37.225C19.1115 37.2366 19.8283 36.785 20.1983 35.9166C20.6954 34.7472 20.7185 33.5199 20.1983 32.3389C19.8283 31.4936 19.1462 31.0305 18.2097 31.0189C17.2501 31.0189 16.5449 31.4705 16.1864 32.3504C15.9668 32.8946 15.8974 33.4967 15.7702 34.0525" fill="#353535"/>
<path d="M53.7613 38.5565C53.2526 38.5565 52.7902 38.5565 52.3277 38.5565C51.9809 38.5565 52.0271 38.325 52.0271 38.1166C52.0271 36.5187 52.0271 34.9325 52.0271 33.3346C52.0271 32.9525 52.0155 32.5704 51.9462 32.1999C51.819 31.5515 51.3565 31.1694 50.7091 31.1C49.2639 30.9494 48.3506 31.8062 48.339 33.4041C48.3159 34.9093 48.339 36.4261 48.339 37.9313V38.5102H46.5817V29.7337H48.1656C48.1887 29.9537 48.2118 30.1737 48.2465 30.4863C49.1136 29.6526 50.1195 29.4326 51.2178 29.5253C52.6745 29.6526 53.692 30.521 53.7613 31.9683C53.8538 34.1335 53.7844 36.3103 53.7844 38.545" fill="#353535"/>
<path d="M85.7865 38.5334H84.006V37.7113C84.006 36.1019 84.006 34.4925 84.006 32.8831C84.006 31.8178 83.5436 31.2157 82.7227 31.1115C81.5781 30.961 80.6763 31.5052 80.4335 32.5357C80.341 32.9525 80.3064 33.3925 80.3064 33.8209C80.2948 35.2451 80.2832 36.6692 80.3064 38.0934C80.3064 38.4639 80.2023 38.6029 79.8323 38.5681C79.4277 38.5334 79.0115 38.5681 78.5721 38.5681V29.7568H80.1098C80.1214 30 80.1329 30.2084 80.1561 30.4747C80.2601 30.4168 80.341 30.3937 80.4104 30.3358C81.5203 29.3979 82.7805 29.3284 84.0985 29.7684C85.0697 30.0926 85.6246 30.8452 85.7056 31.841C85.798 32.9988 85.7865 34.1567 85.798 35.3145C85.8096 36.3798 85.798 37.4334 85.798 38.5334" fill="#353535"/>
<path d="M117.268 0.683124C116.76 1.25047 116.505 2.02624 115.592 2.25781C109.73 3.79775 103.869 5.36086 98.0069 6.93554C95.8218 7.52604 93.6482 8.16286 91.3706 8.79968C91.9602 8.01234 92.2724 7.13237 93.3245 6.85449C97.5675 5.75453 101.787 4.58509 106.019 3.45039C109.591 2.50095 113.187 1.58625 116.771 0.64839C116.91 0.613654 117.049 0.578918 117.187 0.555761C117.21 0.590497 117.245 0.625233 117.268 0.671547" fill="#353535"/>
<path d="M22.7998 29.7221C23.3779 29.7221 23.8981 29.6874 24.4068 29.7453C24.5571 29.7569 24.7421 29.9768 24.7999 30.1505C25.4589 31.9684 26.1064 33.7978 26.7538 35.6156C26.8001 35.7314 26.8463 35.8472 26.9272 36.044C27.4244 34.6893 27.8868 33.4273 28.3493 32.1536C28.6037 31.4705 28.858 30.7873 29.0892 30.0926C29.1817 29.8032 29.332 29.7105 29.6326 29.7221C30.072 29.7453 30.5229 29.7221 31.0316 29.7221C30.9853 29.9074 30.9622 30.0347 30.9044 30.1621C29.9101 32.802 28.8927 35.4535 27.91 38.105C27.7712 38.4871 27.5747 38.5913 27.1932 38.5797C26.1526 38.5565 26.1526 38.5797 25.7827 37.5955C24.8577 35.1525 23.9213 32.7094 22.9963 30.2663C22.9385 30.1158 22.8923 29.9537 22.8114 29.7221" fill="#353535"/>
<path d="M106.285 31.1231H105.036V29.7453C105.429 29.7221 105.811 29.7105 106.25 29.6874C106.32 28.5179 106.077 27.2096 107.395 26.538C108.331 26.0633 109.314 26.2485 110.331 26.4222C110.239 26.9664 110.146 27.4527 110.065 27.9159C109.43 28.0316 108.678 27.6032 108.262 28.2169C108.008 28.5758 108.065 29.1548 107.961 29.7105H109.672V31.1231H108.065V38.5218H106.285V31.1115V31.1231Z" fill="#353535"/>
<path d="M36.4422 7.61868C38.2574 9.7144 39.0898 13.269 37.0666 15.8858C36.3382 16.8352 35.4595 17.6804 34.5809 18.4909C33.1357 19.834 31.4824 19.8688 29.8753 18.9078C28.8811 18.3173 28.0139 17.4836 27.1006 16.7657C27.0197 16.7078 26.9387 16.6152 26.9272 16.5342C26.8925 16.3373 26.9156 16.1405 26.9041 15.9437C27.089 15.99 27.274 16.0131 27.4474 16.0826C27.5284 16.1173 27.5977 16.21 27.6671 16.2794C29.147 17.7615 30.8812 17.9236 32.7426 17.171C34.5693 16.43 36.0145 15.1911 37.0897 13.5353C37.2169 13.3385 37.2631 12.9795 37.1706 12.7711C36.8238 12.0185 36.396 11.3122 36.0145 10.5828C35.922 10.3975 35.8526 10.1544 35.8989 9.95755C36.0492 9.20494 36.2457 8.45234 36.4422 7.64184" fill="#353535"/>
<path d="M87.9138 31.1231H86.908V29.7453C87.2432 29.7221 87.5438 29.699 87.9138 29.6758C87.9138 29.1084 87.8907 28.5643 87.9254 28.0201C87.9369 27.8348 88.0641 27.5917 88.226 27.4759C88.6537 27.1748 89.1162 26.9201 89.648 26.6075V29.6874H91.1279V31.1115H89.6711V32.7094C89.6711 33.7862 89.6711 34.863 89.6711 35.9398C89.6711 36.9124 89.8677 37.0629 90.8388 36.9355C90.9198 36.9355 91.0007 36.9355 91.1163 36.9355C91.1973 37.4334 91.2782 37.9313 91.3707 38.4639C90.5267 38.6839 89.7058 38.765 88.9196 38.4292C88.3185 38.1744 88.0063 37.6766 87.9947 37.0166C87.96 35.2567 87.9485 33.5083 87.9254 31.7484C87.9254 31.5515 87.9254 31.3547 87.9254 31.1" fill="#353535"/>
<path d="M43.1017 7.86182C43.5988 6.85449 44.2347 6.22925 45.3099 5.93978C50.3507 4.61983 55.3684 3.2304 60.3976 1.87571C61.8312 1.48204 63.2649 1.08837 64.6985 0.706281C64.8835 0.659967 65.08 0.625233 65.4037 0.555761C64.8372 1.29679 64.4788 1.93361 63.577 2.17676C57.5651 3.79775 51.5531 5.47664 45.5527 7.14395C44.755 7.36395 43.9688 7.60709 43.1017 7.8734" fill="#353535"/>
<path d="M147.906 41.9027C148.045 41.3007 148.149 40.8259 148.253 40.3628C148.311 40.3396 148.345 40.3165 148.369 40.3165C149.559 40.5481 149.779 40.3628 149.779 39.0892C149.779 36.1945 149.779 33.2883 149.779 30.3937C149.779 30.1968 149.779 30 149.779 29.7684H151.56V30.301C151.56 33.0567 151.56 35.8008 151.56 38.5565C151.56 39.1934 151.502 39.8533 151.386 40.4786C151.213 41.3933 150.554 41.9491 149.617 41.9954C149.074 42.0185 148.519 41.9491 147.918 41.9143" fill="#353535"/>
<path d="M41.1016 29.7337H42.6392C42.6624 29.9421 42.6855 30.1274 42.7202 30.4168C43.726 29.1895 44.8475 29.3285 46.0614 30.0463C45.8649 30.5905 45.6683 31.1115 45.4602 31.6673C45.2752 31.5863 45.1134 31.5052 44.9515 31.4357C44.0613 31.0884 43.3098 31.4357 43.0554 32.362C42.9398 32.802 42.8589 33.2767 42.8589 33.7283C42.8358 35.1409 42.8589 36.5419 42.8589 37.9545V38.5218H41.1131V29.7221L41.1016 29.7337Z" fill="#353535"/>
<path d="M144.357 29.7453H145.894C145.917 29.9653 145.929 30.1621 145.952 30.4516C146.403 29.9305 146.854 29.5137 147.548 29.5137C148.184 29.5137 148.75 29.6874 149.282 30.081C149.085 30.6137 148.889 31.1347 148.704 31.6557C148.658 31.6557 148.623 31.6557 148.6 31.6557C147.478 30.9726 146.287 31.2621 146.149 33.0451C146.033 34.423 146.079 35.824 146.056 37.2134C146.056 37.6418 146.056 38.0702 146.056 38.5334H144.357V29.7453Z" fill="#353535"/>
<path d="M27.0774 2.46623C26.6034 3.10305 26.3028 3.80934 25.401 4.12196C20.7186 5.74296 16.0478 7.43342 11.377 9.08916C11.2614 9.13547 11.1342 9.15862 10.8683 9.23967C11.4579 8.37128 11.7701 7.52605 12.8337 7.17869C17.3774 5.66191 21.8979 4.05249 26.43 2.48939C26.615 2.43149 26.8 2.38518 26.9849 2.33886C27.0196 2.38518 27.0428 2.41991 27.0774 2.45465" fill="#353535"/>
<path d="M78.6183 0.521035C78.7108 1.69047 78.8033 2.8599 78.8842 4.02933C79.023 6.15978 79.2195 8.29024 79.2657 10.4323C79.2889 11.3354 79.023 12.2617 78.7917 13.1532C78.6877 13.5469 78.364 13.8827 78.1443 14.2416C78.098 14.2184 78.0402 14.1953 77.994 14.1721C77.994 14.1027 77.9477 14.0216 77.9709 13.9521C78.3524 11.9375 78.0402 9.92281 77.9015 7.90815C77.7743 6.19452 77.5547 4.48089 77.4044 2.76727C77.3812 2.54728 77.439 2.30413 77.5431 2.1073C77.8437 1.5631 78.1905 1.03049 78.5143 0.497877C78.5489 0.509456 78.5952 0.521035 78.6299 0.532614" fill="#353535"/>
<path d="M80.0057 1.71362C80.5029 1.1347 80.9653 0.578927 81.4509 0C82.0406 0.497877 82.5955 0.961017 83.1967 1.45889C83.6129 0.972596 84.006 0.509456 84.4338 0C85.035 0.509456 85.613 0.995753 86.2142 1.49363C85.7286 2.07256 85.2546 2.62833 84.769 3.20725C84.1794 2.70938 83.6245 2.24624 83.0233 1.74836C82.6186 2.23466 82.214 2.70938 81.7862 3.20725C81.185 2.6978 80.6069 2.2115 80.0057 1.71362Z" fill="#353535"/>
<path d="M70.5831 6.17136C70.0976 6.75029 69.6351 7.29447 69.1495 7.8734C68.5599 7.3871 67.9934 6.91238 67.3922 6.41451C66.976 6.90081 66.5829 7.36395 66.1551 7.8734C65.5539 7.37552 64.9874 6.88923 64.3746 6.37977C64.8602 5.80085 65.3342 5.24508 65.8198 4.66615C66.4094 5.16403 66.976 5.62717 67.5656 6.12504C67.9818 5.63874 68.3865 5.1756 68.8142 4.67773C69.4154 5.18718 69.9935 5.67348 70.5831 6.17136Z" fill="#353535"/>
<path d="M32.8236 4.23774C32.2224 3.73986 31.6674 3.27672 31.0778 2.77885C30.6732 3.25357 30.2801 3.71671 29.8292 4.23774C29.2395 3.73986 28.673 3.26515 28.0487 2.74411C28.5343 2.16518 28.9967 1.62099 29.4939 1.03049C30.0835 1.51678 30.65 1.9915 31.2397 2.48938C31.6559 2.00308 32.049 1.53994 32.4767 1.03049C33.0664 1.52836 33.6444 2.01466 34.2572 2.52412C33.7832 3.09146 33.3207 3.63566 32.8236 4.23774Z" fill="#353535"/>
<path d="M2.27807 0C2.89082 0.509456 3.44577 0.972596 4.02385 1.45889C4.44006 0.972596 4.83315 0.509456 5.27248 0C5.87368 0.509456 6.45175 0.995753 7.04138 1.49363C6.5558 2.07256 6.10491 2.61675 5.60776 3.20725C5.01813 2.72096 4.45162 2.24624 3.85042 1.74836C3.43421 2.23466 3.04112 2.6978 2.61335 3.20725C2.01215 2.70938 1.44564 2.22308 0.832886 1.71362C1.31847 1.1347 1.78092 0.590506 2.26651 0" fill="#353535"/>
<path d="M123.708 2.94094C123.558 2.802 123.5 2.74411 123.442 2.6978C123.28 2.58201 123.107 2.46622 122.945 2.33886C122.818 2.53569 122.621 2.72095 122.575 2.92937C122.413 3.75144 122.321 4.59668 122.159 5.43033C122.101 5.76611 121.939 6.07873 121.824 6.40293C121.777 6.39135 121.743 6.36819 121.696 6.35661C121.35 5.43033 121.003 4.49247 120.656 3.57776C120.355 3.65881 119.407 3.2883 119.373 3.05673C119.326 2.72095 119.338 2.3157 119.477 2.01466C119.615 1.71362 119.997 1.78309 120.205 1.97992C120.587 2.35044 120.968 2.75569 121.257 3.20725C121.511 3.58934 121.639 4.04091 121.881 4.5851C121.951 4.07564 121.985 3.65881 122.078 3.26514C122.205 2.74411 122.355 2.2115 122.587 1.7252C122.679 1.52836 123.026 1.31995 123.234 1.34311C123.581 1.37784 123.858 1.65573 123.835 2.07255C123.824 2.33886 123.754 2.60517 123.697 2.9641" fill="#353535"/>
<path d="M57.9581 9.1702C57.6575 9.44809 57.4378 9.71439 57.1488 9.91123C56.7673 10.1775 56.3048 10.027 56.0851 9.63334C55.773 9.05441 56.2817 7.51447 56.9407 7.15553C56.906 7.37553 56.8366 7.57236 56.8482 7.74604C56.8713 7.94288 56.9291 8.1976 57.0679 8.29023C57.1719 8.3597 57.4609 8.29023 57.5997 8.17445C57.854 7.96603 58.0621 7.69973 58.2702 7.45658C58.3743 7.34079 58.4437 7.19027 58.513 7.08606C58.6865 7.30606 58.8368 7.50289 58.9871 7.69973C59.1952 7.49131 59.4495 7.29448 59.6229 7.05133C59.7848 6.81976 59.8773 6.53029 59.9929 6.26398C60.0507 6.26398 60.0969 6.27556 60.1548 6.28714C60.1779 6.53029 60.2819 6.80818 60.201 7.00501C59.9235 7.67657 59.6461 8.34812 59.253 8.95021C58.9177 9.45966 58.4552 9.47124 57.9465 9.15862" fill="#353535"/>
<path d="M142.657 6.4724C142.831 6.28715 142.993 6.09031 143.189 5.92821C143.894 5.31455 144.623 4.71247 145.328 4.08723C145.467 3.95986 145.559 3.7746 145.698 3.58935C145.513 3.5083 145.386 3.4504 145.247 3.39251C144.634 3.14936 144.484 2.8599 144.727 2.23466C144.842 1.92204 145.027 1.59784 145.247 1.35469C145.605 0.94944 146.022 1.03049 146.195 1.55152C146.322 1.93361 146.345 2.36202 146.415 2.76727C146.438 2.87148 146.415 3.04515 146.484 3.07989C147.051 3.40409 146.727 3.76303 146.553 4.14512C146.403 4.08722 146.264 4.04091 146.126 3.98302C145.802 4.34195 145.501 4.71246 145.166 5.04824C144.808 5.3956 144.449 5.73138 144.045 6.02084C143.675 6.28715 143.258 6.49556 142.854 6.72713C142.784 6.64608 142.715 6.55345 142.657 6.4724ZM145.929 2.87148C145.929 2.87148 146.022 2.77885 146.068 2.73253C145.906 2.52412 145.767 2.28097 145.582 2.10729C145.524 2.0494 145.328 2.14203 145.189 2.16519C145.235 2.28097 145.235 2.44307 145.328 2.51254C145.513 2.65149 145.733 2.75569 145.941 2.8599" fill="#353535"/>
<path d="M165.503 3.1841C165.352 3.10305 165.26 3.04516 165.156 3.01042C164.74 2.87148 164.381 2.68622 164.439 2.15361C164.485 1.59784 164.994 0.764185 165.364 0.717871C165.549 0.694714 165.838 0.833656 165.919 0.984177C166.069 1.28522 166.139 1.63258 166.196 1.97993C166.243 2.29255 166.15 2.60518 166.509 2.84833C166.624 2.92937 166.509 3.36936 166.485 3.75145C165.965 3.40409 165.803 3.75145 165.549 3.97144C164.797 4.66615 164.023 5.32613 163.237 5.97453C163.075 6.11347 162.832 6.14821 162.612 6.24083C162.439 5.81243 162.728 5.68507 162.936 5.51139C163.63 4.94404 164.323 4.38827 164.994 3.80934C165.191 3.64724 165.318 3.41567 165.514 3.17252M165.734 2.43149C165.734 2.43149 165.826 2.33887 165.873 2.29255C165.699 2.07256 165.537 1.84099 165.341 1.65573C165.283 1.60942 165.086 1.7252 164.959 1.75994C165.006 1.86415 165.029 2.01467 165.11 2.07256C165.306 2.2115 165.526 2.31571 165.734 2.43149Z" fill="#353535"/>
<path d="M68.9647 3.5083C68.4791 4.08722 68.0167 4.64299 67.5311 5.22192C66.9299 4.71246 66.3634 4.23774 65.7506 3.72829C66.2246 3.16094 66.6871 2.60517 67.1842 2.01466C67.7854 2.51254 68.3519 2.99884 68.9647 3.5083Z" fill="#353535"/>
<path d="M91.6828 0.798921C91.625 1.01891 91.5903 1.25048 91.4863 1.4589C91.2551 1.93362 90.9429 2.3736 90.7579 2.8599C90.6076 3.26515 90.5267 3.72829 90.5498 4.14512C90.5614 4.36511 90.8851 4.643 91.1163 4.71247C91.2782 4.75878 91.5557 4.51564 91.7406 4.35354C91.8678 4.23775 91.9256 4.05249 92.0065 3.90197C92.0759 3.92513 92.1222 3.92513 92.1222 3.93671C92.3765 4.70089 91.4863 5.85874 90.7001 5.81243C90.0758 5.76612 89.5786 5.15246 89.7174 4.45774C89.8446 3.86724 90.0527 3.28831 90.3186 2.74412C90.6654 2.04941 91.1047 1.40101 91.5094 0.72945C91.5672 0.752607 91.6135 0.775764 91.6713 0.798921" fill="#353535"/>
<path d="M155.398 3.78618C155.583 4.643 155.063 5.54612 154.392 5.75454C153.837 5.92821 153.259 5.63875 153.097 5.0714C153.028 4.83983 153.016 4.57352 153.039 4.34195C153.132 3.54303 154.311 1.30838 154.993 0.822077C154.901 1.09996 154.82 1.37785 154.704 1.64415C154.461 2.15361 154.138 2.62833 153.953 3.14936C153.826 3.48514 153.814 3.90197 153.883 4.24933C153.918 4.44616 154.219 4.68931 154.427 4.72405C154.612 4.75878 154.855 4.55037 155.028 4.38827C155.167 4.2609 155.224 4.06407 155.386 3.78618" fill="#353535"/>
<path d="M12.4753 0.822077C12.3366 1.15785 12.2094 1.49363 12.0591 1.82941C11.8279 2.33887 11.5504 2.83674 11.3423 3.3462C11.2614 3.53145 11.2036 3.79776 11.2729 3.97144C11.3886 4.24932 11.5735 4.57352 11.8163 4.71247C12.1516 4.88614 12.3828 4.57353 12.5563 4.29564C12.6372 4.1567 12.7181 4.02933 12.8222 3.86723C13.0303 4.38827 12.7875 5.09456 12.2788 5.52296C11.9088 5.83558 11.4926 5.93979 11.0417 5.68506C10.6024 5.44191 10.3943 4.89772 10.4983 4.30722C10.6717 3.32304 11.2151 2.50097 11.7238 1.66731C11.9088 1.35469 12.1054 1.04207 12.3019 0.741028C12.3597 0.775763 12.4175 0.79892 12.4869 0.833656" fill="#353535"/>
<path d="M151.536 26.4801H149.825V28.4253H151.536V26.4801Z" fill="#353535"/>
</svg>