<svg width="43" height="48" viewBox="0 0 43 48" fill="none" xmlns="http://www.w3.org/2000/svg">
<path d="M15.3855 2.625L13.2292 6H30.0105L27.8542 2.625C27.4792 1.96875 26.7292 1.5 25.9792 1.5H17.2605C16.5105 1.5 15.7605 1.96875 15.3855 2.625ZM11.448 6L14.073 1.78125C14.823 0.75 15.948 0 17.2605 0H25.9792C27.2917 0 28.4167 0.75 29.1667 1.78125L31.7917 6H41.9167C42.2917 6 42.6667 6.375 42.6667 6.75C42.6667 7.21875 42.2917 7.5 41.9167 7.5H1.41675C0.947998 7.5 0.666748 7.21875 0.666748 6.75C0.666748 6.375 0.947998 6 1.41675 6H11.448ZM4.41675 10.5C4.79175 10.5 5.16675 10.875 5.16675 11.25V41.25C5.16675 44.1562 7.5105 46.5 10.4167 46.5H32.9167C35.7292 46.5 38.1667 44.1562 38.1667 41.25V11.25C38.1667 10.875 38.448 10.5 38.9167 10.5C39.2917 10.5 39.6667 10.875 39.6667 11.25V41.25C39.6667 45 36.573 48 32.9167 48H10.4167C6.66675 48 3.66675 45 3.66675 41.25V11.25C3.66675 10.875 3.948 10.5 4.41675 10.5ZM20.9167 36V27.75H12.6667C12.198 27.75 11.9167 27.4688 11.9167 27C11.9167 26.625 12.198 26.25 12.6667 26.25H20.9167V18C20.9167 17.625 21.198 17.25 21.6667 17.25C22.0417 17.25 22.4167 17.625 22.4167 18V26.25H30.6667C31.0417 26.25 31.4167 26.625 31.4167 27C31.4167 27.4688 31.0417 27.75 30.6667 27.75H22.4167V36C22.4167 36.4688 22.0417 36.75 21.6667 36.75C21.198 36.75 20.9167 36.4688 20.9167 36Z" fill="#F27B21"/>
</svg>
