<svg width="48" height="54" viewBox="0 0 48 54" fill="none" xmlns="http://www.w3.org/2000/svg">
<path d="M28.7812 24.4062C36.5625 23.5625 42.6562 17.375 43.4062 9.5H42.75C35.5312 9.5 29.4375 14.1875 27.0938 20.5625C26.3438 18.9688 25.3125 17.4688 24.1875 16.1562C27.75 9.5 34.6875 5 42.75 5H45C46.5938 5 48 6.40625 48 8C48 18.6875 40.0312 27.5 29.7188 28.8125C29.5312 27.3125 29.25 25.9062 28.7812 24.4062ZM4.5 15.5V17C4.5 26.1875 11.8125 33.5 21 33.5H21.75V32C21.75 22.9062 14.3438 15.5 5.25 15.5H4.5ZM26.25 32V33.5V38V50.75C26.25 52.0625 25.2188 53 24 53C22.6875 53 21.75 52.0625 21.75 50.75V38H21C9.375 38 0 28.625 0 17V14C0 12.4062 1.3125 11 3 11H5.25C16.7812 11 26.25 20.4688 26.25 32Z" fill="#F27B21"/>
</svg>
