<svg width="65" height="59" viewBox="0 0 65 59" fill="none" xmlns="http://www.w3.org/2000/svg">
<path d="M34.966 50.4273C34.4801 50.9125 34.4801 51.6923 34.966 52.1775L39.4604 56.6657C41.8899 59.0918 45.829 59.0744 48.2411 56.6657L64.2753 40.6537C64.7612 40.1685 64.7612 39.3713 64.2753 38.9034L56.2582 30.8974C55.8244 30.4642 55.0435 30.3602 54.5055 30.8974L34.966 50.4273Z" fill="#353535"/>
<path d="M9.95658 50.2537L16.3946 56.6827C17.5746 57.8611 19.1364 58.5023 20.7849 58.5023C22.4508 58.5023 24.0126 57.8611 25.1752 56.6827L41.2095 40.6707C41.6259 40.2548 41.7474 39.4403 41.2095 38.9205L33.1923 30.9144C32.7065 30.4292 31.9256 30.4292 31.4397 30.9144L13.6528 48.6767C12.8372 49.4912 11.4489 49.9417 10.1648 49.8378C9.92186 49.8204 9.8004 50.0977 9.95658 50.2537Z" fill="#353535"/>
<path d="M43.1546 8.75083L36.7166 2.32175C33.7492 -0.641517 29.758 0.484871 27.936 2.32175L11.9191 18.3165C11.7629 18.4724 11.6414 18.663 11.5894 18.871C11.4679 19.3215 11.5894 19.7721 11.9017 20.084L19.9188 28.09C20.4047 28.5753 21.1856 28.5753 21.6715 28.09L39.4584 10.3278C40.274 9.49598 41.6622 9.06275 42.9464 9.16672C43.1893 9.18405 43.3281 8.92412 43.1546 8.75083Z" fill="#353535"/>
<path d="M52.7507 20.084C53.2366 19.5988 53.2366 18.819 52.7507 18.3338L46.4342 12.026C44.9765 10.6223 42.6512 10.6397 41.2109 12.078L34.9464 18.3338C34.4606 18.819 34.4606 19.5988 34.9464 20.084L42.9636 28.09C43.5536 28.6619 44.3692 28.4539 44.7162 28.09L52.7507 20.084Z" fill="#353535"/>
<path d="M0.362266 40.6707L6.67879 46.9785C8.13645 48.3822 10.4618 48.3475 11.9021 46.9265L18.1665 40.6707C18.6524 40.1855 18.6524 39.4057 18.1665 38.9205L10.1494 30.9145C9.73293 30.4986 8.91734 30.3946 8.39675 30.9145L0.379636 38.9205C-0.123604 39.4057 -0.12362 40.1855 0.362266 40.6707Z" fill="#353535"/>
</svg>