<svg width="90" height="88" viewBox="0 0 90 88" fill="none" xmlns="http://www.w3.org/2000/svg">
<path d="M68.8223 59.95C65.7649 59.0943 62.6014 58.6666 59.332 58.6666V66C61.8144 66 64.2361 66.3056 66.5973 66.9166C68.9586 67.5277 71.1988 68.4443 73.3177 69.6666H66.5973V77H81.1279V70.0333C81.1279 68.75 80.8101 67.5431 80.1744 66.4125C79.5387 65.2818 78.6759 64.3806 77.5861 63.7083C74.8011 62.0583 71.8799 60.8056 68.8223 59.95Z" fill="#005834"/>
<path d="M67.0514 36.2083C64.9325 34.0694 62.3593 33 59.332 33V40.3333C60.3613 40.3333 61.2241 40.6848 61.9203 41.3875C62.6167 42.0902 62.9647 42.9611 62.9647 44C62.9647 45.0389 62.6167 45.9098 61.9203 46.6125C61.2241 47.3152 60.3613 47.6667 59.332 47.6667V55C62.3593 55 64.9325 53.9306 67.0514 51.7917C69.1705 49.6527 70.23 47.0556 70.23 44C70.23 40.9444 69.1705 38.3473 67.0514 36.2083Z" fill="#005834"/>
<path fill-rule="evenodd" clip-rule="evenodd" d="M8.47461 33V77H30.2705V69.6667H15.7399V36.6667L37.5358 20.1667L48.9787 28.9667C50.1896 28.1111 51.461 27.4236 52.7929 26.9042C54.125 26.3848 55.5478 26.0333 57.0613 25.85L37.5358 11L8.47461 33Z" fill="#005834"/>
<path d="M51.6122 51.7917C53.7313 53.9306 56.3045 55 59.3315 55V47.6667C58.3024 47.6667 57.4397 47.3152 56.7433 46.6125C56.0471 45.9098 55.6989 45.0389 55.6989 44C55.6989 42.9611 56.0471 42.0902 56.7433 41.3875C57.4397 40.6848 58.3024 40.3333 59.3315 40.3333V33C56.3045 33 53.7313 34.0694 51.6122 36.2083C49.4932 38.3473 48.4336 40.9444 48.4336 44C48.4336 47.0556 49.4932 49.6527 51.6122 51.7917Z" fill="#005834"/>
<path d="M66.5979 69.6666H54.3301V77H66.5979V69.6666Z" fill="#005834"/>
<path d="M37.5352 70.0333V77H54.3285V69.6666H45.3454C47.4645 68.4443 49.7045 67.5277 52.0658 66.9166C54.427 66.3056 56.8489 66 59.3311 66V58.6666C56.0617 58.6666 52.8984 59.0943 49.8408 59.95C46.7833 60.8056 43.8621 62.0583 41.077 63.7083C39.9872 64.3806 39.1244 65.2818 38.4887 66.4125C37.853 67.5431 37.5352 68.75 37.5352 70.0333Z" fill="#005834"/>
</svg>
