<svg width="46" height="48" viewBox="0 0 46 48" fill="none" xmlns="http://www.w3.org/2000/svg">
<path d="M23 4.6875L5.84375 11.9062C5.28125 12.1875 4.90625 12.6562 5 13.125C5 21.75 8.5625 36.5625 22.4375 43.125C22.8125 43.3125 23.1875 43.3125 23.4688 43.125C37.3438 36.4688 40.9062 21.75 41 13.125C41 12.6562 40.625 12.1875 40.1562 11.9062L23 4.6875ZM24.2188 0.28125L41.8438 7.78125C43.9062 8.71875 45.5 10.6875 45.5 13.125C45.4062 22.5 41.5625 39.4688 25.4375 47.25C23.8438 48 22.0625 48 20.4688 47.25C4.34375 39.4688 0.5 22.5 0.5 13.125C0.40625 10.6875 2 8.71875 4.0625 7.78125L21.6875 0.28125C22.0625 0.09375 22.5312 0 23 0C23.375 0 23.8438 0.09375 24.2188 0.28125Z" fill="#F27B21"/>
</svg>
