<svg width="36" height="48" viewBox="0 0 36 48" fill="none" xmlns="http://www.w3.org/2000/svg">
<path d="M6 46.5H30C32.4375 46.5 34.5 44.5312 34.5 42V16.875C34.5 16.7812 34.5 16.6875 34.4062 16.5H23.25C21.0938 16.5 19.5 14.9062 19.5 12.75V1.59375C19.3125 1.59375 19.2188 1.5 19.125 1.5H6C3.46875 1.5 1.5 3.5625 1.5 6V42C1.5 44.5312 3.46875 46.5 6 46.5ZM33.5625 14.8125L21.1875 2.4375C21.0938 2.34375 21.0938 2.25 21 2.15625V12.75C21 14.0625 21.9375 15 23.25 15H33.8438C33.75 15 33.6562 14.9062 33.5625 14.8125ZM6 0H19.125C20.25 0 21.4688 0.5625 22.3125 1.40625L34.5938 13.6875C35.4375 14.5312 36 15.75 36 16.875V42C36 45.375 33.2812 48 30 48H6C2.625 48 0 45.375 0 42V6C0 2.71875 2.625 0 6 0ZM6.75 6H14.25C14.625 6 15 6.375 15 6.75C15 7.21875 14.625 7.5 14.25 7.5H6.75C6.28125 7.5 6 7.21875 6 6.75C6 6.375 6.28125 6 6.75 6ZM6.75 12H14.25C14.625 12 15 12.375 15 12.75C15 13.2188 14.625 13.5 14.25 13.5H6.75C6.28125 13.5 6 13.2188 6 12.75C6 12.375 6.28125 12 6.75 12ZM11.7188 29.4375L10.3125 34.7812C9.84375 36.375 8.34375 37.5 6.65625 37.5H6C5.53125 37.5 5.25 37.2188 5.25 36.75C5.25 36.375 5.53125 36 6 36H6.65625C7.6875 36 8.53125 35.3438 8.8125 34.4062L10.3125 29.0625C10.5 28.3125 11.1562 27.8438 12 27.8438C12.75 27.8438 13.4062 28.3125 13.5938 29.0625L15.4688 35.7188L17.5312 32.1562C18 31.3125 18.8438 30.75 19.875 30.75C20.8125 30.75 21.6562 31.3125 22.2188 32.1562L23.7188 34.875C24.1875 35.625 24.9375 36.0938 25.6875 36.0938H30C30.375 36.0938 30.75 36.375 30.75 36.8438C30.75 37.2188 30.375 37.5938 30 37.5938H25.6875C24.375 37.5938 23.0625 36.8438 22.4062 35.625L20.9062 32.9062C20.625 32.5312 20.25 32.25 19.875 32.25C19.4062 32.25 19.0312 32.5312 18.8438 32.9062L16.5 36.8438C16.3125 37.3125 15.8438 37.5 15.375 37.5C14.8125 37.5 14.25 37.125 14.1562 36.5625L12.1875 29.4375C12.1875 29.3438 12.0938 29.25 12 29.25C11.8125 29.25 11.7188 29.3438 11.7188 29.4375Z" fill="#F27B21"/>
</svg>
