<svg width="285" height="256" viewBox="0 0 285 256" fill="none" xmlns="http://www.w3.org/2000/svg">
<path d="M153.79 219.617C151.653 221.752 151.653 225.182 153.79 227.316L173.559 247.057C184.245 257.729 201.572 257.652 212.181 247.057L282.708 176.628C284.846 174.494 284.846 170.988 282.708 168.93L247.445 133.715C245.537 131.809 242.102 131.352 239.736 133.715L153.79 219.617Z" fill="#E5E7EB"/>
<path d="M43.8034 218.854L72.121 247.132C77.3114 252.315 84.1809 255.135 91.4321 255.135C98.7596 255.135 105.629 252.315 110.743 247.132L181.27 176.703C183.102 174.873 183.636 171.291 181.27 169.004L146.007 133.789C143.869 131.655 140.435 131.655 138.298 133.789L60.0613 211.917C56.4739 215.5 50.3675 217.482 44.7193 217.024C43.6507 216.948 43.1164 218.168 43.8034 218.854Z" fill="#E5E7EB"/>
<path d="M189.818 36.3022L161.5 8.02376C148.448 -5.01026 130.893 -0.055808 122.878 8.02376L52.4278 78.377C51.7408 79.063 51.2065 79.9014 50.9775 80.8161C50.4432 82.7979 50.9775 84.7797 52.3514 86.1517L87.615 121.366C89.7522 123.501 93.1869 123.501 95.3241 121.366L173.56 43.2385C177.148 39.5798 183.254 37.6742 188.902 38.1316C189.971 38.2078 190.581 37.0645 189.818 36.3022Z" fill="#E5E7EB"/>
<path d="M232.029 86.1517C234.166 84.0175 234.166 80.5875 232.029 78.4533L204.245 50.7083C197.834 44.5343 187.606 44.6105 181.271 50.937L153.716 78.4533C151.579 80.5875 151.579 84.0175 153.716 86.1517L188.98 121.366C191.575 123.882 195.162 122.967 196.689 121.366L232.029 86.1517Z" fill="#E5E7EB"/>
<path d="M1.59344 176.703L29.3769 204.448C35.7884 210.622 46.0163 210.469 52.3516 204.219L79.9061 176.703C82.0433 174.569 82.0433 171.139 79.9061 169.004L44.6425 133.79C42.8106 131.96 39.2232 131.503 36.9333 133.79L1.66984 169.004C-0.543674 171.139 -0.543748 174.569 1.59344 176.703Z" fill="#E5E7EB"/>
</svg>