<svg width="88" height="88" viewBox="0 0 88 88" fill="none" xmlns="http://www.w3.org/2000/svg">
<path d="M43.3411 22C47.3913 22 50.6745 18.7167 50.6745 14.6667C50.6745 10.6166 47.3913 7.33337 43.3411 7.33337C39.2911 7.33337 36.0078 10.6166 36.0078 14.6667C36.0078 18.7167 39.2911 22 43.3411 22Z" fill="#005834"/>
<path d="M57.6044 29.7367C56.1744 28.3067 53.7178 25.6667 48.9511 25.6667C48.1811 25.6667 43.7444 25.6667 39.6378 25.6667C29.5544 25.63 21.3411 17.4167 21.3411 7.33337H14.0078C14.0078 18.92 21.7444 28.7467 32.3411 31.9367V80.6667H39.6744V58.6667H47.0078V80.6667H54.3411V36.85L68.8244 51.3334L73.9944 46.1634L57.6044 29.7367Z" fill="#005834"/>
<path d="M39.6753 80.6666H32.342L32.3418 47.6666H39.6751L39.6753 58.6666V80.6666Z" fill="#005834"/>
<path d="M54.3413 80.6667H47.008L47.0078 60.5H54.3411L54.3413 80.6667Z" fill="#005834"/>
<path d="M73.9945 46.1633L68.8245 51.3333L54.3496 36.8529V27.0631C55.925 27.9512 56.9735 29.1056 57.6045 29.7367L73.9945 46.1633Z" fill="#005834"/>
<path d="M43.3411 22C47.3913 22 50.6745 18.7167 50.6745 14.6667C50.6745 10.6166 47.3913 7.33337 43.3411 7.33337C39.2911 7.33337 36.0078 10.6166 36.0078 14.6667C36.0078 18.7167 39.2911 22 43.3411 22Z" fill="#005834"/>
<path fill-rule="evenodd" clip-rule="evenodd" d="M57.4525 29.5831L57.5273 29.6584L57.6044 29.7367C57.5791 29.7114 57.554 29.6852 57.5273 29.6584C57.5029 29.634 57.4779 29.6089 57.4525 29.5831ZM54.6464 27.2366C54.5499 27.1779 54.4502 27.12 54.3495 27.0632V36.853L68.8244 51.3334L54.3411 36.85V80.6667L54.3409 60.5H47.0076L47.0078 58.6667H39.6744L39.6743 47.6667H32.3409L32.3411 31.9367C21.7444 28.7467 14.0078 18.92 14.0078 7.33337H21.3411C21.3411 17.4167 29.5544 25.63 39.6378 25.6667H48.9511C51.4015 25.6667 53.2426 26.3643 54.6464 27.2366ZM54.6464 27.2366C55.8345 27.9749 56.7109 28.8378 57.3799 29.5092C57.4046 29.5345 57.4288 29.5591 57.4525 29.5831L57.3799 29.5092C56.7816 28.9007 55.8914 27.995 54.6464 27.2366Z" fill="#005834"/>
</svg>
